<?xml version="1.0" encoding="UTF-8"?>
<svg id="Layer_2" data-name="Layer 2" xmlns="http://www.w3.org/2000/svg" xmlns:xlink="http://www.w3.org/1999/xlink" viewBox="0 0 409.61 236.75">
  <defs>
    <style>
      .cls-1, .cls-2 {
        fill: #fff;
      }

      .cls-2, .cls-3 {
        fill-rule: evenodd;
      }

      .cls-3 {
        fill: #ededee;
      }
    </style>
    <symbol id="PIERC_WHITE" data-name="PIERC WHITE" viewBox="0 0 409.61 236.75">
      <g>
        <path class="cls-1" d="m115.71,2.35c-.11.1-.21.22-.3.33l-.29.39c.24-.12.25-.35.35-.45.16-.14.36-.3.56-.49.15-.14.27-.31.37-.49.07-.13.11-.28.11-.43-.01.15-.05.29-.11.43-.04.08-.09.16-.15.23.09-.11.15-.24.2-.37.04-.11.05-.23.04-.35-.01-.09-.03-.17-.05-.26-.02.1.04.35-.04.45-.13.39-.37.74-.69,1.01Zm-10.08,8.65l.13.12c.37.27.71.59,1.01.93-.32-.41-.71-.77-1.15-1.06Zm-1.7-.69c.44.11.85.28,1.24.5-.39-.23-.81-.4-1.24-.5Zm9.08,24.61c-.14.22-.35.39-.6.48.25-.08.46-.25.6-.48Zm-10.34-25.33c.14.02.29.04.43.07-.34-.06-.68-.08-1.02-.07.13.03.4.03.47.08,1.01.09,1.99.38,2.89.85-.29-.3-.59-.28-.84-.39-.61-.28-1.26-.46-1.93-.54Zm-1.71.13l.3-.04c-.1,0-.2.02-.3.04Zm1.75,29.29c.48.05.93.04,1.38.06-.45-.03-.9-.03-1.38-.07-.44-.06-1.04-.12-1.28-.66.24.54.84.6,1.28.66Zm-.72.26c.3.06.61.1.92.11,1.5.13,3.01.28,4.38.39l-1.64-.15c.82.08,1.52.12,2.36.16-.25-.05-.79-.07-.92-.13-1-.08-2.01-.15-3.01-.22-.5-.05-.97-.03-1.52-.1-.3-.03-.58-.11-.85-.23-.18-.08-.34-.21-.46-.37s-.2-.35-.22-.55c0,.16.04.31.11.45s.17.26.29.36c.17.13.36.23.57.28Zm7.97-3.94c-1.81-.16-3.63-.3-5.38-.42.54.09,1.08.14,1.62.13,1.34.16,2.71.29,3.95.41-.49-.05-.99-.09-1.48-.14.74.08,1.37.12,2.13.15-.22-.05-.72-.07-.83-.12Zm2.89,2.37c-.7-.11-1.32-.08-1.85-.17-2.57-.3-5.07-.46-7.81-.76-.55-.06-1.31,0,.03.18,1.11.17,2.24.3,3.38.41-.13-.06-.67-.08-.92-.14.84.06,1.53.11,2.35.2l-1.34-.14c1.29.13,2.69.26,4.07.41.6-.02,1.21,0,1.81.06-1.96.02-3.97-.22-5.97-.38h0c-.89-.09-1.7-.16-2.56-.25.27.03.54.07.78.08-.63-.04-1.25-.09-1.87-.15l-.46-.04c-.21-.03-.43,0-.64.06-.25.07-.47.22-.61.43s-.21.47-.18.73c-.02-.18.01-.37.09-.54.08-.17.2-.31.35-.42.27-.17.59-.25.91-.21.45.06.9.12,1.35.17.91.11,1.83.2,2.76.29,1.84.16,3.73.4,5.46.48-.99.08-2.3-.21-3.17-.18.81.08,1.63.15,2.43.21.4.02.81,0,1.24.04.49-.02.97.14,1.36.45-.11-.12-.25-.22-.4-.29.19.06.35.17.47.33.12.16.19.35.2.54-.01.34-.14.68-.36.94-.36.43-.77.82-1.22,1.15-.07.06-.15.12-.23.18l.23-.18c.39-.3.76-.64,1.08-1.02.18-.21.32-.45.41-.71.06-.16.07-.33.04-.5-.03-.17-.11-.32-.22-.45.1.12.17.27.2.43.03.16.02.32-.03.47-.09.27-.24.53-.43.75.15-.17.26-.37.33-.59.07-.22.09-.44.07-.67-.05-.17-.15-.32-.29-.44-.13-.12-.3-.2-.48-.23-.28-.07-.57-.11-.86-.12.46,0,.91.12,1.31.36.11.08.19.19.24.31.05.12.07.26.05.39-.03.22-.12.43-.26.61.1-.14.16-.29.19-.45.03-.16.02-.33-.02-.49-.08-.15-.19-.28-.33-.37-.14-.09-.3-.15-.47-.17-.58-.09-1.17-.12-1.76-.1.64-.01,1.28.05,1.91.18.15.03.29.09.4.19.11.1.2.23.24.37.02.15.02.29-.02.44-.04.14-.1.28-.19.4-.32.45-.71.84-1.16,1.17l.1-.08-.2.15c-.34.27-.69.51-1.06.74-.33.19-.68.36-1.04.49l-.18.07c.12-.03.18-.04-.04.05-1.01.38-2.06.63-3.13.73-.38.04-.76.05-1.15.01-.08,0-.16,0-.24-.02l-.28-.03c-.23-.03-.46-.06-.69-.11.22.04.45.08.69.11l.26.03c-.08-.03-.16-.04-.25-.05,1.64.13,3.29-.12,4.82-.72-.1.03-.23.07-.29.08.16-.04.31-.1.47-.15.49-.22.97-.47,1.42-.77-.13.07-.26.14-.39.2.65-.4,1.27-.87,1.83-1.39.3-.26.53-.59.67-.97.03-.1.04-.21.03-.32-.01-.11-.05-.21-.11-.3-.13-.16-.32-.28-.52-.33-.71-.12-1.43-.17-2.15-.15-.71-.05-1.42-.11-2.12-.17.76.03,1.56.09,2.37.14-2.14-.2-4.3-.43-6.45-.59.25.06.56.12.82.18-.12-.01-.24-.02-.35-.04-.09-.01-.18-.02-.27-.03h-.12s.12,0,.12,0c-1.03-.1-1.98-.2-2.69-.28-.41-.04-.95.17-.9.71.07.85,1.52.8,2.26.87,2.57.23,5.52.46,7.8.64-.41.52-.96.92-1.58,1.16.07-.03.12-.09.16-.15.06-.11-.36.11-.96.32-.62.22-1.27.38-1.92.46.13-.03.14-.03.26-.06-.12.04-.25.06-.38.06.33-.05.66-.14.97-.26-.08,0-.17,0-.26.01.89-.23,1.73-.61,2.5-1.12-.83.55-1.77.93-2.75,1.11-.98.18-1.99.16-2.97-.05-.55-.2-1.11-.36-1.67-.5-.19-.02-.39,0-.57.1-.09.06-.18.13-.24.22-.06.09-.11.19-.13.3-.04.19-.03.39.04.57.07.18.18.34.33.46.5.37,1.07.62,1.68.74.56.14,1.13.23,1.7.27,1.23.07,2.46-.04,3.65-.35,1.14-.28,2.22-.76,3.2-1.43.66-.43,1.21-1.01,1.63-1.68.15-.25.22-.54.19-.83s-.15-.56-.35-.78c-.34-.29-.77-.47-1.22-.51Zm-8.99-3.15l-.33-.05c-.76-.09-1.55.02-2.39-.16.9.12,1.81.19,2.72.21Zm3.42.19c-.81-.05-1.65-.12-2.51-.2.84.09,1.7.16,2.51.2Zm-14.65-6.45c-.16.25-.37.49-.56.73.21-.23.4-.47.56-.73Zm7.16-18.04c-.05.09-.08.19-.08.3,0,.1,0,.21.04.31.05.19.16.36.32.48.16.09.34.14.53.13.3,0,.56-.05.82-.06,1.03-.09,2.06.14,2.95.67.83.58,1.41,1.46,1.62,2.46.11.33.24.65.4.97.06.14.16.27.28.38.12.11.26.19.41.24.31.08.64.04.92-.11.15-.07.29-.18.4-.31.11-.14.19-.3.23-.48.05-.23.05-.47.03-.7-.14-.69-.4-1.35-.79-1.94-.38-.6-.83-1.14-1.35-1.62-.23-.2-.62-.34-.1.15.4.43.76.89,1.08,1.37,0-.09-.18-.3-.23-.42.27.31.49.65.68,1.01-.06-.12-.12-.23-.18-.34.32.52.56,1.1.7,1.7.05.17.09.34.12.52.02.17-.01.35-.09.5s-.19.29-.34.38c.1-.08.19-.19.25-.31.06-.12.1-.25.12-.38.02-.18.01-.35-.03-.53-.06-.27-.15-.54-.26-.79-.21-.47-.46-.92-.74-1.35h0c-.24-.36-.51-.71-.82-1.02.09.1.18.21.26.3-.44-.47-.94-.87-1.49-1.21,1.12.82,2.01,1.93,2.56,3.21.24.45.32.97.23,1.48.06-.58-.08-1.17-.4-1.67.19.38.32.78.39,1.19.03.14.02.28-.02.42-.04.14-.11.26-.21.36-.11.1-.24.18-.39.22s-.3.04-.44,0c.1.04.2.05.3.05-.11.02-.23.01-.34-.02-.11-.04-.21-.1-.28-.18-.11-.12-.2-.27-.26-.43-.11-.27-.16-.5-.27-.71.1.19.16.39.26.62.05.15.12.28.22.4s.23.21.37.27c-.27-.15-.48-.4-.57-.69.1.2.24.38.4.53.08.06.17.11.28.12.1.02.2.01.3-.02.17-.05.32-.14.44-.27-.09.1-.21.18-.34.22-.13.05-.27.06-.4.04-.12-.04-.23-.1-.32-.19s-.15-.2-.18-.32c.07.15.18.28.31.38.08.05.17.07.26.08.09,0,.18-.01.26-.05.16-.05.3-.16.39-.3.07-.15.09-.31.07-.47,0-.06-.02-.12-.03-.17-.21-.97-.68-1.87-1.37-2.6.05.11.13.25.17.37-.04-.06-.09-.11-.13-.17l-.05-.06-.04-.04.02.03c-.29-.36-.63-.68-1-.96-1.32-.96-2.98-1.37-4.6-1.12-.12.02-.23.04-.34.06.06-.03.1-.06.11-.09.04-.07-.19-.07-.51.07-.1.04-.18.1-.24.18-.06.08-.1.18-.11.28,0,.18.06.35.15.49-.04-.04-.07-.08-.11-.13.05.07.1.13.15.2-.15-.14-.26-.32-.31-.52-.01.06-.02.11-.02.17-.04-.08-.05-.16-.05-.25,0-.09.02-.17.05-.25.09-.18.24-.33.42-.42.3-.15.56-.2.73-.29-.21.08-.44.14-.72.28-.18.08-.33.22-.43.38Zm8.24,4.56c.02.09.01.17,0,.26s-.06.17-.11.24c-.05.07-.12.13-.19.18-.07.05-.16.07-.25.09-.32.12-.61-.19-.7-.42-.12-.24-.19-.49-.29-.71l.02.05-.04-.11c-.08-.18-.16-.36-.26-.53-.07-.16-.15-.32-.23-.48l-.05-.08c.02.06.02.09-.04,0-.28-.41-.62-.76-1.02-1.05-.11-.08-.26-.18-.42-.3-.04,0-.07-.03-.09-.06l-.11-.07c-.09-.05-.19-.1-.28-.15.1.04.19.09.28.15l.1.06s-.05-.06-.09-.08c.68.35,1.25.86,1.67,1.5-.02-.05-.05-.1-.06-.13.04.07.07.14.1.21.13.21.25.43.35.66-.03-.06-.05-.13-.06-.2.17.32.31.65.42.99.05.18.13.35.23.51.05.09.14.17.24.21.1.04.21.05.32.02.09-.02.18-.06.26-.12.08-.06.14-.13.19-.22.06-.17.07-.36.03-.54-.07-.33-.19-.66-.34-.96.17.28.3.59.37.91.01.06.02.12.03.17Zm-22.15,6.04c.35-.05.69-.12,1.03-.21h-.12c-.3.07-.61.13-.91.21Zm3.96,11.13c.25-.26.48-.55.68-.85-.34.48-.76.89-1.25,1.22l.15-.05c-.11.09-.23.14-.37.17s-.27.01-.4-.03c-.13-.05-.24-.13-.33-.23-.09-.1-.17-.21-.22-.34.09.22.26.4.47.51.11.05.23.07.36.07.12,0,.24-.03.35-.09-.11.05-.23.07-.35.07-.12,0-.24-.03-.35-.07.18.06.38.06.56-.01.2-.07.38-.19.54-.33-.12.12-.26.2-.41.25-.16.05-.32.06-.48.03.54.02.81-.35,1.08-.62-.15.16-.32.29-.5.41-.08.06-.17.11-.27.14-.1.03-.2.03-.3.02-.1-.03-.2-.08-.28-.15-.08-.07-.15-.16-.19-.26l.02.04s-.03-.06-.04-.09c-.06-.16-.08-.33-.04-.49.04-.13.11-.26.2-.36l.03-.06s-.06.04-.02-.03c.15-.31.45-.53.65-.85.07-.1.16-.19.25-.28,0-.01.01-.02.02-.03,0,0,.02-.02.03-.02l.07-.06c.05-.06.1-.11.16-.16-.05.05-.11.11-.16.16l-.06.06s.06-.02.08-.04c-.34.4-.7.8-1.02,1.26.03-.02.06-.06.08-.07-.04.04-.08.08-.12.12-.11.16-.17.35-.19.54,0-.06.03-.11.06-.15-.03.14-.02.28.02.41.04.13.12.25.22.34.11.09.25.14.4.14.14,0,.28-.05.4-.14.37-.31.69-.66.96-1.05-.13.23-.29.44-.46.64.49-.52.95-1.07,1.38-1.64-.08.04-.17.1-.25.15l.07-.09.06-.07.02-.03-.03.03c.38-.46.78-.93,1.14-1.34.37-.42,1.67-1.74.22-1.86-.09,0-.17,0-.26.03.04-.04.07-.07.09-.09.03-.08-.18-.06-.37.09-.17.16-.32.34-.45.53.02-.05.02-.05.04-.1-.01.05-.04.09-.08.12.05-.11.1-.22.13-.34l-.09.05c.07-.18.18-.35.32-.47.19-.17.43-.28.69-.31-.23.03-.44.12-.63.26-.19.13-.34.31-.45.51-.18.31-.39.6-.63.87-.49.56-1.05,1.09-1.55,1.63-.29.29-.58.54-.88.83-.17.16-.31.34-.43.54-.16.28-.22.6-.16.92.05.18.14.35.27.5.09.11.21.2.34.27s.27.1.42.11c.36.02.72-.09,1.01-.31.2-.14.39-.29.58-.45.64-.63,1.1-1.32,1.7-2,.12-.13.17-.42-.15-.1-.28.25-.53.53-.77.82.06,0,.16-.16.24-.2-.15.22-.31.42-.48.62l.36-.41c-.31.35-.61.72-.97,1.1-.13.14-.15.38-.46.51.57-.57.86-1.11,1.32-1.62h0c.2-.22.36-.43.55-.65-.06.06-.12.12-.17.19.24-.34.49-.66.75-.98-.88.78-1.57,1.84-2.46,2.71Zm2.1-2.65l-.09.08c-.19.24-.38.48-.57.74.23-.26.45-.53.66-.82Zm.81-2.85c-.08-.02-.16-.03-.24-.04.08.01.15.02.24.04Zm7.98,8.29c.67.18,1.35.26,2.04.24.44.02,1.11-.07-.04-.18-.54-.02-1.09-.08-1.62-.19-.36-.07-.68-.25-.93-.51-.12-.14-.21-.3-.25-.49.05.19.15.36.27.5.13.14.29.26.47.33.41.16.85.24,1.3.26-.26-.02-.52-.06-.77-.1.59.07,1.18.1,1.77.09.52.02,1.1.09,1.65.14-.79-.13-1.59-.22-2.39-.25-.45,0-.9-.08-1.33-.2-.27-.08-.52-.25-.68-.48-.1-.14-.15-.31-.16-.48,0-.17.03-.34.12-.49.34-.38.81-.62,1.32-.68.42-.1.82-.18,1.22-.28.81-.19,1.61-.37,2.39-.54-.86.28-2.05.45-2.79.71,1.42-.33,2.86-.68,4.32-1.04l-.33.06c.89-.28,1.89-.43,2.76-.7-.8.26-1.63.43-2.43.64.38-.07.77-.16,1.24-.28-.25.09-.61.19-.98.29-.48.11-.97.23-1.44.35.74-.17,1.48-.32,2.16-.44-1,.26-2.03.51-3.04.76l1.67-.37c.92-.24,1.87-.44,2.79-.72l-.11.03.21-.06c.36-.11.73-.22,1.11-.31.34-.08.7-.1,1.05-.07.06,0,.12.02.18.03-.11-.04-.17-.07.06-.02.14.04.26.11.35.22.09.1.16.23.18.37.02.14,0,.28-.05.41-.05.13-.15.24-.26.32-.44.26-.93.45-1.43.55-.33.08-.67.14-1,.18-.07.02-.13.03-.2.03-.08.01-.16.03-.25.05-.2.04-.41.09-.61.12.2-.04.4-.08.61-.12.08-.02.15-.03.23-.05-.07,0-.15,0-.22.02.68-.16,1.42-.24,2.13-.47.39-.08.73-.31.97-.62.05-.1.07-.2.07-.31,0-.11-.03-.21-.07-.31-.05-.1-.12-.18-.2-.24-.08-.07-.18-.11-.29-.13.09.03.18.08.26.14-.13-.09-.28-.15-.44-.17-.49,0-.98.06-1.45.19.13-.03.26-.05.39-.06-1.32.38-2.65.7-4,.99-1.25.31-2.49.63-3.73.93.66-.2,1.35-.38,2.06-.56-.95.21-1.9.44-2.85.64-.52.05-1,.28-1.37.65-.06.13-.09.28-.06.42.03.14.1.28.2.38.2.17.44.29.7.33-.23-.07-.44-.2-.6-.38.08.07.16.13.26.17.06.03.13.06.19.08.03.01.07.02.11.03h-.02c.7.11,1.4.17,2.11.17,2.98.28,5.02.53,8,.76.52.04,1.15.18,1.48-.35.04-.1.05-.21.03-.32-.01-.11-.05-.21-.11-.3.08.08.12.15.15.17.04.05.07-.06-.04-.24-.17-.22-.41-.36-.68-.4-.6-.12-1.32-.11-1.81-.16q.13,0,.26,0c-.13,0-.25,0-.38-.02.26,0,.77,0,.92-.03l-.23-.06c.45-.04.91-.02,1.36.06.33.06.63.24.84.51.16.28.21.6.15.91.04-.16.04-.33,0-.5s-.09-.32-.19-.46c-.2-.25-.48-.41-.79-.47-.48-.08-.96-.12-1.44-.12-.95-.05-1.94-.11-2.95-.19-.27-.02-.53-.04-.8-.06.77-.18,1.56-.33,2.3-.49.54-.08,1.09-.15,1.64-.29.29-.07.58-.17.84-.31.17-.09.32-.22.43-.38.12-.19.18-.42.15-.64-.01-.23-.1-.44-.25-.61-.15-.16-.34-.28-.55-.33-.31-.07-.62-.09-.94-.06-.51.06-1.02.14-1.53.26-.36.1-1.14.3-1.77.45-1.08.23-2.17.46-3.24.65-.57.12-1.14.24-1.7.37-.62.11-1.22.27-1.81.49-.23.1-.44.24-.61.42-.13.13-.22.3-.27.47s-.07.36-.04.54c.04.32.19.62.43.84.19.16.41.29.64.37Zm-7.21-7.79c.05.19.04.48-.02.51-.29.66-.68,1.27-1.16,1.81.25-.12.24-.34.36-.47.29-.28.54-.6.74-.95.09-.15.15-.32.17-.49-.02.07-.04.14-.06.2.05-.2.04-.42-.03-.62Zm-.08.91c-.04.07-.08.13-.11.19.05-.1.11-.19.17-.31l-.05.12Zm.06-.13s.04-.1.06-.16c-.01.05-.03.11-.06.16Zm27.48-5.28c-.09-.05-.17-.11-.26-.15.19.1.37.21.55.34.31.21.55.53.66.89.05.37.23.67-.24,1.12.12-.13.2-.29.24-.46.04-.15.05-.3.03-.44-.03-.29-.17-.55-.37-.75-.29-.27-.62-.49-.98-.66h0c-.27-.13-.54-.25-.82-.36.08.04.16.08.25.11-.42-.13-.82-.25-1.17-.4.47.29,1.08.48,1.65.78.31.14.6.33.85.56.15.14.27.32.33.52.07.22.05.46-.05.66.08-.26.06-.54-.04-.79-.09-.2-.24-.36-.44-.46.15.1.27.23.35.39.09.16.14.33.15.51,0,.2-.07.39-.2.55-.07.08-.16.14-.25.19-.1.05-.2.07-.31.08.06,0,.11,0,.17,0-.42.07-.84,0-1.21-.2.33.13.68.2,1.04.2-.19-.01-.37-.04-.55-.08.11,0,.26.02.43.01.13.01.25,0,.37-.06.12-.05.22-.13.3-.23-.12.13-.28.22-.45.25s-.35,0-.51-.07c.22.04.44.03.65-.05.1-.05.19-.13.26-.23.06-.1.09-.22.1-.33,0,.12-.05.24-.12.34-.08.1-.18.17-.3.21-.37.07-.76.02-1.1-.14l.04.02-.08-.03c-.13-.05-.26-.11-.39-.16-.11-.06-.22-.12-.32-.19l-.06-.03s.04.05-.03.03c-.32-.09-.61-.29-.98-.39-.12-.04-.23-.09-.34-.15-.01,0-.03,0-.04,0-.01,0-.02-.02-.03-.03l-.08-.04c-.07-.03-.14-.06-.2-.1.07.03.14.06.2.1l.08.04s-.04-.05-.06-.06c.49.19.99.39,1.49.61-.03-.02-.06-.05-.08-.07l.14.09c.16.07.32.14.48.23-.04-.03-.08-.06-.12-.09.45.26.97.39,1.5.37.13-.05.23-.14.3-.26s.09-.25.07-.39c-.02-.12-.07-.24-.13-.34-.07-.1-.15-.19-.26-.26.13.07.24.17.32.29.08.12.12.27.12.41,0-.2-.07-.39-.18-.56-.11-.17-.26-.3-.44-.39-.31-.2-.64-.35-.98-.47.07.06.15.13.21.2-.04-.02-.08-.03-.12-.05l-.07-.03h-.04s.02,0,.02,0c-.43-.18-.85-.32-1.05-.41-.91-.44-1.86-.83-2.82-1.15-.04-.01-.11.03-.16.04-.08,0-.16.02-.23.04.03-.02.05-.05.07-.08.03-.07-.16-.07-.37.07-.11.08-.18.19-.23.31-.04.12-.05.26-.01.39-.02-.04-.02-.05-.03-.08.02.04.03.08.03.13-.06-.13-.09-.27-.11-.41-.02.04-.04.08-.06.12-.01-.13,0-.26.06-.38.06-.12.14-.22.25-.29.19-.12.39-.22.59-.3-.21.06-.41.16-.59.28-.12.08-.21.18-.28.31-.07.12-.1.26-.1.4,0,.25.09.5.26.69.15.16.34.29.54.38.74.29,1.39.62,2.07.92.69.35,1.34.74,1.97,1.19.24.12.51.2.78.24.18.05.37.07.56.04.19-.02.37-.09.53-.19.2-.14.36-.34.45-.57.08-.2.11-.41.1-.62-.05-.39-.25-.75-.56-1-.2-.18-.43-.33-.67-.45-.43-.21-.87-.39-1.31-.56-.17-.07-.45-.02-.05.17.34.18.7.34,1.06.52-.02-.06-.21-.12-.28-.19.23.08.45.18.66.3Zm-5.07-9.38h0s-.02-.04-.02-.04c-.07-.15-.09-.33-.05-.5.04-.15.14-.27.28-.34l.05-.04s-.07.02,0-.04c.31-.2.66-.35,1.02-.43.12-.04.24-.07.37-.08.01,0,.02-.01.04-.01.01,0,.03,0,.04,0h.09c.07-.02.15-.03.23-.04-.07.01-.15.02-.23.03h-.08s.06.03.09.02c-.55.08-1.07.27-1.55.54.04-.01.08-.03.1-.03-.05.02-.11.05-.16.08-.08.06-.15.14-.19.24s-.07.19-.08.3c0-.06.02-.11.06-.16-.03.14-.02.28.03.41s.13.25.24.34c.25.11.52.15.79.11.47-.08.93-.2,1.38-.35-.24.11-.49.2-.75.26.71-.13,1.4-.36,2.08-.54-.09-.02-.2-.02-.29-.03.03,0,.07-.02.1-.02.03,0,.07-.01.1-.02h.04s-.04,0-.04,0c1.21-.26,2.84-.42,2.89-1.09.04-.53-.27-.68-.67-.75-.08-.01-.16-.02-.24,0,.03-.01.06-.04.09-.07.06-.17-.66.04-1.01.13l.09-.05s-.09.04-.13.04c.11-.05.21-.11.31-.18l-.09-.02c.33-.18.7-.3,1.08-.34-.38.05-.76.14-1.11.28-.34.11-.7.21-1.06.31-.72.2-1.45.35-2.19.45-.43.04-.85.12-1.26.24-.27.08-.51.24-.69.46-.1.14-.17.31-.21.48-.03.17-.03.35.02.53.02.07.04.13.07.2.02.04.04.08.06.12.05.07.11.14.17.21.2.17.44.28.71.29.48.04.97.03,1.45-.04.43-.07.86-.18,1.27-.31.4-.12.81-.22,1.23-.29.18-.03.4-.22-.05-.17-.36.02-.73.07-1.08.16.05.03.21-.03.3-.02-.25.09-.46.16-.72.23.18-.05.35-.09.52-.13-.43.1-.91.25-1.43.35-.19.04-.32.22-.63.16.7-.16,1.33-.42,1.96-.58h0c.28-.07.52-.13.8-.18-.08,0-.17.02-.25.04.39-.12.8-.2,1.21-.29-.6.04-1.19.13-1.78.27-.59.18-1.19.33-1.79.44.35-.08.7-.18,1.04-.31-.54.16-1.1.28-1.66.36h.13c-.21.06-.42.06-.63,0-.14-.03-.27-.1-.38-.2-.06-.06-.11-.14-.16-.21.1.18.27.31.47.37.19.05.38.06.57.04-.19,0-.38-.03-.57-.07.15.02.31.02.46,0,.19,0,.39-.03.58-.06-.29.05-.58.04-.87-.03.4.01.81-.03,1.19-.15-.21.04-.42.07-.63.09-.18.03-.37.03-.56.02-.1-.01-.2-.05-.29-.11-.08-.06-.15-.14-.2-.23v.02s-.01-.04-.01-.04Zm-5.65,26.81c-.2-.02-.4-.03-.59-.05.21.02.41.04.59.05Zm-23.63-18.64c.18-.03.41-.21-.05-.17-.36,0-.72.06-1.07.15.05.03.21-.04.29-.02-.24.08-.46.16-.72.23.18-.05.35-.09.52-.13-.42.1-.92.26-1.43.35-.19.04-.32.22-.63.16.7-.16,1.33-.41,1.97-.58h0c.28-.07.51-.12.79-.17-.08,0-.17.02-.25.04.39-.12.8-.19,1.22-.28-.6.03-1.19.12-1.78.26-.59.18-1.19.33-1.8.43.35-.08.7-.18,1.04-.31-.54.16-1.1.28-1.66.35.05,0,.09,0,.14.01-.21.05-.42.05-.63,0-.14-.03-.27-.1-.38-.19-.06-.06-.12-.13-.16-.21.11.17.28.3.47.36.18.05.38.06.57.04-.19,0-.38-.03-.56-.07.15.02.31.02.46,0,.19,0,.39-.02.58-.06-.29.05-.58.04-.87-.03.4.01.8-.03,1.19-.14-.21.04-.42.07-.63.08-.18.03-.37.03-.56.01-.1-.01-.2-.05-.28-.1-.08-.06-.15-.13-.2-.22h0s-.02-.04-.02-.04v.02s-.01-.04-.02-.06c-.08-.15-.1-.33-.06-.5.05-.14.15-.26.28-.34l.05-.04s-.07.02,0-.04c.31-.2.66-.34,1.01-.43.12-.04.24-.07.37-.08.01,0,.02-.01.04-.01.01,0,.03,0,.04,0h.09c.07-.03.15-.04.23-.04-.07.01-.15.02-.23.03h-.08s.06.03.09.02c-.55.09-1.07.27-1.55.54.04-.01.08-.03.1-.03-.05.02-.11.05-.16.07-.08.06-.15.14-.2.23s-.08.19-.08.3c0-.06.02-.11.06-.16-.03.14-.02.28.03.42s.14.25.25.33c.25.11.52.15.79.11.47-.08.93-.19,1.38-.34-.24.11-.49.19-.75.26.71-.13,1.4-.36,2.08-.54-.09-.02-.2-.02-.29-.04l.1-.02s.07-.01.1-.02h.04s-.04,0-.04,0c1.05-.21,2.84-.39,2.9-1.09.04-.53-.27-.68-.67-.75-.08-.01-.16-.02-.25-.01.03-.01.07-.04.09-.06.07-.17-.67.03-1.01.12l.09-.05s-.09.05-.13.04c.11-.05.21-.11.31-.18l-.09-.02c.33-.18.7-.29,1.08-.32-.38.04-.76.13-1.12.27-.34.11-.7.22-1.06.32-.72.2-1.45.36-2.19.46-.42.05-.84.13-1.25.24-.27.08-.51.23-.69.44-.11.15-.18.31-.22.49-.03.18-.03.36.02.54.02.07.05.13.08.2.02.04.04.08.07.12.05.07.11.14.17.2.2.17.44.27.7.28.48.05.97.03,1.45-.03.43-.07.86-.18,1.28-.31.4-.13.81-.22,1.22-.28Zm35.49-10.66c-.07-.03-.15-.05-.23-.06.08.02.15.03.23.06Zm.62,1.59c.12-.15.19-.32.2-.51.01-.21-.03-.42-.13-.6.05.15.1.42.05.48,0,.14-.03.28-.08.4-.06.13-.14.24-.25.33-.16.13-.34.24-.53.32-.32.14-.66.26-1,.35.28.04.42-.13.6-.18.29-.06.56-.16.81-.31.17-.1.31-.24.42-.41.06-.11.1-.22.12-.34,0-.03,0-.06,0-.09,0-.06,0-.11,0-.16,0,.06,0,.11,0,.16,0,.1-.02.2-.06.3-.04.1-.09.19-.16.27Zm-.87.08c-.28.14-.58.24-.88.31.31-.05.61-.16.88-.31Zm-2.22.69c.35-.06.69-.13,1.03-.22h-.12c-.3.07-.6.14-.9.22Zm.37,9.45c-.32-.15-.65-.27-.99-.36.03.02.07.04.1.06.29.1.59.19.89.3Zm-8.73,4.4c-.03.22-.11.43-.24.6-.16.19-.38.32-.63.37s-.5,0-.72-.14c-.19-.13-.33-.32-.41-.54-.12-.34-.17-.7-.17-1.06.03-2.73,1.47-5.03,2.17-7.44.39-1.19.53-2.44.44-3.68-.12-1.23-.49-2.43-1.1-3.51-1.22-2.13-3.22-3.71-5.58-4.39,1.43.39,2.75,1.11,3.83,2.12,1.02.95,1.82,2.11,2.36,3.39-.84-2.07-2.38-3.78-4.36-4.83s-4.26-1.36-6.44-.88c.32-.06.65-.11.97-.14-1.41.17-2.77.65-3.99,1.39-1.21.75-2.23,1.76-3,2.97-.13.21-.26.42-.37.65.11-.22.24-.43.37-.65.67-1.07,1.54-2,2.57-2.72,1.03-.72,2.2-1.23,3.44-1.49-1.25.23-2.43.74-3.46,1.48.82-.61,1.73-1.07,2.71-1.36,1.34-.4,2.75-.5,4.13-.3-2.11-.31-4.26.06-6.14,1.07,1.38-.78,2.93-1.22,4.52-1.26,1.59-.03,3.17.32,4.6,1.03-1.55-.79-3.29-1.15-5.03-1.05,1.97-.14,3.93.32,5.63,1.32s3.05,2.49,3.89,4.28c-.93-1.98-2.52-3.59-4.49-4.55,1.33.66,2.49,1.62,3.37,2.82.88,1.19,1.47,2.58,1.71,4.04.21,1.47.08,2.97-.38,4.38-.43,1.42-1.05,2.78-1.52,4.21.26-.67.61-1.48.9-2.13-.13.32-.25.64-.38.96-.09.22-.17.44-.25.67l-.11.32c.02-.06.04-.11.06-.17-.22.59-.4,1.2-.53,1.82-.14.66-.56,3.26.71,3.04.86-.15.47-1.48.56-2.19.43-3.5,3.07-6.57,2.53-10.63-.19-1.62-.75-3.18-1.63-4.55-.88-1.38-2.05-2.54-3.44-3.4-2.17-1.35-4.75-1.92-7.28-1.59-.64.08-1.27.21-1.89.39.2-.06.39-.14.58-.22-.95.11-1.87.43-2.69.94-1.65.89-3.06,2.17-4.1,3.73q.21-.35.45-.68c-.24.33-.45.68-.66.97.49-.82,1.06-1.58,1.72-2.28-.18.16-.36.33-.54.5.89-1.04,1.97-1.9,3.18-2.53,1.22-.64,2.53-1.08,3.89-1.31-2.8.43-5.37,1.83-7.25,3.95-1.01,1.18-1.78,2.56-2.25,4.04-.47,1.48-.65,3.05-.51,4.6.16,1.62.7,3.18,1.6,4.54.94,1.31,2.02,2.51,3.23,3.58,1.21.95,2.24,2.12,3.01,3.45.14.41.36.79.64,1.12.11.1.23.17.37.21.14.04.29.05.43.02.14-.03.28-.09.39-.18.11-.09.21-.2.27-.33.14-.45.1-.94-.11-1.36-.15-.37-.33-.73-.54-1.08-1.01-1.37-2.2-2.6-3.52-3.67-1.2-1.01-2.18-2.25-2.88-3.65-.59-1.33-.85-2.78-.75-4.23.1-1.45.55-2.85,1.32-4.08.41-.69.9-1.32,1.46-1.89.69-.7,1.5-1.29,2.38-1.73,1.44-.69,3.03-.99,4.62-.89,1.57.12,3.09.64,4.41,1.51,1.39.89,2.49,2.15,3.18,3.65.69,1.5.93,3.16.7,4.79-.37,1.72-.92,3.41-1.63,5.02-.35.91-.62,1.86-.78,2.83-.08.52-.11,1.05-.08,1.57.02.32.09.64.21.94.09.21.23.4.4.55.21.18.47.29.75.31.21.02.41,0,.61-.08.19-.07.37-.18.52-.33.23-.26.37-.58.4-.93.03-.3.02-.6-.03-.89-.03-.12-.04-.09-.05.24,0,.28-.03.55-.09.82-.07.3-.24.57-.48.76-.16.11-.35.19-.54.22s-.4.01-.58-.05c-.17-.06-.32-.16-.44-.28-.13-.12-.22-.27-.28-.44-.09-.23-.15-.48-.17-.73-.03-.43-.02-.86.03-1.29.11-.82.3-1.62.58-2.39.52-1.53,1.2-2.95,1.62-4.42-.12.33-.59,1.72-.89,2.36.67-1.51,1.08-3.12,1.22-4.76-.02.41-.07.83-.14,1.23.24-1.27.18-2.57-.17-3.81-.53-1.89-1.68-3.55-3.26-4.72-1.3-.89-2.79-1.47-4.35-1.71,1.29.15,2.53.58,3.65,1.24,1.12.66,2.08,1.56,2.83,2.62.75,1.09,1.25,2.33,1.44,3.64.19,1.31.09,2.64-.32,3.9v-.03c-.57,2.03-1.58,3.82-2.02,5.96-.07.3-.11.6-.15.9.04-.31.09-.61.15-.9.08-.39.19-.76.29-1.1-.25.8-.4,1.64-.44,2.48-.04.5.03,1.01.2,1.48.07.17.17.32.31.44.14.12.3.2.48.24.18.03.36.02.54-.03.17-.05.33-.15.46-.27.16-.23.27-.48.33-.75.06-.27.07-.55.02-.82-.04-.4-.02-.8.06-1.19.16-.82.4-1.63.7-2.41-.48,1.08-.77,2.23-.83,3.41.03.34.02.67-.02,1.01Zm.18-12.13c.04.32.06.64.06.97,0-.32-.02-.65-.06-.97Zm-8.71-10.07c-.57-.02-1.13.01-1.69.08.56-.07,1.13-.09,1.69-.08Zm2.37,32.88c-.52-.05-1.05-.11-1.58-.16-.27-.03-.53-.06-.8-.08-.29-.06-.59-.03-.87.07.14-.04.28-.07.42-.06.96.07,1.87.16,2.83.24Zm4.65-14.33c-.43,1.16-.58,2.4-.43,3.62.04.22.14.42.28.59.08.09.19.17.31.21.12.05.24.06.37.05.12,0,.24-.04.35-.1s.2-.14.28-.24c.12-.19.19-.4.21-.62.02-.37,0-.75-.02-1.12,0-.35.04-.69.12-1.03-.08.32-.13.64-.15.96,0,.31.04.63.03.97.02.19,0,.38-.08.55-.07.18-.18.33-.32.46-.17.12-.38.16-.59.13-.21-.03-.39-.14-.52-.3-.19-.31-.3-.66-.3-1.02-.03-1.06.13-2.11.47-3.11.09-.27.18-.54.27-.8-.09.26-.18.53-.27.8Zm1.87-14.17c.19.25.38.52.55.79-1.15-1.8-2.79-3.23-4.73-4.12-.05-.03-.1-.05-.15-.07.05.02.1.05.15.07.75.37,1.45.83,2.09,1.35,2.3,1.79,3.83,4.39,4.26,7.27.23,1.43.13,2.89-.28,4.28-.37,1.37-.93,2.64-1.38,3.89.72-1.54,1.26-3.15,1.61-4.81.51-2.71-.04-5.52-1.55-7.84.04.07.09.14.13.2-.21-.35-.44-.69-.7-1.02-.71-.94-1.56-1.76-2.54-2.42.96.67,1.82,1.49,2.54,2.42Zm.33,12.89c.51-1.21.95-2.44,1.31-3.7.33-1.24.4-2.54.18-3.81.21,1.26.15,2.56-.18,3.79-.36,1.27-.79,2.51-1.3,3.72Zm-26.96-14c.62.24,1.26.44,1.88.64-.2-.19-.4-.12-.57-.19-.45-.21-.92-.39-1.34-.56l.5.21c-.24-.1-.48-.18-.73-.25.06.06.24.1.26.16Zm33.33,13.59c-.44-.23-.9-.44-1.35-.62.18.07.35.15.52.22-.25-.11-.5-.2-.76-.27.07.06.26.1.28.16.64.25,1.26.5,1.87.7-.19-.19-.39-.13-.56-.2Zm-.51.21c.28.09.57.21.87.32-.28-.13-.57-.24-.87-.32Zm-3.05-18.62l-.09.08c-.19.24-.38.49-.56.74.23-.26.45-.53.66-.82Zm1.07,17.67v-.03s0,0,.05-.02c.04-.01.08-.02.12-.02.03,0,.06,0,.08,0,.03,0,.06,0,.09.02.03,0-.03-.02-.09-.02h-.02s-.04,0-.06,0c-.07,0-.14,0-.13.02-.02,0-.04.01-.06.02,0-.01,0,0,0,0h0s.02.03.02.03v.05s0-.02,0-.02v-.02Zm-32.49-11.39c.73.4,1.4.65,2.07.97.68.35,1.34.74,1.97,1.18.23.11.48.2.74.24.3.1.62.12.92.06.24-.06.46-.19.62-.38.14-.17.24-.38.29-.6.05-.24.03-.48-.06-.71-.07-.18-.18-.35-.31-.5-.2-.21-.42-.39-.67-.52-.42-.23-.86-.43-1.31-.6-.17-.07-.46-.03-.05.17.34.18.69.35,1.05.55-.02-.06-.21-.13-.27-.2.28.1.54.24.78.42-.17-.13-.34-.24-.53-.34.25.13.48.29.69.47.17.13.3.3.39.49.09.19.14.4.13.61,0,.17-.03.33-.07.49-.04.12-.11.23-.21.32s-.21.15-.34.18c.14-.08.27-.18.37-.31s.17-.28.21-.44c.04-.16.04-.32,0-.48-.03-.16-.1-.31-.2-.44-.26-.32-.59-.59-.97-.77h0c-.26-.14-.54-.27-.82-.38.08.04.16.08.24.11-.41-.14-.82-.27-1.17-.41.48.28,1.08.49,1.65.81.31.16.6.37.83.63.15.18.23.4.23.63,0,.23-.09.46-.25.63.16-.23.24-.51.2-.79-.02-.12-.06-.22-.12-.32-.06-.1-.15-.18-.25-.24.13.12.23.26.29.42.07.18.08.38.03.56-.03.1-.08.2-.14.28-.07.08-.15.15-.25.2-.17.08-.36.11-.55.1.05.01.1.01.15.02-.4,0-.79-.08-1.14-.25.32.12.65.2.99.23-.17-.03-.33-.07-.51-.11.11,0,.26.03.41.03.23.04.46,0,.67-.1-.15.06-.31.09-.47.09s-.32-.04-.46-.12c.2.04.41.05.62.03.12-.01.23-.06.32-.14.09-.08.16-.18.19-.29-.04.12-.12.22-.22.29-.1.07-.22.11-.35.11-.37,0-.73-.06-1.07-.21l.04.02-.08-.03c-.13-.05-.26-.1-.39-.16-.11-.05-.22-.11-.33-.19l-.06-.03s.04.05-.03.03c-.31-.09-.61-.29-.98-.38-.12-.04-.23-.09-.34-.15-.01,0-.03,0-.04,0-.01,0-.02-.02-.03-.03l-.08-.04c-.07-.03-.14-.06-.2-.1.07.03.13.06.2.1l.08.04s-.04-.05-.06-.06c.48.19.99.39,1.48.61-.03-.02-.06-.05-.08-.07l.14.09c.16.07.32.14.48.22-.04-.03-.08-.06-.12-.09.46.23.96.38,1.47.43.13,0,.26-.06.36-.15s.16-.21.18-.35c.02-.12,0-.25-.04-.37-.04-.12-.12-.22-.21-.3.11.08.2.18.25.31.05.13.07.26.04.4.05-.18.03-.38-.06-.54-.1-.17-.23-.31-.39-.43-.3-.21-.62-.38-.97-.51.06.06.15.13.21.2-.04-.02-.07-.03-.11-.05-.02-.01-.05-.03-.08-.04l-.04-.02h.02c-.45-.19-.9-.34-1.11-.44-1.18-.5-1.88-.75-2.72-1.09-.05-.03-.11-.05-.17-.04-.08,0-.16,0-.24.01.03-.01.06-.04.08-.07.03-.07-.14-.08-.37,0-.12.05-.23.13-.3.24-.07.11-.12.23-.12.36,0-.04-.01-.07-.01-.11,0,.05,0,.11,0,.16-.03-.14-.02-.29,0-.43-.03.03-.06.06-.09.1.03-.12.08-.24.16-.33s.19-.17.3-.21c.23-.11.43-.13.58-.19-.2.04-.39.1-.58.18-.13.05-.24.13-.33.22-.09.1-.16.22-.21.34-.06.24-.03.49.07.71.1.22.28.4.5.51Zm3.9,11.13c.31-.06.61-.16.88-.31-.28.14-.58.25-.88.31Zm-.23-11.6l.1.06c.29.1.59.2.88.32-.32-.16-.65-.28-.99-.38Zm24.32-2.62c.22.13.48.18.73.14.18-.03.36-.1.52-.19.22-.14.43-.29.63-.46.66-.64,1.11-1.32,1.71-2.01.12-.13.17-.42-.15-.1-.28.26-.53.53-.77.82.06,0,.16-.16.24-.2-.15.22-.31.43-.48.62l.36-.41c-.31.35-.61.72-.98,1.11-.14.14-.16.38-.5.51.49-.51.94-1.06,1.36-1.63h0c.2-.22.36-.44.55-.65-.06.06-.12.12-.17.19.24-.35.49-.67.75-.98-.89.78-1.55,1.84-2.48,2.71.26-.26.5-.55.7-.85-.38.38-.6.91-1.36,1.18.06,0,.12-.02.18-.03-.13.07-.29.09-.43.07-.15-.02-.29-.09-.4-.19-.16-.15-.28-.35-.33-.57.05.18.15.35.28.49.09.1.19.17.32.21.12.04.25.05.38.02-.13.01-.25,0-.37-.05-.12-.04-.22-.12-.31-.21.15.12.34.19.53.2.18,0,.36-.06.5-.17.05-.03.09-.06.13-.1-.04.03-.08.06-.13.1-.12.09-.27.13-.42.13s-.3-.06-.41-.15c.1.07.23.1.35.1s.24-.04.35-.1c.17-.11.33-.24.47-.39-.15.16-.34.29-.53.38.4-.28.74-.62,1-1.03-.13.23-.29.44-.47.64.5-.52.96-1.06,1.39-1.64-.08.04-.17.11-.25.15l.07-.09.06-.07.03-.03-.03.03c.37-.44.73-.88,1.19-1.4.31-.35.97-.77.95-1.21-.02-.64-.4-.68-.49-.71-.08-.02-.16-.03-.23-.02.03-.02.06-.04.08-.07.05-.07-.16-.1-.38.02-.2.13-.38.28-.53.46l.05-.09s-.05.09-.09.11c.06-.11.12-.21.18-.33l-.09.04c.09-.18.23-.32.41-.43.23-.13.48-.19.74-.17-.23-.01-.47.03-.68.13-.21.1-.39.25-.53.44-.26.29-.46.61-.69.88-.44.6-.93,1.15-1.47,1.67-.31.27-.63.5-.94.79-.2.16-.37.35-.5.58-.13.22-.21.47-.24.73,0,.19.06.39.16.56.12.22.29.4.51.52Zm-22.27,12.72c.05.15.1.42.05.48,0,.14-.02.27-.08.4-.06.13-.14.24-.25.32-.16.13-.34.24-.53.33-.32.14-.66.26-1,.35.28.05.42-.14.61-.18.29-.06.56-.17.81-.32.17-.1.31-.24.41-.41.05-.08.08-.17.1-.27,0,.05-.02.09-.04.13-.03.07-.07.14-.11.21.09-.13.14-.28.15-.44.01-.21-.03-.42-.13-.6Zm26.74,1.73h0s0,0,0,0h0s0,0,0,0Zm-26.6-1.19c0-.06,0-.11,0-.16,0,.06,0,.11,0,.16,0,.05,0,.1-.02.15v-.06s.02-.06.02-.09Zm-3.41-10.96c.3.08.59.18.87.29-.28-.12-.57-.22-.87-.29Zm-1.91-1.06c.11,0,.22.03.32.07-.1-.05-.21-.08-.32-.07Zm31.01-4.74c.21-.24.39-.48.59-.7-.2.22-.39.45-.59.7Zm1.04-2.58c-.08-.05-.17-.08-.26-.1.09.02.18.05.26.1Zm-27.56,18.32c-.07-.03-.15-.05-.23-.06.08.02.15.03.23.06Z"/>
        <g>
          <path class="cls-3" d="m118.24,48.21c1.26.6,2.44,1.35,3.51,2.23l-.02.03-.02.03h0s-.02.03-.02.03l-.02.03h0s-.03.06-.03.06v.02s-.04.04-.04.04l-.02.03-.02.03-.02.03h0s-.03.06-.03.06v.02s-.02.01-.02.01l-.02.03-.02.03h0s-.02.03-.02.03l-.02.03h0s-.01.03-.01.03l-.02.03h0s0,.03,0,.03l-.02.03v.02s-.02,0-.02,0l-.02.03-.02.03-.02.03-.02.03h0s-.01.03-.01.03l-.02.03v.02s-.02.01-.02.01l-.02.03-.02.03h0s-.02.03-.02.03l-.02.03h0s-.01.03-.01.03l-.02.03v.02s-.02.02-.02.02l-.02.03v.02s-.02,0-.02,0l-.02.03-.02.03h0s-.02.03-.02.03l-.02.03h0s-.01.03-.01.03l-.02.03v.02s-.02.01-.02.01l-.02.03-.02.03-.02.03-.02.03h0s-.01.03-.01.03l-.02.03v.02s-.02.01-.02.01l-.02.03v.03s-.02,0-.02,0l-.02.03-.02.03h0s-.01.03-.01.03l-.02.03h0s0,.03,0,.03l-.02.03v.02s-.01,0-.01,0l-.02.03-.02.03c-.73,1.59-1.25,3.26-1.54,4.98-.34,1.93-.51,3.88-.5,5.84v78.28c-1.72,3.69-3.66,7.27-5.82,10.72l-19.34,31c29.68-66.26,3.34-122.85,24.76-134.99Z"/>
          <path class="cls-2" d="m94.91,56.92c.92-2.13,2.27-4.06,3.95-5.66,1.69-1.6,3.68-2.85,5.86-3.66,2.18-.81,4.5-1.18,6.82-1.07,2.32.11,4.6.68,6.7,1.69-21.42,12.13,4.92,68.73-24.76,134.99v-64.5c3.74-3.57,6.68-7.9,8.6-12.7,2.36-6.11,3.51-12.62,3.38-19.16,0-3.25-.27-6.49-.84-9.69-.53-2.99-1.37-5.92-2.51-8.74h0c-1.08-2.71-2.48-5.29-4.15-7.69-.93-1.34-1.96-2.61-3.06-3.81Z"/>
          <path class="cls-1" d="m52.17,128.56h-24.94v72.04c0,5.41-1.3,9.57-3.85,12.36-1.26,1.33-2.78,2.39-4.47,3.12-1.68.73-3.5,1.1-5.33,1.11-1.83,0-3.65-.36-5.34-1.08s-3.21-1.77-4.49-3.09c-2.5-2.78-3.76-6.89-3.76-12.24V63.19c0-5.98,1.38-10.27,4.13-12.83,2.75-2.56,7.1-3.85,13.11-3.85h34.92c10.33,0,18.28.79,23.85,2.38,5.28,1.41,10.16,4.01,14.27,7.61,4.01,3.57,7.13,8.03,9.11,13.02,2.16,5.52,3.23,11.41,3.13,17.34,0,13.71-4.21,24.09-12.64,31.14-8.45,7.04-21.02,10.57-37.71,10.58Zm-6.6-61.59h-18.34v41.12h18.34c5.44.12,10.87-.56,16.12-2.03,3.91-1.08,7.37-3.4,9.86-6.6,2.4-3.53,3.58-7.75,3.38-12.02.22-5.33-1.66-10.53-5.23-14.49-3.91-3.97-11.95-5.97-24.13-5.98Z"/>
          <path class="cls-1" d="m369.19,138.38c-.1,4.8-1.18,9.53-3.16,13.89-2.41,5.44-5.78,10.4-9.95,14.65-4.89,5.06-10.78,9.05-17.31,11.7-7.82,3.12-16.18,4.65-24.6,4.48-6.5.07-12.99-.61-19.34-2-2.44-.56-4.84-1.28-7.19-2.16.35-.26.7-.54,1.02-.83.95-.85,1.78-1.82,2.47-2.9.66-1.02,1.19-2.11,1.56-3.26.37-1.12.56-2.29.56-3.47-.07-1.51-.36-3-.85-4.42-.49-1.61-1.23-3.57-2.21-5.9h0c-.98-2.32-2.15-4.76-3.5-7.32-.66-1.24-1.37-2.53-2.13-3.87,2.36,3.78,5.52,6.99,9.27,9.41,5.67,3.5,12.24,5.28,18.9,5.13,7.06.23,14.02-1.81,19.84-5.82,5.41-3.88,9.49-9.59,12.24-17.12.95-3.11,2.4-6.04,4.32-8.67,1.69-2.22,4.44-3.35,8.23-3.35,1.55-.03,3.09.26,4.53.85s2.74,1.46,3.83,2.56c1.13,1.08,2.03,2.39,2.62,3.84s.89,3.01.85,4.57Zm-92.17-27.06c-.04,1.11-.05,2.25-.05,3.4,0,10.45,1.47,19.15,4.41,26.1.52,1.25,1.09,2.44,1.69,3.58-.31-.53-.63-1.06-.96-1.6h0c-1.73-2.84-3.57-5.59-5.54-8.26-1.96-2.66-4.05-5.27-6.27-7.81h0c-2.14-2.46-4.47-4.72-6.97-6.79h0c-.52-.42-1.05-.84-1.58-1.24,3.02-.92,5.96-2.08,8.79-3.47,2.27-1.11,4.44-2.42,6.49-3.91Zm7.29,66.25c-1.81-.82-3.58-1.74-5.28-2.77-4.94-3-9.36-6.78-13.08-11.2-3.61-4.32-6.66-9.07-9.08-14.15-2.54-5.34-4.43-10.96-5.63-16.74-1.28-6.22-1.91-12.55-1.88-18.9-.02-4.95.35-9.9,1.09-14.79l.14-.05h.02s.12-.05.12-.05l.06-.02.08-.03.1-.04.04-.02.13-.06h0s.13-.06.13-.06l.05-.02.09-.04.09-.04.04-.02.13-.06h0s.13-.06.13-.06l.04-.02.09-.04.08-.04.05-.02.12-.06h.01s.13-.07.13-.07h.03s.1-.06.1-.06l.13-.06.1-.05h.02s.12-.08.12-.08h.02s.1-.07.1-.07l.06-.03.07-.04.09-.05.03-.02.12-.07h0s.11-.07.11-.07l.05-.03.07-.04.08-.05.04-.02.23-.14.04-.02.08-.05.07-.04.04-.03.11-.07h0s.11-.08.11-.08l.03-.02.08-.06.11-.07.09-.07h.01s.11-.09.11-.09h.02s.09-.08.09-.08l.05-.04.05-.04.08-.06.02-.02.1-.08h.01s.09-.08.09-.08l.04-.03.06-.05.07-.06.03-.02.1-.08h0s.1-.08.1-.08l.03-.03.06-.05h0s.1-.08.1-.08l.1-.08h0s.1-.09.1-.09l.03-.02.07-.06.06-.05.04-.04.08-.08h0s.09-.1.09-.1l.09-.09.05-.05.04-.04.09-.09.09-.09h.01s.08-.09.08-.09l.04-.04.05-.05.07-.07.02-.02.09-.09h0s.08-.09.08-.09l.03-.04.05-.06.06-.06.03-.03.08-.1c2.3-2.66,3.46-6.34,3.46-10.99v-.15s0-.02,0-.02v-.13s0-.04,0-.04v-.11s0-.06,0-.06v-.09s0-.08,0-.08v-.07s0-.1,0-.1v-.05s0-.12,0-.12v-.03s0-.14,0-.14h0s0-.16,0-.16h0s0-.15,0-.15v-.03s-.01-.12-.01-.12v-.04s-.01-.1-.01-.1v-.06s-.01-.08-.01-.08v-.08s-.01-.06-.01-.06v-.1s-.01-.04-.01-.04v-.12s-.02-.03-.02-.03l-.02-.14h0s-.02-.15-.02-.15h0s-.02-.14-.02-.14v-.03s-.02-.11-.02-.11v-.05s-.02-.09-.02-.09v-.07s-.02-.07-.02-.07v-.09s-.02-.06-.02-.06l-.02-.1v-.04s-.03-.12-.03-.12v-.02s-.03-.14-.03-.14l-.03-.14v-.02s-.03-.12-.03-.12v-.04s-.03-.1-.03-.1v-.05s-.03-.08-.03-.08l-.02-.07-.02-.07-.02-.09v-.05s-.04-.1-.04-.1v-.03s-.04-.12-.04-.12h0s-.04-.15-.04-.15h0s-.04-.13-.04-.13v-.02s-.04-.11-.04-.11v-.04s-.04-.09-.04-.09l-.02-.06-.02-.08-.02-.07-.02-.06-.03-.09v-.04s-.05-.11-.05-.11v-.02s-.05-.12-.05-.12h0s-.05-.14-.05-.14h0s-.04-.13-.04-.13l-.05-.13-.02-.04-.03-.09-.02-.06-.03-.07-.03-.08-.02-.05h0s-.05-.13-.05-.13l-.05-.11v-.02s-.06-.12-.06-.12l-.06-.13h0s-.05-.12-.05-.12v-.03s-.06-.09-.06-.09l-.06-.12-.03-.06-.03-.06-.04-.08-.02-.04-.05-.09v-.03s-.07-.11-.07-.11h0s-.06-.13-.06-.13h0s-.06-.12-.06-.12l-.07-.12-.02-.03-.05-.09c2.44-4.28,5.4-8.23,8.81-11.78,2.76-2.86,5.8-5.43,9.06-7.69l.03.02.03.02.03.02.03.02h0s.02.02.02.02l.03.02.03.02.03.02.03.02.03.02h0s.05.05.05.05l.03.02.1.1.03.02.03.02.08.07h0s.02.02.02.02l.1.1.03.02h0s.02.02.02.02l.03.02.08.07.03.02h0s.12.12.12.12l.03.02h0s.02.02.02.02l.03.02.03.02.05.05.03.02h0s.02.03.02.03l.03.02.03.02.03.02.03.03.03.02h0s.02.03.02.03l.02.03.03.02.03.03.03.03.03.03.03.03.03.03.02.03.03.03.03.03.03.03c3.15,3.22,5.6,7.06,7.2,11.27l.05.14.02.06.03.08.04.12v.03s.06.14.06.14v.03s.05.11.05.11l.03.09.02.05.05.14h0s.05.14.05.14l.02.07.03.08.04.13v.02s.05.14.05.14v.04s.05.1.05.1l.03.1v.04s.06.14.06.14v.02s.05.13.05.13l.02.08.02.07.04.14h0s.04.15.04.15l.04.15.03.11v.03s.05.15.05.15v.03s.04.12.04.12l.02.09.02.06.04.15.04.15c.11.39.21.78.3,1.18l.03.13v.02s.1.45.1.45l.03.15c.17.78.31,1.57.42,2.36v.05s.03.15.03.15h0s.02.15.02.15v.08s.02.08.02.08l.02.14h0c.04.32.07.63.11.94-.29.35-.58.7-.86,1.06-5.56,7.14-8.79,16.78-9.69,28.93-.25.21-.5.42-.76.63l-.05.04-.22.18-.05.04-.23.18-.02.02c-.24.19-.49.37-.75.56l-.1.07-.19.13-.09.06c-.18.13-.36.25-.54.38h0s-.28.19-.28.19h0s-.28.19-.28.19h-.02s-.3.2-.3.2l-.21.14-.11.07-.2.13-.12.07-.2.12-.13.08-.21.13-.08.05-.26.15h-.01s-.3.18-.3.18l-.32.18-.23.13-.09.05-.07.04-.25.14h-.03s-.28.16-.28.16l-.05.03-.28.14-.09.04c-.2.1-.41.21-.61.31l-.34.17h0s-.33.17-.33.17l-.31.15-.05.03-.27.12-.11.05-.26.12-.12.05-.25.11h-.03s-.3.14-.3.14l-.06.03-.36.15h0s-.37.15-.37.15l-.33.13-.05.02-.29.12-.11.04-.23.09-.22.08-.19.07-.18.07c-.45.17-.91.34-1.37.5l-.05.02-.11.04-.29.1-.07.03-.24.08-.16.05-.27.09-.05.02-.3.1h-.03s-.4.14-.4.14h-.04s-.03.02-.03.02l-.41.13h-.03s-.38.12-.38.12l-.31.09-.17.05-.29.08-.13.04-.28.08-.19.05-.31.08h0s-.37.1-.37.1h-.05s-.43.13-.43.13h-.02s-.42.11-.42.11l-.09.02-.07.02c-.3.08-.6.15-.91.22l-.09.02-.35.08-.11.03-.14.03-.38.09-.07.02-.45.1c5.15,2.86,9.75,6.63,13.57,11.12,4.28,4.88,8.13,10.12,11.51,15.65,2.99,4.8,5.63,9.8,7.9,14.97,1.87,4.44,2.82,7.5,2.82,9.19-.04,1.84-.61,3.63-1.65,5.15l-.05.08h0s-.05.08-.05.08h0s-.05.08-.05.08h0s-.05.08-.05.08h0s-.05.08-.05.08h0s-.04.07-.04.07h-.01s-.04.07-.04.07v.02s-.05.06-.05.06v.02s-.05.05-.05.05l-.02.02-.04.05-.02.02-.04.05-.02.03-.04.05-.02.03-.03.04-.02.03-.03.04-.03.03-.03.04-.03.03-.03.04-.03.04-.03.03-.03.04-.03.03-.04.04-.03.03-.04.04-.02.03-.04.04-.02.02-.04.05-.02.02-.04.05-.02.02-.05.05-.07.07h-.01s-.05.07-.05.07h-.01s-.06.07-.06.07h0s-.06.07-.06.07h0s-.06.07-.06.07h0s-.06.06-.06.06h0s-.07.06-.07.06h0s-.07.06-.07.06l-.07.06h0s-.07.06-.07.06h0s-.06.06-.06.06h0s-.06.06-.06.06h0s-.06.06-.06.06h-.01s-.06.06-.06.06h-.02s-.06.06-.06.06h-.02s-.07.07-.07.07l-.05.04-.02.02-.05.04-.02.02-.05.04-.03.02-.05.04-.03.02-.04.03-.03.02-.04.03-.04.03-.04.03-.04.03-.04.03-.04.03-.04.03-.04.03-.03.02-.05.03-.03.02-.05.03-.03.02-.05.03-.03.02-.06.04-.02.02-.06.04h-.02s-.06.05-.06.05h-.02s-.06.05-.06.05h-.02s-.07.05-.07.05h-.01s-.07.05-.07.05h-.01s-.07.05-.07.05h0s-.08.05-.08.05h0s-.08.05-.08.05h0s-.08.05-.08.05l-.09.05Zm-5.09-124.11c2.87-1.76,5.89-3.29,9.01-4.55,8.02-3.19,16.59-4.81,25.22-4.76,10.07-.19,20.04,2.04,29.07,6.51,7.72,3.7,14.42,9.22,19.53,16.08,4.51,6.38,6.79,12.39,6.79,18.09,0,3.08-1.19,6.04-3.32,8.26-.99,1.14-2.22,2.04-3.6,2.66-1.38.62-2.87.93-4.38.91-3.47,0-6.1-.84-7.82-2.47-2.36-2.53-4.33-5.42-5.82-8.54-2.92-5.91-7.22-11.04-12.52-14.96-5.27-3.43-11.46-5.15-17.74-4.94-9.37,0-17.12,2.97-23.28,8.91-.03-.2-.07-.41-.11-.61-.44-2.44-1.11-4.83-2-7.15h0c-.87-2.28-1.97-4.47-3.29-6.53-1.32-2.06-2.84-3.99-4.55-5.75l-.02-.02c-.39-.39-.78-.77-1.18-1.14Z"/>
          <path class="cls-2" d="m23.69,67.21c-5.85,5.86-9.14,13.8-9.13,22.08,0,8.28,3.29,16.22,9.15,22.08,5.86,5.86,13.8,9.15,22.08,9.15s16.22-3.28,22.08-9.14c.19-.19.38-.39.57-.59-.27.13-7.42,3.76-13.21,3.51-.47,0-.95-.05-1.41-.15-.7-.16-1.37-.43-1.97-.82-.11-.07-.22-.14-.32-.22-.58-.4-1.08-.85-1.59-1.29-.85-.81-1.89-1.38-3.02-1.66-1.07-.16-2.17-.05-3.19.33-.06.02-.13.04-.19.06-.11.04-.23.08-.35.11-.82.23-1.68.25-2.51.04-.83-.21-1.58-.62-2.2-1.21-.61-.59-1.06-1.33-1.3-2.15-.24-.82-.26-1.68-.06-2.51h0c.06-.2.12-.39.18-.59.01-.03.02-.06.03-.09,1.3-3.57,3.24-6.88,5.7-9.77.76-1.04,1.77-1.88,2.93-2.45.35-.18.75-.24,1.14-.18s.75.25,1.03.53c.01.02.03.03.04.05,1.22,1.9,2.06,4.02,2.48,6.24.02.08.03.16.05.24,1.88-2.04,2.94-4.7,2.98-7.47v-.06c.1-.08.19-.17.29-.26.2-.17.39-.36.58-.54,6.25-6.24,6.32-16.29,6.32-16.31,0,0-.42,0-1.13.06-.1.01-.21.02-.33.03-.19.02-.4.04-.62.06-.14.02-.28.04-.43.06-.16.02-.33.04-.5.06-.16.03-.32.05-.5.08-.09,0-.18.02-.26.05l-.34.06c-.22.04-.46.09-.7.14-.11.02-.21.04-.32.06-.43.09-.87.2-1.32.32-3.69.89-7.09,2.74-9.86,5.34-.16.16-.31.31-.46.48-.12.13-.23.26-.35.39h-.01s-.04,0-.06,0c-.3,0-.61.02-.92.05-.17.01-.34.03-.5.06-.14.02-.27.04-.4.06-.13.03-.25.05-.38.08-.24.05-.47.11-.71.18-1.69.49-3.25,1.37-4.55,2.57.08.01.15.03.22.04.52.1,1.03.22,1.54.36.2.05.4.11.59.18h.01c.19.06.39.13.58.2.14.05.29.11.43.16.43.16.85.35,1.27.56.63.3,1.24.64,1.83,1.02,0,0,.02.01.03.02.32.27.54.64.62,1.04.08.41.03.83-.16,1.2-.56,1.17-1.4,2.18-2.45,2.95-2.95,2.52-6.34,4.48-10,5.77-.07.03-.15.05-.22.07-.82.24-1.69.27-2.52.07s-1.59-.61-2.21-1.2c-.62-.59-1.07-1.33-1.32-2.15-.24-.82-.26-1.69-.06-2.52h0c.08-.25.16-.49.23-.73h0s0-.03.01-.05c.37-1,.48-2.08.31-3.13-.28-1.14-.85-2.18-1.66-3.03-.54-.6-1.04-1.24-1.5-1.91-.79-1.23-1.12-2.71-.93-4.16h-.05s-.59-7.38,3.26-12.34c-.14.13-.28.27-.42.4Zm28.22,15.95c-.31-.31-.51-.7-.59-1.13-.08-.43-.03-.87.14-1.27h0c.1-.25.26-.47.45-.66.3-.3.69-.51,1.12-.59.07-.01.14-.02.21-.03.14-.02.27-.02.41,0,.07,0,.14.01.21.03.33.06.64.21.91.41s.48.47.63.78.22.64.21.98c0,.34-.09.67-.25.97-.16.3-.38.55-.66.75-.28.19-.59.32-.93.37-.33.05-.67.02-.99-.08-.32-.11-.61-.28-.85-.52Z"/>
          <path class="cls-2" d="m43.44,81.63c-.28.28-.55.57-.8.87-.33,0-.66.02-.98.05-.17.01-.34.03-.5.06-.14.02-.27.04-.4.06-.13.03-.25.05-.38.08-.24.05-.47.11-.71.18-1.14.33-2.23.83-3.22,1.5.52.1,1.03.22,1.54.36.2.05.4.11.59.18h.01c.19.06.39.13.58.2.14.05.29.11.43.16.43.16.85.35,1.27.56.63.3,1.24.64,1.83,1.02,0,0,.02.01.03.02.32.27.54.64.62,1.04.08.41.03.83-.16,1.2.49.4.97.83,1.43,1.29.48.48.93.98,1.34,1.51.35-.18.75-.24,1.14-.18s.75.25,1.03.53c.01.02.03.03.04.05,1.22,1.9,2.06,4.02,2.48,6.24,1.23-1.82,1.9-3.97,1.91-6.17.3-.25.59-.53.86-.8.08-.08.16-.17.25-.25.1-.1-10.16-9.82-10.24-9.74Z"/>
          <path class="cls-2" d="m55.85,81.9c0,.46-.13.91-.38,1.3s-.6.7-1.02.89c-.42.19-.88.27-1.34.2-.46-.06-.88-.25-1.24-.55-.35-.3-.61-.69-.75-1.13s-.15-.91-.03-1.35c.12-.44.36-.84.71-1.15s.76-.52,1.21-.59c-.52.1-.99.4-1.31.82s-.47.96-.42,1.49c.05.53.3,1.02.69,1.38.4.36.91.56,1.44.56s1.05-.2,1.44-.56.64-.85.69-1.38c.05-.53-.1-1.06-.42-1.49-.32-.43-.79-.72-1.31-.82.56.1,1.07.39,1.43.82.37.44.57.99.57,1.55Z"/>
          <path class="cls-2" d="m60.87,74.2s-.44,0-1.13.06c-.1.01-.21.02-.33.03-.19.02-.4.04-.62.06-.14.02-.28.04-.43.06-.16.02-.33.04-.5.06-.16.03-.32.05-.5.08-.09,0-.18.02-.26.05l-.34.06c-.22.04-.46.09-.7.14-.11.02-.21.04-.32.06-.43.09-.87.2-1.32.32-3.7.89-7.11,2.73-9.88,5.34-.28.28-.55.57-.8.87-.33,0-.66.02-.98.05-.17.01-.34.03-.5.06-.14.02-.27.04-.4.06-.13.03-.25.05-.38.08-.24.05-.47.11-.71.18-1.7.49-3.27,1.36-4.57,2.56h.02c.59.11,1.18.24,1.76.41.2.06.39.11.59.18h.01c.19.06.39.13.58.2.14.05.29.11.43.16.42.18.84.35,1.25.55.64.31,1.25.65,1.85,1.02,0,0,.02.01.03.02,1.08.7,2.09,1.51,3.01,2.42.91.9,1.71,1.9,2.4,2.98,1.28,1.99,2.15,4.21,2.56,6.54v-.02c1.91-2.05,2.97-4.73,2.99-7.53.3-.25.59-.53.86-.8,6.25-6.25,6.32-16.31,6.32-16.31Zm-8.96,8.96c-.28-.28-.47-.62-.57-1-.09-.38-.08-.78.03-1.15.11-.37.33-.71.62-.97.29-.26.65-.44,1.03-.51.07-.01.14-.02.21-.03.14-.02.27-.02.41,0,.07,0,.14.01.21.03.33.06.64.21.91.41s.48.47.63.78c.15.3.22.64.21.98,0,.34-.09.67-.25.97-.16.3-.38.55-.66.75s-.59.32-.93.37c-.33.05-.67.02-.99-.08-.32-.11-.61-.28-.85-.52Z"/>
          <path class="cls-1" d="m40.78,209.41h1.88v-6.03h4.42c3.45.02,5.57-1.99,5.57-5.04,0-3.2-2.16-5.04-5.54-5.04h-6.32v16.1Zm6.03-7.57h-4.15v-6.87h4.15c2.36,0,3.89,1.15,3.89,3.42s-1.5,3.47-3.89,3.45Zm11.88,7.77c.87.05,1.74-.17,2.48-.65.74-.47,1.31-1.17,1.63-1.98h.11v2.43h1.79v-11.59h-1.72l-.07,2.41h-.11c-.32-.81-.89-1.5-1.63-1.97s-1.61-.69-2.48-.63c-2.85,0-4.77,2.16-4.77,5.98,0,3.82,1.92,6.01,4.77,6.01Zm.6-1.5c-2.12,0-3.53-1.59-3.53-4.51s1.41-4.51,3.53-4.51c.49,0,.98.1,1.43.29s.86.48,1.2.83c.34.36.6.78.77,1.24.17.46.24.95.21,1.44v1.41c.03.49-.04.98-.21,1.44-.17.46-.43.88-.77,1.24-.34.36-.74.64-1.2.83-.45.19-.94.29-1.43.29Zm8.77,1.3h1.77v-6.91c0-.44.1-.87.28-1.27s.44-.76.77-1.05.71-.52,1.13-.66c.42-.14.86-.19,1.3-.15.24,0,.47.02.71.04v-1.7c-.23-.03-.47-.04-.71-.04-.74-.04-1.48.17-2.1.58s-1.09,1.01-1.34,1.72h-.09l-.11-2.14h-1.59v11.59Zm12.12.2c.87.03,1.72-.21,2.44-.69.72-.48,1.27-1.17,1.58-1.98h.11l.09,2.47h1.7v-11.59h-1.79v6.18c0,2.43-1.44,4.09-3.51,4.09s-3.03-1.3-3.03-3.6v-6.67h-1.79v7.11c0,3.11,1.59,4.68,4.2,4.68Zm9.17-.2h1.79v-16.1h-1.79v16.1Zm10.58,0h1.88v-16.1h-1.88v16.1Zm5.63,0h1.77v-6.27c-.05-.5,0-1.01.17-1.49.16-.48.42-.92.75-1.3.34-.38.75-.68,1.21-.89.46-.21.96-.32,1.47-.32,2.01,0,2.96,1.19,2.96,3.8v6.47h1.79v-6.82c0-3.58-1.77-4.95-4.17-4.95-.86-.03-1.7.2-2.42.66s-1.29,1.13-1.62,1.92h-.13l-.07-2.41h-1.7v11.59Zm13.36,0h1.77v-6.27c-.05-.5,0-1.01.17-1.49.16-.48.42-.92.75-1.3.34-.38.75-.68,1.21-.89.46-.21.96-.32,1.47-.32,2.01,0,2.96,1.19,2.96,3.8v6.47h1.79v-6.82c0-3.58-1.77-4.95-4.17-4.95-.86-.03-1.7.2-2.42.66-.72.46-1.29,1.13-1.62,1.92h-.13l-.07-2.41h-1.7v11.59Zm18.15.2c3.4,0,5.57-2.45,5.57-5.98s-2.23-5.98-5.57-5.98-5.61,2.45-5.61,6.01c0,3.6,2.25,5.96,5.61,5.96Zm0-1.55c-2.32,0-3.78-1.68-3.78-4.42s1.52-4.51,3.78-4.51,3.75,1.7,3.75,4.48c0,2.8-1.5,4.44-3.75,4.44Zm10.4,1.35h2.16l4.22-11.59h-1.92l-2.61,7.62-.73,2.39h-.07l-.77-2.39-2.61-7.62h-1.94l4.26,11.59Zm11.75.2c.87.05,1.74-.17,2.48-.65.74-.47,1.31-1.17,1.63-1.98h.11v2.43h1.79v-11.59h-1.72l-.07,2.41h-.11c-.32-.81-.89-1.5-1.63-1.97s-1.61-.69-2.48-.63c-2.85,0-4.77,2.16-4.77,5.98,0,3.82,1.92,6.01,4.77,6.01Zm.6-1.5c-2.12,0-3.53-1.59-3.53-4.51s1.41-4.51,3.53-4.51c.49,0,.98.1,1.43.29.45.19.86.48,1.2.83.34.36.6.78.77,1.24s.24.95.21,1.44v1.41c.03.49-.04.98-.21,1.44-.17.46-.43.88-.77,1.24-.34.36-.74.64-1.2.83-.45.19-.94.29-1.43.29Zm11.84,1.3h2.21v-1.5h-1.66c-.8,0-1.04-.2-1.04-1.02v-7.6h2.69v-1.48h-2.69v-3.71l-1.79.24v3.47h-2.25v1.48h2.25v7.91c0,1.46.57,2.21,2.27,2.21Zm4.57-13.52h1.79v-2.58h-1.79v2.58Zm0,13.52h1.79v-11.59h-1.79v11.59Zm9.94.2c3.4,0,5.57-2.45,5.57-5.98s-2.23-5.98-5.57-5.98-5.61,2.45-5.61,6.01c0,3.6,2.25,5.96,5.61,5.96Zm0-1.55c-2.32,0-3.78-1.68-3.78-4.42s1.52-4.51,3.78-4.51,3.75,1.7,3.75,4.48c0,2.8-1.5,4.44-3.75,4.44Zm8.11,1.35h1.77v-6.27c-.05-.5,0-1.01.17-1.49.16-.48.42-.92.75-1.3.34-.38.75-.68,1.21-.89.46-.21.96-.32,1.47-.32,2.01,0,2.96,1.19,2.96,3.8v6.47h1.79v-6.82c0-3.58-1.77-4.95-4.17-4.95-.86-.03-1.7.2-2.42.66s-1.29,1.13-1.62,1.92h-.13l-.07-2.41h-1.7v11.59Zm39.6,0h11.09v-1.68h-9.21v-5.79h8.1v-1.55h-8.1v-5.43h9.19v-1.66h-11.06v16.1Zm13.89,0h1.77v-6.27c-.05-.5,0-1.01.17-1.49.16-.48.42-.92.75-1.3.34-.38.75-.68,1.21-.89.46-.21.96-.32,1.47-.32,2.01,0,2.96,1.19,2.96,3.8v6.47h1.79v-6.82c0-3.58-1.77-4.95-4.17-4.95-.86-.03-1.7.2-2.42.66-.72.46-1.29,1.13-1.62,1.92h-.13l-.07-2.41h-1.7v11.59Zm16.14,0h2.21v-1.5h-1.66c-.8,0-1.04-.2-1.04-1.02v-7.6h2.69v-1.48h-2.69v-3.71l-1.79.24v3.47h-2.25v1.48h2.25v7.91c0,1.46.57,2.21,2.28,2.21Zm4.57,0h1.77v-6.91c0-.44.1-.87.28-1.27s.44-.76.77-1.05.71-.52,1.13-.66.86-.19,1.3-.15c.24,0,.47.02.71.04v-1.7c-.23-.03-.47-.04-.71-.04-.74-.04-1.48.17-2.1.58-.62.41-1.09,1.01-1.34,1.72h-.09l-.11-2.14h-1.59v11.59Zm12.32.2c2.65,0,4.73-1.48,5.06-3.71h-1.72c-.2.7-.65,1.31-1.26,1.72s-1.34.59-2.07.51c-2.23,0-3.69-1.52-3.75-4.2h8.86c.35-3.56-1.46-6.29-5.19-6.29-3.36,0-5.43,2.39-5.43,6.01s2.12,5.96,5.52,5.96Zm-.11-10.51c.46-.04.93.01,1.37.17s.84.41,1.17.74c.33.33.59.73.75,1.16.16.44.22.91.18,1.37h-7.07c0-.46.1-.92.29-1.35.18-.43.45-.81.79-1.13.34-.32.73-.57,1.16-.74s.89-.24,1.36-.23Zm7.82,14h1.79v-6.1h.13c.32.81.89,1.5,1.62,1.97s1.6.69,2.47.64c2.85,0,4.77-2.16,4.77-5.98s-1.92-6.01-4.77-6.01c-.87-.05-1.73.18-2.46.64-.73.47-1.3,1.15-1.62,1.96h-.13l-.07-2.41h-1.7l-.02,15.28Zm5.41-4.99c-.49,0-.98-.09-1.43-.28-.45-.19-.86-.47-1.2-.83-.34-.36-.6-.78-.77-1.24-.17-.46-.24-.95-.21-1.44v-1.39c-.03-.49.04-.98.21-1.44s.43-.88.77-1.24c.34-.36.75-.64,1.2-.83.45-.19.94-.29,1.43-.28,2.12,0,3.56,1.57,3.56,4.51,0,2.92-1.44,4.48-3.56,4.48Zm7.93,1.3h1.77v-6.91c0-.44.1-.87.28-1.27.18-.4.44-.76.77-1.05.33-.29.71-.52,1.13-.66s.86-.19,1.3-.15c.24,0,.47.02.71.04v-1.7c-.23-.03-.47-.04-.71-.04-.74-.04-1.48.17-2.1.58s-1.09,1.02-1.34,1.72h-.09l-.11-2.14h-1.59v11.59Zm12.32.2c2.65,0,4.73-1.48,5.06-3.71h-1.72c-.2.7-.65,1.31-1.26,1.72-.61.41-1.34.59-2.07.51-2.23,0-3.69-1.52-3.75-4.2h8.86c.35-3.56-1.46-6.29-5.19-6.29-3.36,0-5.43,2.38-5.43,6.01s2.12,5.96,5.52,5.96Zm-.11-10.51c.46-.04.93.01,1.37.17s.84.41,1.17.74c.33.33.59.73.75,1.16s.22.91.18,1.37h-7.07c0-.46.1-.92.29-1.35s.45-.81.79-1.13c.34-.32.73-.57,1.16-.74.43-.17.89-.24,1.36-.23Zm7.82,10.31h1.77v-6.27c-.05-.5,0-1.01.17-1.49s.42-.92.75-1.3.75-.68,1.21-.89c.46-.21.96-.32,1.47-.32,2.01,0,2.96,1.19,2.96,3.8v6.47h1.79v-6.82c0-3.58-1.77-4.95-4.17-4.95-.86-.03-1.7.2-2.42.66s-1.29,1.13-1.62,1.92h-.13l-.07-2.41h-1.7v11.59Zm18.06.2c2.65,0,4.73-1.48,5.06-3.71h-1.72c-.2.7-.65,1.31-1.26,1.72s-1.34.59-2.07.51c-2.23,0-3.69-1.52-3.75-4.2h8.86c.35-3.56-1.46-6.29-5.19-6.29-3.36,0-5.43,2.38-5.43,6.01s2.12,5.96,5.52,5.96Zm-.11-10.51c.46-.04.93.01,1.37.17s.84.41,1.17.74c.33.33.59.73.75,1.16.16.44.22.91.18,1.37h-7.07c0-.46.1-.92.29-1.35.19-.43.45-.81.79-1.13.34-.32.73-.57,1.16-.74.43-.17.89-.24,1.36-.23Zm11.9,10.51c.87.03,1.72-.21,2.44-.69.72-.48,1.27-1.17,1.58-1.98h.11l.09,2.47h1.7v-11.59h-1.79v6.18c0,2.43-1.44,4.09-3.51,4.09s-3.03-1.3-3.03-3.6v-6.67h-1.79v7.11c0,3.11,1.59,4.68,4.2,4.68Zm9.17-.2h1.77v-6.91c0-.44.1-.87.28-1.27.18-.4.44-.76.77-1.05.33-.29.71-.52,1.13-.66s.86-.19,1.3-.15c.24,0,.47.02.71.04v-1.7c-.23-.03-.47-.04-.71-.04-.74-.04-1.48.17-2.1.58-.62.41-1.09,1.02-1.34,1.72h-.09l-.11-2.14h-1.59v11.59Zm11.95.22c2.89,0,4.73-1.15,4.73-3.42,0-2.54-1.92-3.09-4.35-3.42-2.1-.29-3.07-.71-3.07-1.99,0-1.13.95-1.88,2.67-1.88s2.72.68,2.76,2.3h1.74c-.02-2.25-1.68-3.62-4.48-3.62s-4.48,1.28-4.48,3.38c0,2.27,1.7,2.89,4.37,3.29,2.12.31,3,.68,3,2.1,0,1.24-.99,1.94-2.85,1.94s-3.07-.77-3.07-2.52h-1.79c0,2.3,1.72,3.84,4.81,3.84Zm7.49-.22h1.77v-6.27c-.05-.5,0-1.01.17-1.49.16-.48.42-.92.75-1.3.34-.38.75-.68,1.21-.89.46-.21.96-.32,1.47-.32,2.01,0,2.96,1.19,2.96,3.8v6.47h1.79v-6.82c0-3.58-1.77-4.95-4.17-4.95-.86-.03-1.7.2-2.42.66s-1.29,1.13-1.62,1.92h-.13v-6.91h-1.77v16.1Zm13.36-13.52h1.79v-2.58h-1.79v2.58Zm0,13.52h1.79v-11.59h-1.79v11.59Zm5.15,3.69h1.79v-6.1h.13c.32.81.89,1.5,1.62,1.97.73.47,1.6.69,2.47.64,2.85,0,4.77-2.16,4.77-5.98s-1.92-6.01-4.77-6.01c-.87-.05-1.73.18-2.46.64s-1.3,1.15-1.62,1.96h-.13l-.07-2.41h-1.7l-.02,15.28Zm5.41-4.99c-.49,0-.98-.09-1.43-.28-.45-.19-.86-.47-1.2-.83-.34-.36-.6-.78-.77-1.24-.17-.46-.24-.95-.21-1.44v-1.39c-.03-.49.04-.98.21-1.44.17-.46.43-.88.77-1.24.34-.36.75-.64,1.2-.83s.94-.29,1.43-.28c2.12,0,3.56,1.57,3.56,4.51s-1.44,4.48-3.56,4.48Zm-187.26,1.52c.97.04,1.94-.14,2.82-.55.88-.4,1.66-1.01,2.26-1.77l1.88,2.1h2.16l-2.94-3.27c.62-1.2,1-2.5,1.13-3.84h2.23v-1.33h-3.56c-.02,1.4-.3,2.77-.84,4.06l-3.82-4.26v-.11c.95-.22,1.8-.73,2.44-1.47.63-.74,1.01-1.66,1.08-2.64,0-.48-.1-.95-.29-1.39-.19-.44-.47-.83-.83-1.16-.35-.33-.77-.57-1.22-.73-.45-.16-.93-.22-1.41-.18-.51-.05-1.02,0-1.51.16-.48.16-.93.42-1.31.76-.38.34-.68.76-.89,1.22-.21.47-.31.97-.31,1.48.1,1.46.78,2.83,1.88,3.8-1.03.33-1.94.97-2.6,1.83s-1.05,1.9-1.11,2.98c0,2.85,2.16,4.31,4.77,4.31Zm.38-9.83c-.9-.76-1.47-1.83-1.59-3-.02-.3.03-.6.14-.88.11-.28.28-.54.49-.75.22-.21.47-.37.76-.48.28-.1.59-.15.89-.12.29-.02.58.03.85.13.27.1.52.26.72.46.21.2.37.44.47.71.11.27.16.56.14.84,0,1.44-1.1,2.47-2.76,3.09h-.11Zm-3.38,5.34c.05-.83.35-1.62.86-2.27s1.21-1.13,2.01-1.37l4.2,4.68c-.4.63-.96,1.14-1.63,1.48-.66.34-1.4.5-2.15.46-.42.05-.84.01-1.24-.12s-.77-.34-1.08-.62c-.31-.28-.56-.63-.73-1.02-.17-.39-.25-.8-.24-1.23Zm-173.21,31.38h1.88v-6.82h5.28c2.45,0,3.07.91,3.07,2.67v2.39c-.04.6.04,1.2.24,1.77h1.9c-.19-.54-.28-1.12-.24-1.7v-2.78c.06-.38.04-.76-.06-1.13-.1-.37-.27-.72-.5-1.02-.24-.3-.53-.55-.87-.73-.34-.18-.71-.29-1.09-.32v-.15c.86-.21,1.63-.71,2.15-1.43.53-.72.78-1.6.72-2.48,0-2.78-1.79-4.35-5.19-4.35h-7.29v16.1Zm1.88-8.37v-6.12h5.17c2.1,0,3.49.88,3.49,2.98,0,1.83-.99,3.14-3.49,3.14h-5.17Zm17.98,8.57c2.65,0,4.73-1.48,5.06-3.71h-1.72c-.2.7-.65,1.31-1.26,1.72s-1.34.59-2.07.51c-2.23,0-3.69-1.52-3.75-4.2h8.86c.35-3.56-1.46-6.29-5.19-6.29-3.36,0-5.43,2.38-5.43,6.01s2.12,5.96,5.52,5.96Zm-.11-10.51c.46-.04.93.01,1.37.17.44.16.84.41,1.17.74.33.33.59.73.75,1.16.16.44.22.91.18,1.37h-7.07c0-.46.1-.92.29-1.35.19-.43.45-.81.79-1.13.34-.32.73-.57,1.16-.74s.89-.24,1.36-.23Zm11.99,10.53c2.89,0,4.73-1.15,4.73-3.42,0-2.54-1.92-3.09-4.35-3.42-2.1-.29-3.07-.71-3.07-1.99,0-1.13.95-1.88,2.67-1.88s2.72.68,2.76,2.3h1.74c-.02-2.25-1.68-3.62-4.48-3.62s-4.48,1.28-4.48,3.38c0,2.27,1.7,2.89,4.37,3.29,2.12.31,3,.68,3,2.1,0,1.24-.99,1.94-2.85,1.94s-3.07-.77-3.07-2.52h-1.79c0,2.3,1.72,3.84,4.81,3.84Zm12.32-.02c2.65,0,4.73-1.48,5.06-3.71h-1.72c-.2.7-.65,1.31-1.26,1.72-.61.41-1.34.59-2.07.51-2.23,0-3.69-1.52-3.75-4.2h8.86c.35-3.56-1.46-6.29-5.19-6.29-3.36,0-5.43,2.38-5.43,6.01s2.12,5.96,5.52,5.96Zm-.11-10.51c.46-.04.93.01,1.37.17.44.16.84.41,1.17.74.33.33.59.73.75,1.16.16.44.22.91.18,1.37h-7.07c0-.46.1-.92.29-1.35s.45-.81.79-1.13c.34-.32.73-.57,1.16-.74s.89-.24,1.36-.23Zm11.99,10.51c.87.05,1.74-.17,2.48-.65.74-.47,1.31-1.17,1.63-1.98h.11v2.43h1.79v-11.59h-1.72l-.07,2.41h-.11c-.32-.81-.89-1.5-1.63-1.97-.74-.47-1.61-.69-2.48-.63-2.85,0-4.77,2.16-4.77,5.98,0,3.82,1.92,6.01,4.77,6.01Zm.6-1.5c-2.12,0-3.53-1.59-3.53-4.51s1.41-4.51,3.53-4.51c.49,0,.98.1,1.43.29.45.19.86.48,1.2.83.34.36.6.78.77,1.24.17.46.24.95.21,1.44v1.41c.03.49-.04.98-.21,1.44-.17.46-.43.88-.77,1.24-.34.36-.74.64-1.2.83-.45.19-.94.29-1.43.29Zm8.77,1.3h1.77v-6.91c0-.44.1-.87.28-1.27.18-.4.44-.76.77-1.05.33-.29.71-.52,1.13-.66.42-.14.86-.19,1.3-.15.24,0,.47.02.71.04v-1.7c-.23-.03-.47-.04-.71-.04-.74-.04-1.48.17-2.1.58s-1.09,1.02-1.34,1.72h-.09l-.11-2.14h-1.59v11.59Zm12.37.2c1.24.1,2.47-.29,3.42-1.08s1.55-1.94,1.66-3.18h-1.74c-.09.8-.49,1.53-1.12,2.04-.62.51-1.42.76-2.22.7-2.27,0-3.75-1.63-3.75-4.44s1.39-4.48,3.78-4.48c.76-.06,1.52.17,2.13.64.6.47,1.01,1.15,1.14,1.9h1.72c-.13-1.19-.72-2.28-1.64-3.05-.93-.76-2.11-1.13-3.31-1.02-3.42,0-5.63,2.41-5.63,5.98s2.21,5.98,5.56,5.98Zm7.55-.2h1.77v-6.27c-.05-.5,0-1.01.17-1.49s.42-.92.75-1.3c.34-.38.75-.68,1.21-.89.46-.21.96-.32,1.47-.32,2.01,0,2.96,1.19,2.96,3.8v6.47h1.79v-6.82c0-3.58-1.77-4.95-4.17-4.95-.86-.03-1.7.2-2.42.66-.72.46-1.29,1.13-1.62,1.92h-.13v-6.91h-1.77v16.1Zm25.46.2c3.93,0,6.78-2.19,7.22-5.57l-1.92-.02c-.4,2.39-2.43,3.93-5.3,3.93-3.62,0-5.85-2.5-5.85-6.58s2.23-6.58,5.85-6.58c1.2-.11,2.39.22,3.37.93.97.71,1.66,1.74,1.93,2.91h1.92c-.51-3.36-3.34-5.5-7.22-5.5-4.68,0-7.8,3.2-7.8,8.24s3.09,8.24,7.8,8.24Zm14.73,0c2.65,0,4.73-1.48,5.06-3.71h-1.72c-.2.7-.65,1.31-1.26,1.72-.61.41-1.34.59-2.07.51-2.23,0-3.69-1.52-3.75-4.2h8.86c.35-3.56-1.46-6.29-5.19-6.29-3.36,0-5.43,2.38-5.43,6.01s2.12,5.96,5.52,5.96Zm-.11-10.51c.46-.04.93.01,1.37.17s.84.41,1.17.74c.33.33.59.73.75,1.16s.22.91.18,1.37h-7.07c0-.46.1-.92.29-1.35s.45-.81.79-1.13c.34-.32.73-.57,1.16-.74s.89-.24,1.36-.23Zm7.82,10.31h1.77v-6.27c-.05-.5,0-1.01.17-1.49.16-.48.42-.92.75-1.3.34-.38.75-.68,1.21-.89s.96-.32,1.47-.32c2.01,0,2.96,1.19,2.96,3.8v6.47h1.79v-6.82c0-3.58-1.77-4.95-4.17-4.95-.86-.03-1.7.2-2.42.66-.72.46-1.29,1.13-1.62,1.92h-.13l-.07-2.41h-1.7v11.59Zm16.14,0h2.21v-1.5h-1.66c-.8,0-1.04-.2-1.04-1.02v-7.6h2.69v-1.48h-2.69v-3.71l-1.79.24v3.47h-2.25v1.48h2.25v7.91c0,1.46.57,2.21,2.28,2.21Zm4.57,0h1.77v-6.91c0-.44.1-.87.28-1.27s.44-.76.77-1.05c.33-.29.71-.52,1.13-.66.42-.14.86-.19,1.3-.15.24,0,.47.02.71.04v-1.7c-.23-.03-.47-.04-.71-.04-.74-.04-1.48.17-2.1.58s-1.09,1.02-1.34,1.72h-.09l-.11-2.14h-1.59v11.59Zm12.32.2c2.65,0,4.73-1.48,5.06-3.71h-1.72c-.2.7-.65,1.31-1.26,1.72-.61.41-1.34.59-2.07.51-2.23,0-3.69-1.52-3.75-4.2h8.86c.35-3.56-1.46-6.29-5.19-6.29-3.36,0-5.43,2.38-5.43,6.01s2.12,5.96,5.52,5.96Zm-.11-10.51c.46-.04.93.01,1.37.17s.84.41,1.17.74c.33.33.59.73.75,1.16s.22.91.18,1.37h-7.07c0-.46.1-.92.29-1.35s.45-.81.79-1.13c.34-.32.73-.57,1.16-.74s.89-.24,1.36-.23Z"/>
          <path class="cls-1" d="m216.85,120.71h-.63c.15-.13.3-.26.45-.4h.01c1.28-1.23,2.29-2.7,2.95-4.34.66-1.67.99-3.45.97-5.25.02-1.81-.32-3.6-1-5.27-.6-1.45-1.49-2.76-2.61-3.85h14.37c5.44.1,10.87-.45,16.17-1.65,3.84-.81,7.32-2.79,9.98-5.67,2.3-2.66,3.46-6.34,3.46-10.99.07-3.43-.9-6.81-2.79-9.68-1.88-2.82-4.57-5-7.72-6.25-3.09-1.32-9.22-1.97-18.37-1.96h-8.98c.73-.91,1.33-1.93,1.78-3.01.69-1.72,1.04-3.57,1.02-5.43.02-1.83-.33-3.65-1.02-5.35-.7-1.67-1.76-3.16-3.09-4.38v-.02c-.82-.73-1.72-1.35-2.7-1.84h21.41c5.13-.05,10.25.21,15.34.77,3.96.43,7.84,1.47,11.48,3.09,4.11,1.73,7.84,4.26,10.96,7.44,3.15,3.22,5.6,7.06,7.2,11.27,1.67,4.35,2.51,8.97,2.48,13.63,0,9.8-2.77,17.64-8.3,23.52-5.54,5.85-13.93,10-25.17,12.46,5.15,2.86,9.75,6.63,13.57,11.12,4.28,4.88,8.13,10.12,11.51,15.65,2.99,4.8,5.63,9.8,7.9,14.97,1.87,4.44,2.82,7.5,2.82,9.19-.04,1.84-.61,3.63-1.65,5.15-1.12,1.73-2.68,3.13-4.53,4.04-2.07,1.02-4.34,1.52-6.64,1.47-2.67.09-5.3-.65-7.53-2.11-2.06-1.44-3.83-3.25-5.24-5.33-1.47-2.14-3.46-5.33-5.97-9.49l-10.69-17.76c-2.96-5.25-6.4-10.22-10.26-14.85-2.49-3.02-5.64-5.42-9.22-7.01-3.76-1.36-7.74-1.99-11.73-1.87Zm-7.6,0h-1.74v.24h-.03s-.03,0-.03,0h-.03s-.03,0-.03,0h0s-.03,0-.03,0h-.03s-.03,0-.03,0h-.03s-.03,0-.03,0h-.02s-.02,0-.02,0h-.1s-.03.01-.03.01h-.03s-.03,0-.03,0h-.07s-.03,0-.03,0h-.03s-.01,0-.01,0h-.02s-.03,0-.03,0h-.03s-.03,0-.03,0h-.03s-.03,0-.03,0h0s-.03,0-.03,0h-.03s-.03,0-.03,0h-.03s-.03,0-.03,0h-.01s-.02,0-.02,0h-.03s-.03,0-.03,0h-.03s-.03,0-.03,0h-.03s0,0,0,0h-.03s-.04,0-.04,0h-.03s-.03,0-.03,0h-.04s0,0,0,0h-.03s-.04,0-.04,0h-.04s-.04,0-.04,0h-.04s-.02,0-.02,0h-.05s-.04,0-.04,0h-.04s-.04,0-.04,0h-.04s0,0,0,0h-.03s-.04,0-.04,0h-.04s-.04,0-.04,0h-.04s-.02,0-.02,0h-.02s-.07,0-.07,0h-.04s-24.5,0-24.5,0v-20.47h24.54s.07,0,.07,0h.01s.02,0,.02,0h.04s.04,0,.04,0h.04s.04,0,.04,0h.03s0,0,0,0h.04s.04,0,.04,0h.04s.04,0,.04,0h.04s0,0,0,0h.03s.04,0,.04,0h.04s.04,0,.04,0h.04s.02,0,.02,0h.02s.04,0,.04,0h.03s.04,0,.04,0h.03s.03,0,.03,0h0s.03,0,.03,0h.03s.04,0,.04,0h.03s.03,0,.03,0h0s.03,0,.03,0h.03s.03,0,.03,0h.03s.03,0,.03,0h.02s.01,0,.01,0h.03s.03,0,.03,0h.03s.03,0,.03,0h.03s.03,0,.03,0h.03s.03,0,.03,0h.03s.03,0,.03,0h.01s.02,0,.02,0h.03s.03,0,.03,0h.03s.03,0,.03,0h.02s0,0,0,0h.03s.03,0,.03,0h.03s.03,0,.03,0h.03s0,0,0,0h.03s.03,0,.03,0h.03s.03,0,.03,0h.03v.92h4.15l.05.02.05.02.05.02h.03s.02.02.02.02l.05.02.05.02h0s.05.02.05.02l.05.02h.03s.02.02.02.02l.05.02.05.02h0s.04.02.04.02l.05.02.03.02h.02s.05.03.05.03l.05.02h0s.04.02.04.02l.05.02.04.02h.01s.05.03.05.03l.05.03h.01s.04.03.04.03l.05.03.04.02h.01s.05.03.05.03l.05.03h.01s.04.03.04.03l.05.03.04.02h.01s.05.03.05.03l.05.03h.01s.03.03.03.03l.05.03.04.02h0s.05.03.05.03l.05.03h.01s.11.08.11.08h0s.04.03.04.03l.04.03h.02s.07.06.07.06l.04.03h0s.1.08.1.08l.03.02.04.03.04.03h0s.04.03.04.03l.04.03h.02s.02.03.02.03l.04.03.04.03h0s0,0,0,0l.08.06h.02s.06.07.06.07l.04.03h0s.04.03.04.03l.04.03.02.02.02.02.04.03.04.03c1.02.93,1.82,2.06,2.35,3.34.53,1.27.77,2.64.71,4.02.05,1.38-.19,2.76-.71,4.04-.52,1.28-1.3,2.44-2.29,3.4l-.06.06-.03.03-.03.03-.06.06h0s-.06.06-.06.06l-.04.03-.03.02-.07.06h0s-.06.06-.06.06l-.04.03-.03.02-.07.05h0s-.06.05-.06.05l-.05.03-.02.02-.07.05h-.01s-.06.05-.06.05l-.05.04-.09.07h-.02s-.06.05-.06.05l-.05.04h-.02s-.07.06-.07.06h-.02s-.06.05-.06.05l-.06.04h-.02s-.08.06-.08.06h-.02s-.05.05-.05.05l-.06.04h-.01s-.08.05-.08.05l-.03.02-.05.03-.07.04h-.01s-.08.05-.08.05l-.03.02-.05.03-.07.04h0s-.08.05-.08.05l-.04.02-.05.02-.08.04h0s-.08.04-.08.04l-.04.02-.04.02-.09.04-.09.04-.04.02-.04.02-.09.04h0s-.09.04-.09.04l-.05.02-.04.02-.09.03h0s-.08.03-.08.03l-.05.02h-.04s-.09.05-.09.05h-.01s-.08.03-.08.03l-.06.02h-.03s-.09.04-.09.04h-.02s-.08.03-.08.03l-.07.02h-.03s-.1.04-.1.04h-.02s-.08.03-.08.03l-.07.02h-.03s-.1.04-.1.04h-.03s-.07.03-.07.03l-.08.02h-.02s-.1.03-.1.03h-.03s-.07.03-.07.03l-.08.02h-.02s-.14.04-.14.04l-.07.02-.09.02h-.01s-.14.03-.14.03h-.07s-.1.03-.1.03h-.01Zm-1.74,38.64v3.56c0,5.57-1.22,9.65-3.68,12.28-1.22,1.31-2.71,2.33-4.36,3.01-1.65.68-3.43,1-5.22.94-1.85.11-3.71-.21-5.42-.93-1.71-.72-3.24-1.81-4.47-3.21-2.33-2.76-3.49-6.77-3.49-12.1v-3.56h26.64Zm-26.64-91.82v-5.84c0-5.73,1.29-9.89,3.86-12.46,1.28-1.24,2.83-2.17,4.53-2.72h20.89c4.35,0,7.57.97,9.67,2.88,1.04.96,1.86,2.14,2.41,3.44s.8,2.72.76,4.13c.06,1.43-.2,2.87-.74,4.19-.55,1.33-1.37,2.52-2.42,3.5h-.01s-.01.03-.01.03h-.01s-.01.02-.01.02h-.01s-.01.02-.01.02h-.01s0,.01,0,.01h-.01s-.01.02-.01.02h-.01s-.01.02-.01.02h-.01s-.01.02-.01.02h-.01s0,.02,0,.02h0s-.01.02-.01.02h-.01s-.01.02-.01.02h-.01s-.01.02-.01.02h-.01s0,.02,0,.02h0s-.01.02-.01.02h-.01s-.01.02-.01.02h-.01s-.01.02-.01.02h-.01s-.01.02-.01.02h0s-.01.02-.01.02h-.01s-.02.02-.02.02h-.01s-.01.02-.01.02h-.02s-.01.02-.01.02h0s-.02.01-.02.01h-.02s-.01.02-.01.02h-.02s-.02.02-.02.02h-.01s-.02.02-.02.02h-.01s-.02.02-.02.02h-.01s-.02.02-.02.02h-.02s-.02.02-.02.02h-.02s0,.01,0,.01h-.01s-.02.02-.02.02h-.02s-.02.02-.02.02h-.02s-.02.02-.02.02h-.02s0,.01,0,.01h0s-.02.02-.02.02h-.02s-.02.02-.02.02h-.02s-.02.02-.02.02h-.02s-11.36.01-11.36.01v2.13h-26.64Z"/>
          <path class="cls-1" d="m210.15,67.54h-61.34v33.05h56.49c4.16,0,7.26.94,9.29,2.79,1.02.93,1.82,2.06,2.35,3.34.53,1.27.77,2.64.71,4.02.05,1.38-.19,2.76-.71,4.04-.52,1.28-1.3,2.44-2.29,3.4-2.03,1.91-5.13,2.88-9.36,2.88h-56.49v38.3h63.43c4.29,0,7.51,1,9.67,2.97,1.09,1,1.95,2.23,2.52,3.59.57,1.37.83,2.84.77,4.32.05,1.45-.22,2.89-.79,4.23s-1.42,2.53-2.5,3.5c-2.16,1.97-5.38,2.97-9.67,2.97h-73.98c-5.91,0-10.17-1.31-12.77-3.94-2.6-2.63-3.91-6.88-3.91-12.74V63.19c-.12-3.28.48-6.55,1.75-9.58,1.09-2.41,3.03-4.34,5.44-5.41,3.01-1.23,6.24-1.8,9.48-1.69h71.88c4.35,0,7.57.97,9.67,2.88,1.04.96,1.86,2.14,2.4,3.44s.8,2.72.76,4.13c.06,1.43-.2,2.86-.74,4.19-.55,1.33-1.37,2.52-2.42,3.5-2.1,1.91-5.32,2.88-9.67,2.88Z"/>
        </g>
      </g>
    </symbol>
  </defs>
  <g id="Layer_1-2" data-name="Layer 1">
    <use width="409.61" height="236.75" xlink:href="#PIERC_WHITE"/>
  </g>
</svg>