<svg width="148" height="86" viewBox="0 0 148 86" fill="none" xmlns="http://www.w3.org/2000/svg">
<g clip-path="url(#clip0_247_2)">
<g clip-path="url(#clip1_247_2)">
<path fill-rule="evenodd" clip-rule="evenodd" d="M42.7197 17.4757C43.1804 17.7074 43.6081 17.9612 44.003 18.2811V18.3032V18.3253C43.7507 18.8769 43.5643 19.4727 43.4546 20.1346C43.3449 20.7745 43.2681 21.4916 43.2681 22.2419V50.6842C42.6539 52.0192 41.941 53.321 41.1733 54.5898L34.1868 65.8652C44.9133 41.7808 35.3932 21.2158 43.1365 16.8027" fill="#F16670"/>
<path fill-rule="evenodd" clip-rule="evenodd" d="M34.2965 20.6421C35.2507 18.4135 37.4662 16.8579 40.0217 16.8579C40.9759 16.8579 41.8972 17.0896 42.7198 17.4757C34.9874 21.8888 44.4966 42.4538 33.77 66.5382V43.1047C35.1191 41.8139 36.161 40.2804 36.8739 38.4931C37.6965 36.4741 38.1023 34.1572 38.1023 31.5425C38.1023 30.3289 38.0146 29.1594 37.8062 28.034C37.5978 26.9087 37.3017 25.8496 36.8959 24.8677C36.49 23.8527 35.9855 22.9369 35.3933 22.0654C35.0533 21.5799 34.6803 21.1276 34.2965 20.6863" fill="#EF384C"/>
<path d="M16.4517 24.294H9.83813V39.2433H16.4517C18.7769 39.2433 20.7182 38.9895 22.2757 38.5041C23.8331 38.0187 25.0176 37.2133 25.8402 36.099C26.6628 34.9957 27.0686 33.5283 27.0686 31.741C27.0686 29.5786 26.4325 27.8355 25.1712 26.4895C23.7563 25.0442 20.8608 24.305 16.4517 24.305M18.8427 46.6904H9.82716V72.882C9.82716 74.8569 9.34458 76.3463 8.43425 77.3834C7.52392 78.3984 6.33939 78.9169 4.92454 78.9169C3.50969 78.9169 2.22645 78.4094 1.33806 77.4054C0.427727 76.3904 -0.0109863 74.901 -0.0109863 72.9482V22.9149C-0.0109863 20.7304 0.493534 19.1748 1.46967 18.2591C2.47871 17.3213 4.02518 16.8579 6.21875 16.8579H18.8427C22.5828 16.8579 25.4344 17.1337 27.4744 17.7295C29.4596 18.2811 31.1706 19.1968 32.6293 20.4877C34.0661 21.7785 35.1629 23.3562 35.9196 25.2207C36.6764 27.0852 37.0603 29.1925 37.0603 31.5094C37.0603 36.4961 35.5358 40.2583 32.4977 42.8289C29.4377 45.3775 24.9189 46.6573 18.8756 46.6573L18.8537 46.6793L18.8427 46.6904Z" fill="black"/>
<path d="M100.893 19.3846C101.924 18.7447 103.021 18.193 104.162 17.7296C107.013 16.5822 110.051 16.0085 113.265 16.0085C117.191 16.0085 120.679 16.7919 123.761 18.3695C126.821 19.9252 129.168 21.9 130.813 24.2279C132.437 26.5448 133.281 28.7293 133.281 30.7924C133.281 31.9398 132.875 32.9327 132.075 33.8043C131.274 34.6759 130.32 35.0951 129.201 35.0951C127.951 35.0951 126.986 34.7973 126.371 34.2015C125.735 33.6057 125.044 32.5686 124.277 31.1013C122.993 28.6962 121.491 26.8758 119.758 25.6622C118.025 24.4706 115.897 23.8749 113.342 23.8749C109.964 23.8749 107.156 24.9561 104.918 27.1075C104.918 27.0413 104.896 26.9751 104.874 26.8758C104.71 25.9821 104.469 25.1105 104.14 24.2831C103.822 23.4556 103.427 22.6502 102.955 21.9221C102.473 21.1608 101.924 20.4768 101.31 19.8369C101.178 19.6714 101.036 19.539 100.871 19.4287M102.725 64.5414C102.067 64.2436 101.42 63.9016 100.805 63.5264C99.0944 62.4894 97.5151 61.1434 96.0783 59.4664C94.795 57.9329 93.7092 56.2338 92.7879 54.3252C91.8776 52.4165 91.2085 50.3975 90.7589 48.2461C90.3092 46.0948 90.0789 43.7889 90.0789 41.3838C90.0789 39.4972 90.2105 37.7099 90.4627 36.0109H90.5505V35.9888H90.5724L90.6163 35.9667L90.6602 35.9447H90.8466V35.9226H90.8685L90.8905 35.9005L90.9344 35.8785L90.9782 35.8564H91.066L91.1098 35.8123L91.1537 35.7902L91.1976 35.7681L91.2195 35.7461H91.2415V35.724H91.2853V35.7019H91.3292V35.6799H91.3511L91.3731 35.6578L91.4608 35.5916L91.4827 35.5695H91.5047V35.5475H91.5486V35.5254H91.5924V35.5034H91.6144L91.6582 35.4592H91.6802V35.4372H91.724V35.4151H91.746V35.371L91.7679 35.3268L91.8118 35.2827L91.8337 35.2606V35.2386H91.8557V35.2165H91.8995V35.1944H91.9434V35.1503H92.0092L92.0311 35.0841L92.075 35.062L92.0969 35.04V35.0179H92.1189V34.9958H92.1408L92.1627 34.9296V34.9076H92.1847L92.2066 34.8414L92.2286 34.8193V34.7973H92.2505V34.7752H92.2724V34.7311H92.2944V34.6869V34.6428L92.3163 34.5987C93.1389 33.6388 93.5666 32.3039 93.5666 30.6048V30.5607V30.5166V30.4724V30.4283V30.34V30.2959V30.2518V30.2076V30.1635V30.1194V30.0753V30.0091V29.9429V29.8767V29.8105V29.7663V29.7222V29.6781V29.6339V29.5898V29.5016V29.4574V29.3692V29.325V29.2809V29.2368V29.1926V29.1044V29.0602V29.0161V28.972V28.9279V28.8837V28.8396V28.7955V28.7513V28.7072V28.6631V28.5748H93.5447V28.5307V28.4865V28.4424L93.5008 28.3983V28.31V28.2659H93.4789V28.1997V28.1556V28.1114V28.0232V27.979H93.457V27.9349L93.4131 27.8908V27.8466C94.3015 26.2579 95.3763 24.8347 96.6047 23.577C97.6138 22.5178 98.6996 21.6021 99.8731 20.7747V20.7967L99.917 20.8409H99.9389V20.8629L99.9828 20.9071H100.005V20.9512L100.049 20.9953V21.0174C101.189 22.2089 102.056 23.566 102.648 25.1216V25.1657H102.67V25.2319V25.2981V25.3422V25.4305V25.4746L102.692 25.4967V25.5629V25.6291V25.7173V25.7615V25.8056L102.714 25.8277V25.8939V25.9821L102.736 26.0262V26.0924V26.1366V26.2248L102.758 26.269C102.802 26.4014 102.823 26.5448 102.867 26.7103V26.7544L102.911 26.9199V26.964C102.977 27.2398 103.021 27.5377 103.076 27.8135V27.8797V27.9239V28.0121C103.076 28.1225 103.098 28.2438 103.12 28.3542C103.01 28.4645 102.911 28.6079 102.802 28.7403C100.794 31.333 99.6319 34.8414 99.3138 39.2545C99.226 39.3207 99.1273 39.42 99.0396 39.4862L98.9518 39.5524L98.8641 39.6186C98.8641 39.6186 98.6776 39.7509 98.5899 39.8282H98.546L98.4802 39.8944H98.4583C98.4583 39.8944 98.3267 40.0047 98.2499 40.0599L98.1622 40.1261L98.0744 40.1923L97.9647 40.2585L97.8989 40.3026H97.8551L97.7893 40.3688H97.7454L97.6796 40.435H97.6357L97.5699 40.5012H97.548L97.4602 40.5674L97.3505 40.6336L97.2409 40.6998L97.1531 40.7439H97.1312L97.1092 40.766L97.0215 40.8101L96.9338 40.8542L96.846 40.9204H96.8241C96.8241 40.9204 96.6925 41.0087 96.5938 41.0528L96.4841 41.119L96.3744 41.1852L96.2647 41.2293L96.177 41.2735H96.1331L96.0454 41.3397H96.0015L95.9137 41.4059L95.8041 41.45L95.6725 41.5162L95.5408 41.5603L95.4312 41.6044L95.3215 41.6486H95.2776L95.1899 41.6927H95.1241L95.0583 41.7368H94.9925C94.8279 41.8251 94.6744 41.8692 94.4879 41.9465H94.4441L94.3344 41.9906H94.3124L94.2247 42.0347H94.1808L94.0931 42.0788L93.9834 42.123L93.8518 42.1671L93.7202 42.2112L93.5886 42.2554H93.4789L93.4131 42.2995H93.3034L93.2595 42.3436H93.1718L93.106 42.3878H92.9963V42.4098L92.8647 42.454L92.7002 42.4981L92.5357 42.5422H92.4918C92.3821 42.5643 92.2615 42.5864 92.1737 42.6305H92.1518L92.0202 42.6746H91.7898L91.7679 42.7187L91.6034 42.7629C93.3144 43.6786 94.9376 45.0135 96.506 46.8008C98.0525 48.5881 99.4454 50.4747 100.663 52.4937C101.88 54.5127 102.834 56.3 103.514 57.9329C104.194 59.5436 104.545 60.669 104.545 61.2647C104.545 61.8605 104.337 62.5004 103.953 63.1293V63.1513V63.1734V63.1955V63.2175V63.2396V63.2617V63.2837V63.3058V63.3279V63.3499V63.372V63.394V63.4161V63.4382V63.4602V63.4823V63.5044V63.5264V63.5485V63.5706V63.5926V63.6147V63.6368H103.931V63.6588V63.6809V63.703V63.725H103.865V63.7471H103.822V63.7912H103.635L102.834 64.5304L102.725 64.5414ZM100.103 40.457V41.6927C100.103 45.4769 100.63 48.6433 101.705 51.1698C101.891 51.6332 102.089 52.0635 102.319 52.4827C102.209 52.2951 102.089 52.0966 101.979 51.909C101.365 50.8719 100.674 49.89 99.9719 48.8971C99.2589 47.9372 98.5131 46.9884 97.7125 46.0506C96.8899 45.1128 96.0454 44.2854 95.2008 43.5683C95.0144 43.4028 94.817 43.2704 94.6305 43.1049C95.7931 42.7408 96.846 42.3216 97.8002 41.8472C98.6667 41.4059 99.4454 40.9535 100.147 40.4239L100.103 40.446V40.457ZM133.402 50.2872C133.402 51.8428 133.04 53.5198 132.261 55.3402C131.504 57.1495 130.298 58.9258 128.653 60.669C127.03 62.4121 124.935 63.8354 122.401 64.9166C119.868 65.9978 116.906 66.5494 113.528 66.5494C110.973 66.5494 108.647 66.3177 106.542 65.8102C105.653 65.6006 104.787 65.3248 103.942 65.0269C104.074 64.9386 104.194 64.8173 104.304 64.729C104.644 64.4091 104.94 64.067 105.193 63.6699C105.445 63.2837 105.631 62.8865 105.763 62.4783C105.894 62.0701 105.971 61.6288 105.971 61.2206C105.971 60.8124 105.884 60.2828 105.675 59.6098C105.489 59.0361 105.214 58.2969 104.874 57.4695C104.513 56.62 104.096 55.7484 103.624 54.8106C103.394 54.3472 103.12 53.8949 102.845 53.4094C103.756 54.8327 104.874 55.9801 106.202 56.8296C108.143 58.0652 110.424 58.6941 113.024 58.6941C115.853 58.6941 118.222 57.977 120.186 56.5869C122.149 55.1967 123.608 53.1005 124.617 50.3644C125.022 49.0736 125.549 48.0255 126.163 47.2201C126.777 46.4147 127.764 46.0065 129.124 46.0065C130.309 46.0065 131.318 46.4147 132.141 47.2422C132.985 48.0696 133.391 49.0736 133.391 50.2982L133.402 50.2872Z" fill="black"/>
<path d="M74.7349 82.1717C75.4149 82.1717 75.9633 82.5358 75.9852 83.4295H73.4297C73.5174 82.6461 74 82.1717 74.7349 82.1717ZM74.7788 85.978C75.733 85.978 76.4897 85.4484 76.5994 84.621H75.9852C75.8755 85.1285 75.4149 85.4264 74.7788 85.4264C73.9781 85.4264 73.4516 84.8747 73.4297 83.9149H76.6214C76.753 82.6241 76.0949 81.6201 74.7459 81.6201C73.5394 81.6201 72.7826 82.4917 72.7826 83.8046C72.7826 85.1175 73.5613 85.967 74.7678 85.967V85.9891L74.7788 85.978ZM70.3258 85.9118H70.9619V83.4074C71.0058 82.6903 71.4884 82.26 72.2123 82.26H72.4645V81.6422H72.2123C71.6419 81.6422 71.1594 81.94 70.9619 82.4696H70.94L70.8961 81.6863H70.3258V85.9118ZM68.6806 85.9118H69.4813V85.3602H68.889C68.5929 85.3602 68.5271 85.294 68.5271 84.9961V82.2379H69.5032V81.7084H68.5271V80.3513L67.891 80.4396V81.6973H67.0684V82.2269H67.891V85.0954C67.891 85.625 68.0993 85.9008 68.7135 85.9008H68.6916L68.6806 85.9118ZM62.8348 85.9118H63.4709V83.6391C63.4709 82.8116 63.9754 82.1938 64.7761 82.1938C65.5109 82.1938 65.8509 82.6351 65.8509 83.5729V85.9118H66.4871V83.4295C66.4871 82.1166 65.8509 81.6422 64.9845 81.6422C64.3483 81.6422 63.778 81.9621 63.5257 82.5799H63.4819V81.7084H62.8457V85.9339V85.9118H62.8348ZM60.0051 82.1717C60.6851 82.1717 61.2335 82.5358 61.2554 83.4295H58.6999C58.7876 82.6461 59.2702 82.1717 60.0051 82.1717ZM60.0489 85.978C61.0031 85.978 61.7599 85.4484 61.8696 84.621H61.2554C61.1457 85.1285 60.6851 85.4264 60.0489 85.4264C59.2483 85.4264 58.7218 84.8747 58.6999 83.9149H61.8915C62.0232 82.6241 61.3651 81.6201 60.016 81.6201C58.8096 81.6201 58.0528 82.4917 58.0528 83.8046C58.0528 85.1175 58.8315 85.967 60.038 85.967V85.9891L60.0489 85.978ZM54.7295 85.978C56.1444 85.978 57.1754 85.1726 57.3289 83.959H56.6489C56.5173 84.8086 55.7825 85.3823 54.7295 85.3823C53.4244 85.3823 52.6018 84.4886 52.6018 82.9992C52.6018 81.5098 53.4024 80.6161 54.7295 80.6161C55.7605 80.6161 56.4844 81.1898 56.6489 82.0173H57.3289C57.1425 80.8037 56.1225 80.0204 54.7295 80.0204C53.0405 80.0204 51.9218 81.1898 51.9218 82.9992C51.9218 84.8086 53.0405 85.978 54.7295 85.978ZM45.5275 85.9118H46.1637V83.6391C46.1637 82.8116 46.6682 82.1938 47.4688 82.1938C48.2037 82.1938 48.5437 82.6351 48.5437 83.5729V85.9118H49.1798V83.4295C49.1798 82.1166 48.5437 81.6422 47.6772 81.6422C47.0411 81.6422 46.4708 81.9621 46.2185 82.5799H46.1746V80.0755H45.5385V85.9339V85.9118H45.5275ZM42.7856 85.978C43.7946 85.978 44.5404 85.3602 44.6062 84.4445H43.9701C43.9043 85.0402 43.4436 85.4264 42.7636 85.4264C41.941 85.4264 41.4146 84.8306 41.4146 83.8156C41.4146 82.8006 41.9191 82.1828 42.7856 82.1828C43.3778 82.1828 43.8604 82.5027 43.9701 83.0985H44.5843C44.5185 82.2269 43.7836 81.6311 42.8075 81.6311C41.5791 81.6311 40.7785 82.5027 40.7785 83.8156C40.7785 85.1285 41.5791 86.0001 42.7856 86.0001V85.978ZM38.3107 85.9118H38.9468V83.4074C38.9907 82.6903 39.4733 82.26 40.1972 82.26H40.4494V81.6422H40.1972C39.6268 81.6422 39.1442 81.94 38.9468 82.4696H38.9249L38.881 81.6863H38.3107V85.9118ZM35.141 85.4264C34.3623 85.4264 33.8577 84.8527 33.8577 83.7935C33.8577 82.7344 34.3623 82.1607 35.141 82.1607C35.9855 82.1607 36.4462 82.8227 36.4462 83.5398V84.0473C36.4462 84.7644 35.9855 85.4264 35.141 85.4264ZM34.9326 85.978C35.6674 85.978 36.2158 85.5919 36.4133 85.0182H36.4571V85.8898H37.0933V81.6642H36.4791V82.5358H36.4133C36.2049 81.9621 35.6565 81.598 34.9326 81.598C33.9016 81.598 33.1997 82.3814 33.1997 83.7825C33.1997 85.1837 33.8797 85.967 34.9326 85.967V85.9891V85.978ZM30.6003 82.1717C31.2803 82.1717 31.8287 82.5358 31.8506 83.4295H29.2951C29.3829 82.6461 29.8655 82.1717 30.6003 82.1717ZM30.6442 85.978C31.5984 85.978 32.3552 85.4484 32.4648 84.621H31.8506C31.741 85.1285 31.2803 85.4264 30.6442 85.4264C29.8435 85.4264 29.3171 84.8747 29.2951 83.9149H32.4868C32.6184 82.6241 31.9603 81.6201 30.6113 81.6201C29.4048 81.6201 28.648 82.4917 28.648 83.8046C28.648 85.1175 29.4267 85.967 30.6332 85.967V85.9891L30.6442 85.978ZM26.1912 85.978C27.2441 85.978 27.9022 85.5698 27.9022 84.7424C27.9022 83.8266 27.2222 83.617 26.3228 83.5067C25.5661 83.3964 25.2041 83.2529 25.2041 82.7896C25.2041 82.3814 25.5441 82.1055 26.1583 82.1055C26.7725 82.1055 27.1345 82.3593 27.1674 82.933H27.8035C27.8035 82.1055 27.1893 81.6201 26.1803 81.6201C25.1712 81.6201 24.557 82.0835 24.557 82.8558C24.557 83.6832 25.1712 83.9149 26.1364 84.0473C26.9151 84.1576 27.2332 84.3011 27.2332 84.8086C27.2332 85.2719 26.8712 85.5257 26.2022 85.5257C25.5332 85.5257 25.0835 85.2499 25.0835 84.61H24.4473C24.4473 85.4374 25.0615 86.0111 26.1803 86.0111V85.9891L26.1912 85.978ZM21.8589 82.1497C22.5389 82.1497 23.0873 82.5137 23.1093 83.4074H20.5538C20.6196 82.6241 21.1241 82.1497 21.8589 82.1497ZM21.9028 85.956C22.857 85.956 23.6138 85.4264 23.7235 84.5989H23.1093C22.9996 85.1064 22.5389 85.4043 21.9028 85.4043C21.1022 85.4043 20.5757 84.8527 20.5538 83.8928H23.7454C23.877 82.602 23.2189 81.598 21.8699 81.598C20.6634 81.598 19.9067 82.4696 19.9067 83.7825C19.9067 85.0954 20.6854 85.9449 21.8918 85.9449V85.967L21.9028 85.956ZM15.3989 82.8337V80.6051H17.2744C18.0312 80.6051 18.5247 80.925 18.5247 81.6863C18.5247 82.3483 18.1628 82.8337 17.2744 82.8337H15.3989ZM14.7189 85.8677H15.3989V83.3853H17.3182C18.2066 83.3853 18.437 83.7053 18.437 84.3452V85.2168C18.437 85.4926 18.437 85.7022 18.5247 85.8567H19.2047C19.117 85.647 19.117 85.4154 19.117 85.2388V84.2238C19.117 83.5619 18.8647 83.1647 18.2066 83.0544V83.0102C18.8867 82.8227 19.2376 82.2931 19.2376 81.587C19.2376 80.572 18.6015 79.9983 17.3621 79.9983H14.7408V85.8567H14.7189V85.8677ZM77.2904 74.4599C77.2904 73.8862 77.6523 73.4228 78.3214 73.1249L79.824 74.8239C79.5498 75.2653 79.0672 75.5411 78.453 75.5411C77.7949 75.5411 77.2684 75.177 77.2684 74.4599H77.2904ZM78.4968 72.5071C78.1788 72.143 77.9265 71.8451 77.9265 71.4038C77.9265 70.9404 78.2227 70.5984 78.7491 70.5984C79.2317 70.5984 79.5498 70.9184 79.5498 71.3817C79.5498 71.9113 79.1659 72.2754 78.5407 72.5071H78.4968ZM78.3652 76.0927C79.1001 76.0927 79.7801 75.8169 80.1859 75.2432L80.8659 76.0044H81.6446L80.5917 74.8129C80.8001 74.4488 80.9536 73.8751 80.9975 73.4118H81.7982V72.9263H80.5149C80.5149 73.4118 80.4053 74.0296 80.2188 74.3937L78.8478 72.8601V72.816C79.6046 72.5622 80.1311 72.0327 80.1311 71.3266C80.1311 70.6205 79.5607 70.0688 78.782 70.0688C77.9156 70.0688 77.3233 70.6205 77.3233 71.3817C77.3233 71.9113 77.5975 72.2975 78.0033 72.7608C77.1368 73.147 76.6543 73.7979 76.6543 74.504C76.6543 75.5411 77.433 76.0596 78.3872 76.0596L78.3433 76.1037L78.3652 76.0927ZM146.026 75.5411C145.181 75.5411 144.721 74.8791 144.721 74.162V73.6545C144.721 72.9374 145.181 72.2754 146.026 72.2754C146.805 72.2754 147.309 72.8491 147.309 73.9082C147.309 74.9674 146.783 75.5411 146.026 75.5411ZM144.063 77.3504H144.699V75.1439H144.743C144.951 75.7176 145.499 76.0817 146.223 76.0817C147.254 76.0817 147.956 75.2984 147.956 73.8972C147.956 72.4961 147.276 71.7127 146.223 71.7127C145.488 71.7127 144.94 72.0989 144.743 72.6505H144.699V71.7789H144.063V77.3394V77.3504ZM142.209 76.0155H142.845V71.79H142.209V76.0155ZM142.209 71.1059H142.845V70.1681H142.209V71.1059ZM137.372 76.0155H138.008V73.7427C138.008 72.9153 138.513 72.2975 139.314 72.2975C140.048 72.2975 140.388 72.7388 140.388 73.6765V76.0155H141.024V73.5331C141.024 72.2202 140.388 71.7458 139.522 71.7458C138.886 71.7458 138.315 72.0658 138.063 72.6836H138.019V70.1792H137.383V76.0375V76.0155H137.372ZM134.652 76.0817C135.705 76.0817 136.363 75.6735 136.363 74.846C136.363 73.9303 135.683 73.7207 134.784 73.6104C134.027 73.5 133.665 73.3566 133.665 72.8932C133.665 72.485 134.005 72.2092 134.619 72.2092C135.233 72.2092 135.595 72.4629 135.628 73.0366H136.264C136.264 72.2092 135.65 71.7238 134.641 71.7238C133.632 71.7238 133.018 72.1871 133.018 72.9374C133.018 73.7648 133.632 73.9965 134.597 74.1289C135.376 74.2392 135.694 74.3826 135.694 74.8901C135.694 75.3535 135.332 75.6073 134.663 75.6073C133.994 75.6073 133.544 75.3315 133.544 74.6916H132.908C132.908 75.519 133.522 76.0927 134.641 76.0927L134.652 76.0817ZM130.342 76.0155H130.978V73.5111C131.022 72.7939 131.504 72.3636 132.228 72.3636H132.481V71.7458H132.228C131.658 71.7458 131.153 72.0437 130.978 72.5733H130.956L130.912 71.79H130.342V76.0155ZM127.03 76.0817C127.688 76.0817 128.258 75.7176 128.488 75.1218H128.532V76.0155H129.168V71.79H128.532V74.0406C128.532 74.9122 128.006 75.53 127.249 75.53C126.492 75.53 126.152 75.0446 126.152 74.2171V71.7789H125.516V74.3716C125.516 75.4969 126.086 76.0706 127.019 76.0706L127.03 76.0817ZM122.741 72.2754C123.421 72.2754 123.97 72.6395 123.991 73.5331H121.436C121.502 72.7498 122.006 72.2754 122.741 72.2754ZM122.785 76.0817C123.739 76.0817 124.496 75.5521 124.606 74.7247H123.991C123.882 75.2322 123.421 75.53 122.785 75.53C121.984 75.53 121.458 74.9784 121.436 74.0186H124.628C124.759 72.7277 124.101 71.7238 122.752 71.7238C121.546 71.7238 120.789 72.5953 120.789 73.9082C120.789 75.2211 121.568 76.0706 122.774 76.0706V76.0927L122.785 76.0817ZM116.259 76.0155H116.895V73.7427C116.895 72.9153 117.4 72.2975 118.2 72.2975C118.935 72.2975 119.275 72.7388 119.275 73.6765V76.0155H119.911V73.5331C119.911 72.2202 119.275 71.7458 118.409 71.7458C117.773 71.7458 117.202 72.0658 116.95 72.6836H116.906V71.812H116.27V76.0375V76.0155H116.259ZM113.429 72.2754C114.109 72.2754 114.658 72.6395 114.68 73.5331H112.124C112.212 72.7498 112.695 72.2754 113.429 72.2754ZM113.473 76.0817C114.427 76.0817 115.184 75.5521 115.294 74.7247H114.68C114.57 75.2322 114.109 75.53 113.473 75.53C112.673 75.53 112.146 74.9784 112.124 74.0186H115.316C115.447 72.7277 114.789 71.7238 113.44 71.7238C112.234 71.7238 111.477 72.5953 111.477 73.9082C111.477 75.2211 112.256 76.0706 113.462 76.0706V76.0927L113.473 76.0817ZM109.02 76.0155H109.656V73.5111C109.7 72.7939 110.183 72.3636 110.907 72.3636H111.159V71.7458H110.907C110.336 71.7458 109.854 72.0437 109.656 72.5733H109.635L109.591 71.79H109.02V76.0155ZM106.147 75.53C105.302 75.53 104.842 74.8681 104.842 74.151V73.6434C104.842 72.9263 105.302 72.2644 106.147 72.2644C106.925 72.2644 107.43 72.8381 107.43 73.8972C107.43 74.9563 106.904 75.53 106.147 75.53ZM104.184 77.3394H104.82V75.1329H104.864C105.072 75.7066 105.62 76.0706 106.344 76.0706C107.375 76.0706 108.077 75.2873 108.077 73.8862C108.077 72.485 107.397 71.7017 106.344 71.7017C105.609 71.7017 105.061 72.0878 104.864 72.6395H104.82V71.7679H104.184V77.3284V77.3394ZM101.354 72.2423C102.034 72.2423 102.582 72.6064 102.604 73.5H100.049C100.114 72.7167 100.619 72.2423 101.354 72.2423ZM101.398 76.0486C102.352 76.0486 103.109 75.519 103.218 74.6916H102.604C102.494 75.1991 102.034 75.4969 101.398 75.4969C100.597 75.4969 100.071 74.9453 100.049 73.9855H103.24C103.372 72.6946 102.714 71.6907 101.365 71.6907C100.158 71.6907 99.4015 72.5622 99.4015 73.8751C99.4015 75.188 100.18 76.0375 101.387 76.0375V76.0596L101.398 76.0486ZM96.9448 75.9824H97.5809V73.478C97.6248 72.7608 98.1073 72.3306 98.8312 72.3306H99.0835V71.7127H98.8312C98.2609 71.7127 97.7564 72.0106 97.5809 72.5402H97.5589L97.5151 71.7569H96.9448V75.9824ZM95.2996 75.9824H96.1002V75.4308H95.508C95.2118 75.4308 95.146 75.3646 95.146 75.0667V72.3085H96.1222V71.7789H95.146V70.4219L94.5099 70.5102V71.7679H93.6873V72.2975H94.5099V75.166C94.5099 75.6955 94.7183 75.9714 95.3325 75.9714H95.3105L95.2996 75.9824ZM89.4537 75.9824H90.0899V73.7096C90.0899 72.8822 90.5944 72.2644 91.395 72.2644C92.1299 72.2644 92.4699 72.7057 92.4699 73.6434V75.9824H93.106V73.5C93.106 72.1871 92.4699 71.7127 91.6034 71.7127C90.9673 71.7127 90.397 72.0327 90.1447 72.6505H90.1008V71.7789H89.4647V76.0044V75.9824H89.4537ZM84.4305 75.9824H88.4447V75.3645H85.1105V73.2573H88.0279V72.7057H85.1105V70.7308H88.4227V70.135H84.4305V75.9934V75.9824ZM70.1174 75.9824H70.7536V73.7096C70.7536 72.8822 71.2581 72.2644 72.0587 72.2644C72.7936 72.2644 73.1336 72.7057 73.1336 73.6434V75.9824H73.7697V73.5C73.7697 72.1871 73.1336 71.7127 72.2671 71.7127C71.631 71.7127 71.0607 72.0327 70.8084 72.6505H70.7645V71.7789H70.1284V76.0044V75.9824H70.1174ZM67.2 75.4969C66.3554 75.4969 65.829 74.8791 65.829 73.8862C65.829 72.8932 66.3774 72.2533 67.2 72.2533C68.0226 72.2533 68.549 72.8712 68.549 73.8862C68.549 74.9012 68.0006 75.4969 67.2 75.4969ZM67.2 76.0486C68.4284 76.0486 69.2071 75.1549 69.2071 73.8641C69.2071 72.5733 68.4064 71.6796 67.2 71.6796C65.9935 71.6796 65.1709 72.5733 65.1709 73.8641C65.1709 75.1549 65.9935 76.0265 67.2 76.0265V76.0486ZM63.6135 75.9824H64.2496V71.7569H63.6135V75.9824ZM63.6135 71.0728H64.2496V70.135H63.6135V71.0728ZM61.9683 75.9824H62.769V75.4308H62.1767C61.8806 75.4308 61.8148 75.3646 61.8148 75.0667V72.3085H62.7909V71.7789H61.8148V70.4219L61.1786 70.5102V71.7679H60.356V72.2975H61.1786V75.166C61.1786 75.6955 61.387 75.9714 62.0012 75.9714H61.9793L61.9683 75.9824ZM57.7018 75.4969C56.9231 75.4969 56.4186 74.9232 56.4186 73.8641C56.4186 72.805 56.9231 72.2313 57.7018 72.2313C58.5464 72.2313 59.007 72.8932 59.007 73.6104V74.1179C59.007 74.835 58.5464 75.4969 57.7018 75.4969ZM57.4934 76.0486C58.2283 76.0486 58.7767 75.6624 58.9741 75.0887H59.018V75.9603H59.6541V71.7348H59.0399V72.6064H58.9741C58.7657 72.0327 58.2173 71.6686 57.4934 71.6686C56.4625 71.6686 55.7605 72.4519 55.7605 73.8531C55.7605 75.2542 56.4405 76.0375 57.4934 76.0375V76.0596V76.0486ZM53.2489 75.9824H54.0276L55.5521 71.7569H54.8721L53.9399 74.5371L53.6657 75.4087H53.6437L53.3695 74.5371L52.4373 71.7569H51.7244L53.2489 75.9824ZM49.4869 75.4969C48.6424 75.4969 48.1159 74.8791 48.1159 73.8862C48.1159 72.8932 48.6643 72.2533 49.4869 72.2533C50.3095 72.2533 50.836 72.8712 50.836 73.8862C50.836 74.9012 50.2876 75.4969 49.4869 75.4969ZM49.4869 76.0486C50.7153 76.0486 51.494 75.1549 51.494 73.8641C51.494 72.5733 50.6934 71.6796 49.4869 71.6796C48.2805 71.6796 47.4579 72.5733 47.4579 73.8641C47.4579 75.1549 48.2805 76.0265 49.4869 76.0265V76.0486ZM42.9391 75.9824H43.5753V73.7096C43.5753 72.8822 44.0798 72.2644 44.8804 72.2644C45.6153 72.2644 45.9553 72.7057 45.9553 73.6434V75.9824H46.5914V73.5C46.5914 72.1871 45.9553 71.7127 45.0888 71.7127C44.4527 71.7127 43.8824 72.0327 43.6301 72.6505H43.5862V71.7789H42.9501V76.0044V75.9824H42.9391ZM38.1023 75.9824H38.7384V73.7096C38.7384 72.8822 39.243 72.2644 40.0436 72.2644C40.7785 72.2644 41.1185 72.7057 41.1185 73.6434V75.9824H41.7546V73.5C41.7546 72.1871 41.1185 71.7127 40.252 71.7127C39.6159 71.7127 39.0455 72.0327 38.7933 72.6505H38.7494V71.7789H38.1133V76.0044V75.9824H38.1023ZM36.0733 75.9824H36.7533V70.124H36.0733V75.9824ZM32.2674 75.9824H32.9035V70.124H32.2674V75.9824ZM28.9551 76.0486C29.6132 76.0486 30.1835 75.6845 30.4138 75.0887H30.4577V75.9824H31.0939V71.7569H30.4577V74.0075C30.4577 74.8791 29.9313 75.4969 29.1745 75.4969C28.4177 75.4969 28.0777 75.0115 28.0777 74.184V71.7458H27.4416V74.3385C27.4416 75.4638 28.0119 76.0375 28.9442 76.0375L28.9551 76.0486ZM24.568 75.9824H25.2041V73.478C25.248 72.7608 25.7306 72.3306 26.4545 72.3306H26.7067V71.7127H26.4545C25.8841 71.7127 25.4015 72.0106 25.2041 72.5402H25.1822L25.1383 71.7569H24.568V75.9824ZM21.3983 75.4969C20.6196 75.4969 20.115 74.9232 20.115 73.8641C20.115 72.805 20.6196 72.2313 21.3983 72.2313C22.2428 72.2313 22.7035 72.8932 22.7035 73.6104V74.1179C22.7035 74.835 22.2428 75.4969 21.3983 75.4969ZM21.1899 76.0486C21.9247 76.0486 22.4731 75.6624 22.6706 75.0887H22.7144V75.9603H23.3506V71.7348H22.7364V72.6064H22.6706C22.4622 72.0327 21.9138 71.6686 21.1899 71.6686C20.1589 71.6686 19.457 72.4519 19.457 73.8531C19.457 75.2542 20.137 76.0375 21.1899 76.0375V76.0596V76.0486ZM16.9015 73.2242H15.3989V70.7198H16.9015C17.746 70.7198 18.3163 71.128 18.3163 71.9554C18.3163 72.7829 17.7679 73.2132 16.9015 73.2132V73.2242ZM14.7298 75.9824H15.4098V73.7979H17.0112C18.2615 73.7979 19.0183 73.0808 19.0183 71.9665C19.0183 70.8522 18.2395 70.135 17.0112 70.135H14.7298V75.9934V75.9824Z" fill="#3F4244"/>
<path d="M41.8752 0.0331266C41.8752 0.0331266 41.7875 -0.0110043 41.7875 0.0110611C41.7875 0.0110611 41.8533 0.0110611 41.8752 0.0331266ZM41.5133 0.970907C41.5133 0.970907 41.6449 0.783351 41.7217 0.717155C41.6558 0.783351 41.59 0.882645 41.5133 0.970907ZM30.3041 2.69201C30.3041 2.69201 30.4138 2.69201 30.4138 2.71408C30.4138 2.71408 30.3261 2.66995 30.3041 2.69201ZM30.9841 3.07816C30.9841 3.07816 31.1925 3.14435 31.3022 3.18848C31.2145 3.14435 31.0938 3.10022 30.9841 3.07816ZM32.2125 7.072V7.0058V7.11613V7.072ZM32.1687 6.89547C32.1687 6.89547 32.2125 7.06097 32.1687 7.08303C32.1687 7.14923 32.1248 7.31472 32.059 7.33678C31.9932 7.38091 31.9274 7.42504 31.8725 7.44711C31.7629 7.49124 31.6203 7.53537 31.5106 7.5795C31.6203 7.5795 31.6751 7.53537 31.7409 7.51331C31.8287 7.49124 31.9274 7.46918 32.0371 7.40298C32.0809 7.38091 32.1467 7.33678 32.1687 7.27059C32.1687 7.24852 32.1906 7.20439 32.2125 7.18233V7.22646C32.2125 7.22646 32.1906 7.27059 32.1687 7.29265C32.1906 7.24852 32.2125 7.18233 32.2125 7.12716C32.2125 7.06097 32.2125 6.99477 32.1687 6.89547ZM40.2191 2.2838C40.2191 2.2838 40.4055 2.35 40.4933 2.32793C40.5591 2.32793 40.6249 2.2838 40.6797 2.26173C40.7675 2.2176 40.8442 2.15141 40.91 2.09624C41.1404 1.86456 41.3158 1.6108 41.5242 1.35705C41.5681 1.31292 41.59 1.19156 41.4804 1.31292C41.3926 1.40118 41.2939 1.50048 41.2062 1.6108C41.2062 1.6108 41.25 1.54461 41.2939 1.54461C41.25 1.63287 41.1842 1.7101 41.1075 1.7763L41.2391 1.6108C41.1294 1.7432 41.0087 1.86456 40.8771 2.01902C40.8333 2.06315 40.8113 2.15141 40.6907 2.20657C40.921 1.99695 41.0087 1.79836 41.1952 1.6108C41.1952 1.6108 41.3268 1.44531 41.4036 1.37912C41.4036 1.40118 41.3597 1.42325 41.3378 1.44531C41.4255 1.33499 41.5242 1.19156 41.612 1.1033C41.2939 1.37912 41.0416 1.76526 40.7236 2.08521C40.8113 1.97488 40.932 1.87559 40.9758 1.78733C40.8442 1.91972 40.7675 2.10728 40.4713 2.22864H40.5371C40.4713 2.27277 40.3068 2.2507 40.241 2.18451C40.1752 2.11831 40.1533 2.05211 40.1313 1.97488C40.1313 2.04108 40.1971 2.10728 40.2191 2.16244C40.2629 2.22864 40.3836 2.27277 40.4713 2.2507C40.4055 2.2507 40.2849 2.22864 40.2191 2.16244C40.2629 2.18451 40.3287 2.22864 40.4055 2.22864C40.4823 2.22864 40.5371 2.20657 40.592 2.16244C40.592 2.16244 40.6358 2.16244 40.6358 2.11831L40.592 2.16244C40.5042 2.20657 40.3616 2.22864 40.2958 2.16244C40.3616 2.20657 40.4823 2.20657 40.5481 2.16244C40.6139 2.11831 40.6578 2.07418 40.7126 2.03005C40.6687 2.07418 40.6029 2.14037 40.5262 2.16244C40.6907 2.07418 40.7784 1.90869 40.8881 1.79836C40.8442 1.86456 40.8004 1.96385 40.7236 2.03005C40.91 1.84249 41.0636 1.6439 41.2281 1.43428C41.2062 1.43428 41.1623 1.47841 41.1404 1.47841L41.1623 1.45635V1.43428C41.2939 1.26879 41.4365 1.11433 41.601 0.926776C41.7107 0.816449 41.941 0.650959 41.941 0.485468C41.941 0.253781 41.8094 0.231715 41.7546 0.231715H41.6668C41.6668 0.231715 41.6887 0.231715 41.6887 0.20965C41.6887 0.187585 41.6229 0.165519 41.5571 0.20965C41.4913 0.253781 41.4255 0.319977 41.3707 0.375141C41.3378 0.408239 41.3378 0.397206 41.3707 0.353075C41.4146 0.286879 41.3707 0.375141 41.3487 0.397206C41.3487 0.353075 41.4146 0.308944 41.4146 0.286879H41.3926C41.3926 0.286879 41.4584 0.198617 41.5242 0.154486C41.59 0.110356 41.7107 0.0882901 41.7984 0.0882901C41.59 0.0662247 41.4584 0.198617 41.3597 0.297912C41.272 0.408239 41.1952 0.529599 41.1075 0.61786C40.921 0.849547 40.7675 1.05917 40.581 1.21363C40.4713 1.30189 40.3507 1.40118 40.241 1.48944C40.1313 1.59977 39.9887 1.72113 39.9668 1.97488C39.9668 2.01901 39.9668 2.08521 40.0107 2.18451C40.0545 2.2507 40.0984 2.3169 40.1971 2.37206L40.2191 2.30587V2.2838ZM31.4338 3.24365H31.4777C31.4777 3.24365 31.6861 3.33191 31.7958 3.37604C31.6861 3.33191 31.5654 3.26571 31.4338 3.24365ZM31.5216 7.46918C31.5216 7.46918 31.7519 7.42505 31.8396 7.35885C31.7519 7.40298 31.6312 7.44711 31.5216 7.46918ZM30.1067 3.4312C30.3809 3.56359 30.6112 3.66289 30.8635 3.77322C31.1377 3.90561 31.368 4.04903 31.5764 4.21452C31.6203 4.23659 31.7409 4.28072 31.8506 4.30279C31.9383 4.30279 32.0371 4.34692 32.1906 4.30279C32.2564 4.30279 32.3551 4.23659 32.4209 4.17039C32.4867 4.1042 32.5087 4.0049 32.5306 3.96077V3.70702C32.5087 3.64082 32.4648 3.57463 32.4209 3.51946C32.3332 3.4312 32.2564 3.38707 32.1687 3.33191C32.0041 3.24365 31.8506 3.16642 31.6861 3.12229C31.6203 3.10022 31.5216 3.12229 31.6861 3.18848C31.7958 3.25468 31.9383 3.32088 32.07 3.3981C32.07 3.37604 32.0041 3.35397 31.9822 3.33191C32.07 3.37604 32.1687 3.3981 32.2564 3.4974C32.1906 3.45327 32.1248 3.40914 32.07 3.38707C32.1358 3.4312 32.2345 3.47533 32.3222 3.55256C32.388 3.61876 32.5306 3.74012 32.5087 3.93871C32.5087 3.98284 32.5087 4.04903 32.4867 4.12626C32.4867 4.19246 32.399 4.29175 32.2783 4.31382C32.5525 4.18143 32.5306 3.87251 32.41 3.69599C32.3003 3.5305 32.1796 3.48637 32.07 3.42017C32.07 3.42017 31.8616 3.33191 31.7738 3.28778C31.7958 3.28778 31.8396 3.30984 31.8616 3.33191C31.697 3.28778 31.5654 3.24365 31.4229 3.19952C31.6093 3.28778 31.8067 3.38707 32.0151 3.4974C32.1248 3.56359 32.2235 3.60773 32.3112 3.72909C32.3551 3.79528 32.399 3.86148 32.399 3.96077C32.399 4.02697 32.399 4.12626 32.3112 4.19246C32.3771 4.1042 32.399 4.0049 32.3771 3.91664C32.3771 3.80631 32.2893 3.72909 32.2454 3.70702C32.2893 3.75115 32.3332 3.79528 32.3551 3.87251C32.3771 3.93871 32.3551 4.0049 32.3551 4.08213C32.3551 4.15936 32.2893 4.21452 32.2235 4.26969C32.1577 4.31382 32.0919 4.31382 32.0151 4.29175H32.059C31.8945 4.29175 31.7629 4.24762 31.6532 4.20349C31.7629 4.24762 31.8835 4.26969 32.0151 4.29175C31.9493 4.29175 31.9054 4.26969 31.8287 4.24762H31.9932C32.059 4.24762 32.1577 4.24762 32.2454 4.20349C32.1138 4.26969 31.9932 4.20349 31.9054 4.20349C31.9712 4.20349 32.0371 4.22556 32.1358 4.20349C32.2016 4.20349 32.3003 4.1373 32.3222 4.038C32.3003 4.12626 32.2125 4.17039 32.1138 4.17039C31.9822 4.17039 31.8396 4.14833 31.73 4.1042H31.708C31.708 4.1042 31.6203 4.06007 31.5764 4.06007C31.5325 4.06007 31.4887 4.01594 31.4667 3.99387C31.357 3.97181 31.2364 3.88354 31.1267 3.86148C31.0829 3.86148 31.0609 3.83941 31.017 3.81735H30.9732C30.9732 3.81735 30.9293 3.77322 30.9074 3.77322C30.9293 3.77322 30.9512 3.79528 30.9732 3.81735C31.1596 3.88354 31.3351 3.94974 31.5216 4.04903L31.4996 4.02697H31.5435C31.5435 4.02697 31.6532 4.11523 31.73 4.1373C31.73 4.1373 31.708 4.1373 31.6861 4.11523C31.8506 4.18143 32.0261 4.28072 32.2125 4.28072C32.3003 4.28072 32.399 4.19246 32.4209 4.09317C32.4209 4.0049 32.399 3.90561 32.3332 3.83941C32.399 3.88354 32.4648 4.0049 32.4429 4.09317V3.88354C32.399 3.81735 32.3551 3.77322 32.3112 3.71805C32.2016 3.62979 32.0809 3.58566 31.9712 3.5305C31.9932 3.55256 32.0151 3.57463 32.0371 3.59669H31.9712C31.8067 3.5305 31.6532 3.4643 31.5654 3.4312C31.1267 3.24365 30.8854 3.15538 30.5893 3.04506H30.4248C30.4248 3.04506 30.4467 3.04506 30.4467 3.02299C30.4467 3.00093 30.4028 3.00093 30.3151 3.02299C30.2274 3.04506 30.1506 3.15538 30.1506 3.23261V3.18848V3.25468V3.08919L30.1286 3.11125C30.1286 3.04506 30.2164 2.94576 30.2932 2.90163C30.3809 2.8575 30.4577 2.8575 30.5016 2.83544C30.4357 2.83544 30.3699 2.8575 30.2932 2.90163C30.2274 2.9237 30.1287 3.01196 30.0848 3.11125C30.019 3.29881 30.1506 3.47533 30.2932 3.55256L30.1616 3.4643L30.1067 3.4312ZM41.8313 7.56847H41.8971C41.8971 7.56847 41.8971 7.56847 41.9191 7.56847H41.8313ZM41.4475 1.1364H41.4255C41.3597 1.24673 41.2939 1.34602 41.2171 1.43428C41.2829 1.34602 41.4036 1.24673 41.4475 1.1364ZM42.5442 7.91048C42.5442 7.91048 42.7526 7.97668 42.8623 8.02081C42.7746 7.97668 42.6539 7.93255 42.5442 7.91048ZM42.7307 7.84429C42.5662 7.75603 42.4126 7.6788 42.2481 7.6126C42.3139 7.63467 42.3797 7.65673 42.4346 7.70086C42.3468 7.65673 42.2481 7.63467 42.1604 7.6126C42.1823 7.6126 42.2481 7.65673 42.2481 7.6788C42.4784 7.76706 42.7088 7.86635 42.9281 7.93255C42.8623 7.86635 42.7965 7.88842 42.7197 7.86635V7.84429H42.7307ZM30.677 2.91266C30.9074 3.00093 31.1377 3.07816 31.357 3.14435C31.2912 3.07816 31.2254 3.10022 31.1487 3.07816C30.9841 3.01196 30.8087 2.94576 30.6661 2.86853L30.8525 2.93473C30.8525 2.93473 30.688 2.86853 30.5783 2.84647C30.6003 2.84647 30.6661 2.8906 30.6661 2.91266H30.677ZM40.4165 8.00978C40.581 7.56847 40.7784 7.11613 40.8991 6.65276C41.0197 6.18938 41.0636 5.71497 40.9649 5.27367C41.0526 5.71497 41.0087 6.18938 40.8991 6.65276C40.7894 7.11613 40.6029 7.54641 40.4165 8.00978ZM40.3068 3.33191C40.3068 3.33191 40.4384 3.51946 40.5152 3.60773C40.0765 2.94576 39.5391 2.46032 38.8042 2.11831C38.8042 2.11831 38.7603 2.11831 38.7603 2.09624C38.7603 2.09624 38.8042 2.09624 38.8042 2.11831C39.0565 2.22864 39.4623 2.50445 39.561 2.60375C40.3836 3.24365 40.9539 4.21453 41.1075 5.24057C41.1952 5.77014 41.1513 6.29971 41.0197 6.79618C40.8881 7.30368 40.6797 7.75603 40.5152 8.2194C40.8333 7.50227 40.9758 7.02787 41.0855 6.47623C41.2939 5.46122 41.0416 4.45724 40.5152 3.62979C40.5152 3.65186 40.5371 3.67392 40.5591 3.69599C40.4933 3.56359 40.3945 3.44224 40.3068 3.33191C40.0326 2.98989 39.7365 2.69201 39.3965 2.46032C39.7365 2.71408 40.0545 3.01196 40.3068 3.33191ZM39.6268 8.47315C39.4952 8.88136 39.3965 9.32267 39.4623 9.78605C39.4623 9.85224 39.5062 9.91844 39.55 9.99567C39.5939 10.0729 39.7145 10.106 39.8023 10.0839C39.89 10.0839 39.9887 10.0398 40.0326 9.9736C40.0765 9.9074 40.0984 9.80811 40.0984 9.74191V9.3337C40.0984 9.22338 40.0984 9.07995 40.1423 8.96962C40.1203 9.07995 40.0984 9.20131 40.0984 9.31164V9.65365C40.0984 9.76398 40.0984 9.92947 39.9668 10.0177C39.8571 10.106 39.6707 10.0839 39.561 9.95154C39.4732 9.84121 39.4732 9.69778 39.4513 9.58746C39.4513 9.20131 39.5171 8.8262 39.6158 8.46212C39.6378 8.37386 39.6816 8.2525 39.7036 8.16424C39.6816 8.2525 39.6378 8.35179 39.6158 8.46212L39.6378 8.48419L39.6268 8.47315ZM37.9378 13.6806C37.7513 13.6806 37.5539 13.6365 37.3674 13.6144C37.2797 13.6144 37.181 13.6144 37.0713 13.5923C36.9835 13.5923 36.8629 13.5703 36.7532 13.6144C36.7971 13.6144 36.841 13.5923 36.9177 13.6144C37.2577 13.6365 37.5977 13.6806 37.9487 13.7027V13.6806H37.9378ZM37.0932 1.72113C36.8848 1.72113 36.6545 1.72113 36.479 1.7432C36.6874 1.72113 36.8848 1.72113 37.0932 1.72113ZM40.1752 9.78605C40.1752 9.78605 40.1533 9.91844 40.0874 10.0177C40.0436 10.0839 39.9229 10.1281 39.8571 10.1501C39.7913 10.1501 39.6707 10.1501 39.6049 10.106C39.5171 10.0619 39.4952 9.9736 39.4403 9.89637C39.3965 9.76398 39.3745 9.64262 39.3745 9.51023C39.3745 8.52832 39.901 7.6788 40.1533 6.79618C40.2849 6.35487 40.3616 5.90253 40.3178 5.46122C40.2739 5.01991 40.1313 4.56757 39.9339 4.17039C39.4952 3.38707 38.7494 2.81337 37.9268 2.58168C38.4094 2.69201 38.9029 2.96783 39.3197 3.36501C39.7255 3.72909 39.9997 4.21453 40.1642 4.60067C39.6158 3.08919 37.861 2.14037 36.2597 2.53755C36.3694 2.51549 36.49 2.49342 36.5997 2.49342C36.0952 2.55962 35.5906 2.72511 35.1629 3.00093C34.7242 3.27674 34.3403 3.64082 34.088 4.08213C34.5706 3.29881 35.3713 2.72511 36.2597 2.54859C35.8539 2.61478 35.4371 2.78027 35.0093 3.07816C35.2397 2.8906 35.6016 2.71408 35.9855 2.57065C36.4681 2.43826 36.9945 2.38309 37.4661 2.46032C36.6874 2.35 35.8648 2.50445 35.2506 2.84647C35.7332 2.57065 36.3035 2.40516 36.8958 2.38309C37.4661 2.38309 38.0365 2.49342 38.5629 2.74717C38.0145 2.47136 37.3784 2.33896 36.7423 2.36103C38.1571 2.2507 39.6158 3.07816 40.1862 4.40208C39.8681 3.71805 39.2978 3.08919 38.5629 2.74717C39.5171 3.23261 40.23 4.17039 40.3836 5.2516C40.4713 5.78117 40.3836 6.33281 40.252 6.84031C40.0874 7.36988 39.8681 7.85532 39.7036 8.37386C39.7913 8.12011 39.9339 7.84429 40.0216 7.59054C39.9778 7.70086 39.9339 7.82222 39.89 7.93255C39.8681 7.99875 39.8242 8.09804 39.8023 8.1863L39.7584 8.29663V8.23043C39.6926 8.44005 39.6268 8.67174 39.572 8.8924C39.5171 9.11305 39.3636 10.0839 39.8242 9.99567C40.1423 9.95154 39.9887 9.4661 40.0326 9.19028C40.1971 7.93255 41.1513 6.80721 40.9429 5.32883C40.7565 3.94974 40.0107 3.01196 39.1223 2.43826C38.3655 1.95282 37.4552 1.75423 36.501 1.86456C36.2706 1.88662 36.0403 1.93075 35.821 1.99695C35.9306 1.95282 36.0074 1.93075 36.0293 1.93075C36.1171 1.88662 35.6455 1.95282 35.0532 2.27277C34.4609 2.57065 33.8687 3.14435 33.5726 3.62979C33.6164 3.55624 33.6713 3.47166 33.7371 3.37604C33.6493 3.48637 33.5725 3.62979 33.5067 3.71805C33.6384 3.44223 34.0113 3.00093 34.1209 2.8906C34.0551 2.9568 33.9893 3.00093 33.9126 3.07816C34.1648 2.78027 34.5706 2.41619 35.0532 2.16244C35.5358 1.88662 36.0842 1.75423 36.4681 1.677C35.5358 1.80939 34.5487 2.29483 33.8467 3.10022C33.1338 3.92767 32.75 5.07508 32.8377 6.24454C32.8816 6.81825 33.09 7.39195 33.408 7.89945C33.7261 8.40696 34.1648 8.7931 34.5706 9.21234C34.9764 9.59849 35.4371 9.9736 35.6674 10.4701C35.7332 10.6025 35.7551 10.7459 35.8977 10.8783C36.0622 11.0438 36.3364 10.9886 36.4242 10.79C36.49 10.5804 36.4242 10.448 36.3803 10.2825C36.3364 10.1501 36.2706 10.0067 36.1719 9.89637C35.8319 9.34474 35.3274 8.95859 34.8887 8.56141C34.45 8.17527 34.0661 7.73396 33.8358 7.22646C33.3751 6.21145 33.5177 5.04198 34.0442 4.19246C34.1319 4.02697 34.3184 3.75115 34.5706 3.50843C34.8229 3.25468 35.141 3.02299 35.4371 2.8906C35.9635 2.63685 36.5339 2.52652 37.1042 2.57065C37.6745 2.61478 38.2229 2.80234 38.7055 3.12229C39.7145 3.76218 40.3068 5.00888 40.0984 6.20041C40.0107 6.79618 39.7584 7.39195 39.5062 8.00978C39.3965 8.32973 39.2758 8.67174 39.232 9.04685C39.21 9.23441 39.1881 9.41093 39.21 9.62055C39.21 9.73088 39.21 9.83018 39.2758 9.96257C39.2978 10.0288 39.3416 10.095 39.4074 10.1722C39.4732 10.2384 39.5939 10.2825 39.6816 10.2825C39.8133 10.2825 39.9558 10.2605 40.0874 10.1501C40.1971 10.0398 40.2191 9.89637 40.2191 9.80811V9.48816C40.2191 9.48816 40.2191 9.4661 40.2191 9.57642C40.2191 9.64262 40.2191 9.70882 40.1971 9.87431C40.1971 9.9405 40.1533 10.0619 40.0107 10.1501C39.8681 10.2384 39.7584 10.2605 39.6049 10.2163C39.4732 10.1722 39.3745 10.0508 39.3526 9.96257C39.3087 9.87431 39.3087 9.77501 39.2868 9.68675V9.22338C39.3087 8.92549 39.3965 8.62761 39.4952 8.35179C39.6816 7.80016 39.9339 7.27059 40.0874 6.74102C40.0436 6.85134 39.8791 7.35885 39.7694 7.59054C39.9997 6.9727 40.1752 6.44313 40.2081 5.86943C40.2081 6.03492 40.1862 6.16732 40.1642 6.33281C40.23 5.86943 40.23 5.41709 40.0984 4.95372C39.912 4.29175 39.4842 3.66289 38.9139 3.23261C38.4752 2.93473 38.0474 2.74717 37.3345 2.61478C38.2449 2.72511 39.1332 3.23261 39.6816 4.01594C40.23 4.79926 40.3945 5.8253 40.0874 6.75205C39.8791 7.49124 39.5171 8.1532 39.3526 8.91446C39.3526 9.02479 39.3087 9.12408 39.3087 9.23441C39.3087 9.12408 39.3307 9.00272 39.3526 8.91446C39.3745 8.78207 39.4184 8.63864 39.4623 8.52832C39.3745 8.8262 39.2978 9.12408 39.2978 9.42197C39.2978 9.58746 39.2978 9.76398 39.3636 9.95154C39.4074 10.0398 39.4952 10.1832 39.6597 10.2053C39.7913 10.2053 39.912 10.2053 40.0216 10.095C40.2081 9.86327 40.1313 9.68675 40.1533 9.52126C40.1533 9.35577 40.1533 9.24544 40.1752 9.07995C40.2191 8.78207 40.3068 8.50625 40.4274 8.20837C40.2629 8.59451 40.1094 9.03582 40.1313 9.44403V9.80811L40.1752 9.76398V9.78605ZM43.323 8.17527C43.2133 8.13114 43.0926 8.06494 42.961 8.04288H43.0049C43.1146 8.08701 43.2133 8.10907 43.323 8.1532V8.17527ZM43.1913 4.73306C43.301 4.711 43.4436 4.68893 43.5533 4.66687H43.5094C43.5094 4.66687 43.2791 4.711 43.1913 4.73306ZM43.992 4.47931C43.992 4.47931 43.7836 4.56757 43.6739 4.58964C43.7836 4.56757 43.9043 4.54551 43.992 4.47931ZM44.3101 4.45724C44.3101 4.45724 44.3759 4.34692 44.3759 4.26969C44.3759 4.19246 44.3759 4.1373 44.332 4.038C44.332 4.08213 44.3759 4.20349 44.332 4.22556C44.332 4.31382 44.2881 4.45724 44.2223 4.50138C44.1565 4.54551 44.0907 4.58964 44.0359 4.6117C43.9262 4.65583 43.7836 4.69996 43.6739 4.72203C43.7617 4.72203 43.8384 4.6779 43.9043 4.65583C43.992 4.65583 44.0907 4.6117 44.2004 4.54551C44.2443 4.50138 44.3101 4.47931 44.3649 4.41311C44.3868 4.39105 44.3868 4.32485 44.4088 4.30279V4.21452V4.40208C44.4088 4.40208 44.3649 4.46828 44.343 4.49034L44.321 4.46828L44.3101 4.45724ZM31.2583 7.76706C31.2583 7.76706 31.39 7.70086 31.2583 7.70086C31.1267 7.70086 30.9841 7.70086 30.8745 7.74499H30.9841C30.8964 7.76706 30.8196 7.81119 30.7319 7.83326C30.7977 7.83326 30.8635 7.81119 30.9183 7.78912C30.7538 7.83326 30.5783 7.87739 30.3919 7.89945C30.3261 7.89945 30.2822 7.96565 30.1616 7.96565C30.4138 7.89945 30.6441 7.80016 30.8745 7.75603C30.8745 7.75603 31.0609 7.7119 31.1706 7.68983H31.0829C31.2145 7.6457 31.379 7.62363 31.5216 7.60157C31.2912 7.60157 31.0829 7.6457 30.8854 7.68983C30.688 7.73396 30.4467 7.82222 30.2493 7.85532C30.359 7.81119 30.5235 7.81119 30.6332 7.74499C30.4467 7.78912 30.2493 7.85532 30.0409 7.87739H30.0848H29.8545C29.8545 7.87739 29.7667 7.85532 29.7228 7.81119C29.7009 7.78912 29.679 7.76706 29.657 7.74499C29.7009 7.78912 29.7667 7.85532 29.8216 7.87739C29.8874 7.89945 29.9532 7.87739 30.0299 7.87739C29.9641 7.87739 29.9203 7.87739 29.8216 7.85532H30.1835H29.8654C30.0299 7.85532 30.1616 7.85532 30.3041 7.81119C30.2383 7.81119 30.1396 7.83326 30.0738 7.83326H29.8654C29.7996 7.83326 29.7338 7.78912 29.679 7.72293C29.679 7.72293 29.6351 7.6126 29.679 7.53537C29.679 7.46918 29.7448 7.44711 29.7886 7.42504C29.7886 7.42504 29.7667 7.42504 29.7886 7.40298C29.8764 7.31472 30.019 7.31472 30.1506 7.23749C30.1725 7.23749 30.2383 7.23749 30.2822 7.21542H30.4467H30.337H30.359C30.1725 7.25955 29.9751 7.28162 29.7886 7.42504H29.8325C29.8325 7.42504 29.7886 7.42504 29.7886 7.44711C29.7448 7.49124 29.7009 7.55744 29.7009 7.63467V7.56847C29.7009 7.6788 29.7009 7.77809 29.7886 7.84429C29.8764 7.88842 29.9751 7.88842 30.0628 7.88842C30.2493 7.86635 30.4028 7.82222 30.5674 7.77809C30.4796 7.82222 30.3809 7.84429 30.2932 7.86635C30.5454 7.82222 30.7977 7.73396 31.0499 7.6788H30.9403H31.028C31.4119 7.6126 32.059 7.5464 32.0809 7.29265C32.0809 7.1051 31.9932 7.0389 31.8287 7.01683H31.7409C31.7409 7.01683 31.7629 7.01683 31.7629 6.99477C31.7848 6.92857 31.5106 6.99477 31.4009 7.0389C31.3241 7.072 31.3351 7.072 31.4229 7.0389C31.5545 6.99477 31.4009 7.0389 31.379 7.0389C31.4009 7.0389 31.4667 6.99477 31.4887 6.9727H31.4667C31.4667 6.9727 31.719 6.86238 31.8506 6.86238C31.6861 6.86238 31.5764 6.92857 31.4448 6.95064C31.3351 6.99477 31.1925 7.01683 31.0609 7.06097C30.7867 7.12716 30.5345 7.19336 30.2603 7.22646C30.0957 7.22646 29.9641 7.27059 29.7996 7.31472C29.7338 7.33678 29.6351 7.38091 29.5474 7.48021C29.4596 7.5795 29.4596 7.75603 29.4815 7.84429C29.4815 7.84429 29.4815 7.88842 29.5035 7.91048C29.5035 7.91048 29.5035 7.93255 29.5254 7.95462C29.5254 7.97668 29.5693 7.99875 29.5912 8.02081C29.679 8.10907 29.7996 8.10907 29.8435 8.10907C30.0519 8.13114 30.2054 8.10907 30.3699 8.10907C30.5345 8.08701 30.688 8.04288 30.8306 7.99875C30.9622 7.95462 31.1048 7.93255 31.2693 7.91048L31.2912 7.77809L31.2583 7.76706ZM41.8423 4.81029C41.8423 4.81029 41.7984 4.69996 41.8423 4.62274C41.8423 4.55654 41.9081 4.53447 41.93 4.51241C41.93 4.51241 41.9081 4.51241 41.93 4.49034C42.0178 4.40208 42.1823 4.38002 42.292 4.32485C42.3139 4.32485 42.3797 4.32485 42.4236 4.30279H42.5552H42.4455H42.4675C42.281 4.34692 42.0836 4.36898 41.8971 4.51241H41.941C41.941 4.51241 41.8971 4.51241 41.8752 4.53447C41.8313 4.5786 41.7875 4.6448 41.7875 4.72203V4.65583C41.7875 4.76616 41.7875 4.86546 41.8752 4.93165C41.9629 4.97578 42.0617 4.97578 42.1494 4.97578C42.3359 4.95372 42.4894 4.90959 42.6539 4.84339C42.5662 4.88752 42.4675 4.90959 42.3797 4.93165C42.632 4.88752 42.8842 4.79926 43.1365 4.72203H43.0268H43.1146C43.5533 4.63377 44.1455 4.55654 44.1675 4.33588C44.1675 4.14833 44.0797 4.08213 43.9152 4.06007H43.8275C43.8275 4.06007 43.8494 4.06007 43.8494 4.038C43.8494 3.97181 43.5972 4.038 43.4875 4.08213C43.4107 4.11523 43.4217 4.11523 43.5094 4.08213C43.641 4.038 43.4875 4.08213 43.4655 4.08213C43.4875 4.08213 43.5533 4.038 43.5752 4.01594H43.5533C43.5533 4.01594 43.7836 3.90561 43.9372 3.88354C43.7507 3.88354 43.663 3.94974 43.5313 3.97181C43.4217 4.01594 43.2791 4.038 43.1475 4.08213C42.8733 4.14833 42.621 4.19246 42.3468 4.24762C42.1823 4.24762 42.0507 4.29175 41.8862 4.33588C41.8204 4.35795 41.7217 4.40208 41.6339 4.50138C41.5462 4.58964 41.5462 4.77719 41.5681 4.86546C41.5681 4.86546 41.5681 4.90959 41.59 4.93165C41.59 4.93165 41.59 4.95372 41.612 4.97578C41.612 4.99785 41.6558 5.01991 41.6778 5.04198C41.7655 5.13024 41.8862 5.13024 41.93 5.15231C42.1604 5.17437 42.292 5.15231 42.4565 5.15231C42.621 5.13024 42.7746 5.08611 42.9171 5.04198C43.0488 4.99785 43.1913 4.97578 43.3559 4.93165C43.4217 4.93165 43.4875 4.86546 43.3559 4.86546C43.2242 4.86546 43.0817 4.88752 42.972 4.93165H43.0817C42.9939 4.95372 42.9171 4.99785 42.8294 5.01991C42.8952 5.01991 42.961 4.99785 43.0159 4.97578C42.8513 5.01991 42.6978 5.06404 42.4894 5.08611C42.4236 5.08611 42.3797 5.15231 42.2591 5.15231C42.5113 5.08611 42.7417 4.98682 42.972 4.94268C42.972 4.94268 43.1584 4.89855 43.2681 4.87649H43.1804C43.312 4.83236 43.4765 4.81029 43.6191 4.76616C43.4107 4.76616 43.1804 4.81029 42.983 4.85442C42.7855 4.89855 42.5442 4.98682 42.3468 5.01991C42.4565 4.97578 42.621 4.97578 42.7088 4.90959C42.5223 4.95372 42.3249 5.01991 42.1165 5.04198H42.1604H41.93C41.93 5.04198 41.8423 5.01991 41.7984 4.97578C41.7765 4.95372 41.7546 4.93165 41.7546 4.90959C41.7984 4.95372 41.8642 5.01991 41.9191 5.04198C42.0068 5.06404 42.0507 5.04198 42.1275 5.04198C42.0617 5.04198 42.0178 5.04198 41.9191 5.01991H42.281H41.9629C42.1275 5.01991 42.2591 5.01991 42.4017 4.97578C42.3359 4.97578 42.2371 4.99785 42.1713 4.99785H41.9629C41.8971 4.99785 41.7984 4.93165 41.7765 4.88752L41.8642 4.82132L41.8423 4.81029ZM43.663 8.20837C43.663 8.20837 43.6849 8.20837 43.7068 8.23043C43.7068 8.23043 43.6849 8.23043 43.663 8.20837C43.641 8.20837 43.5972 8.16424 43.5752 8.16424C43.641 8.20837 43.7068 8.23043 43.7836 8.27456C43.8713 8.34076 43.9701 8.44005 44.0139 8.59451C44.0139 8.72691 44.1017 8.84826 43.9262 9.00272C43.9701 8.95859 43.992 8.8924 44.0139 8.83723V8.67174C44.0139 8.56141 43.9481 8.46212 43.8823 8.39592C43.7726 8.2856 43.6301 8.20837 43.5204 8.16424C43.5204 8.16424 43.312 8.07598 43.2242 8.03184C43.2462 8.03184 43.2901 8.05391 43.312 8.07598C43.1475 8.03184 43.0159 7.98771 42.8733 7.94358C43.0378 8.05391 43.2572 8.13114 43.4655 8.2194C43.5752 8.26353 43.6739 8.32973 43.7836 8.42902C43.8275 8.47315 43.8714 8.53935 43.8933 8.61658C43.9152 8.70484 43.8933 8.78207 43.8933 8.84826C43.8933 8.76 43.9152 8.66071 43.8933 8.57245C43.8494 8.48419 43.8055 8.44005 43.7288 8.40696C43.7946 8.47315 43.9152 8.57245 43.9152 8.7269C43.9152 8.7931 43.9152 8.8593 43.8494 8.93653C43.8055 9.00272 43.7178 9.02479 43.641 9.02479H43.7068C43.5204 9.06892 43.3888 9.00272 43.2681 8.95859C43.3778 9.00272 43.4984 9.02479 43.6301 9.02479C43.5642 9.02479 43.4984 9.02479 43.4217 9.00272H43.5862C43.652 9.00272 43.7726 9.00272 43.8384 8.8924C43.7288 9.02479 43.5643 8.98066 43.4984 8.95859H43.7288C43.8165 8.91446 43.8384 8.8262 43.8604 8.74897C43.8604 8.83723 43.7946 8.93653 43.6959 8.95859C43.5643 9.00272 43.4217 8.95859 43.312 8.91446H43.2901C43.2901 8.91446 43.2023 8.87033 43.1584 8.84826C43.1146 8.84826 43.0926 8.80413 43.0488 8.78207C42.9391 8.76 42.8184 8.67174 42.6868 8.64968C42.6429 8.64968 42.621 8.62761 42.5771 8.60555H42.5333C42.5333 8.60555 42.4894 8.56141 42.4675 8.56141C42.4894 8.56141 42.5113 8.58348 42.5333 8.60555C42.7197 8.67174 42.8952 8.73794 43.0817 8.83723C43.0817 8.83723 43.0597 8.83723 43.0597 8.81517H43.1036C43.1036 8.81517 43.2133 8.90343 43.2901 8.92549C43.2901 8.92549 43.2681 8.92549 43.2462 8.90343C43.4107 8.96962 43.5862 9.06892 43.7946 9.03582C43.9043 9.01375 43.9262 8.90343 43.9262 8.80413C43.9262 8.70484 43.8604 8.63864 43.7946 8.57245C43.8604 8.61658 43.9591 8.70484 43.9591 8.8262C43.9591 8.66071 43.8494 8.55038 43.7288 8.48419C43.6191 8.41799 43.4984 8.35179 43.3668 8.31869C43.3888 8.31869 43.4107 8.36283 43.4326 8.38489H43.3668C43.2023 8.31869 43.0707 8.27456 42.983 8.2525C42.5442 8.06494 42.3249 7.93255 41.952 7.84429H41.8204L41.8423 7.82222C41.8423 7.82222 41.7984 7.80016 41.7107 7.84429C41.6229 7.88842 41.601 8.03184 41.6229 8.09804V8.07598V8.12011C41.6229 8.12011 41.601 8.00978 41.5791 7.95462V7.99875C41.5791 7.93255 41.601 7.81119 41.6887 7.74499C41.7546 7.6788 41.8533 7.65673 41.8971 7.63467C41.8313 7.63467 41.7655 7.6788 41.6887 7.72293C41.612 7.76706 41.5571 7.88842 41.5571 7.97668C41.5571 8.06494 41.601 8.16424 41.6449 8.23043C41.7107 8.29663 41.7765 8.34076 41.8533 8.36283C42.1275 8.47315 42.3578 8.59451 42.61 8.70484C42.8842 8.83723 43.1146 8.98066 43.323 9.14615C43.3668 9.16821 43.4875 9.21234 43.5972 9.23441C43.6849 9.23441 43.8275 9.27854 43.981 9.19028C44.0688 9.14615 44.1126 9.05789 44.1455 8.98066C44.1455 8.91446 44.1894 8.84826 44.1894 8.74897C44.1675 8.56141 44.0578 8.45109 43.981 8.38489C43.8933 8.31869 43.8165 8.27456 43.7288 8.2194C43.5642 8.13114 43.4107 8.08701 43.2462 8.00978C43.1804 7.98771 43.0817 8.00978 43.2462 8.07598C43.3559 8.14217 43.4984 8.1863 43.6301 8.26353C43.6301 8.26353 43.5643 8.2194 43.5423 8.19733C43.6301 8.2194 43.7068 8.26353 43.7726 8.30766L43.7068 8.19733L43.663 8.20837ZM33.7371 10.1832C33.7371 10.1832 33.7151 10.2274 33.6932 10.2494C33.6932 10.2053 33.7371 10.1832 33.759 10.1391V10.1832H33.7371ZM33.759 9.86327V10.0508C33.6493 10.3487 33.4629 10.5142 33.3532 10.7128C33.4409 10.6687 33.4409 10.6025 33.4848 10.5473C33.5726 10.437 33.6932 10.3377 33.759 10.2053C33.7809 10.1612 33.8029 10.117 33.8248 10.0177V10.0839V9.85224H33.759V9.86327ZM36.3584 12.6876C36.6326 12.7759 36.8848 12.7538 37.0932 12.7759C37.2577 12.7759 37.499 12.7538 37.0932 12.7097C36.9068 12.7097 36.7313 12.7097 36.501 12.6435C36.3913 12.6215 36.2706 12.5773 36.161 12.456C36.1171 12.4118 36.0952 12.3456 36.0732 12.2684C36.1171 12.4008 36.2377 12.5442 36.3474 12.5663C36.5119 12.6325 36.6655 12.6546 36.83 12.6546C36.7423 12.6546 36.6435 12.6546 36.5558 12.6104C36.7861 12.6546 36.9945 12.6325 37.1919 12.6325C37.3784 12.6325 37.5758 12.6546 37.7842 12.6766C37.4881 12.6325 37.2139 12.5884 36.9177 12.5884C36.7532 12.5884 36.5997 12.5884 36.4352 12.5222C36.3474 12.5001 36.2487 12.456 36.1829 12.3346C36.1171 12.2463 36.0952 12.1029 36.1829 11.9926C36.3474 11.783 36.501 11.783 36.6655 11.7388C36.83 11.6947 36.9616 11.6726 37.1042 11.6506C37.4003 11.5844 37.6745 11.5182 37.9707 11.441C37.6526 11.5292 37.2358 11.6064 36.9616 11.6947C37.4881 11.5844 37.9926 11.441 38.5081 11.3306H38.3984C38.7165 11.2644 39.0784 11.1982 39.4074 11.0989C39.1113 11.1872 38.8152 11.2644 38.519 11.3306C38.6507 11.3086 38.7932 11.2644 38.9797 11.2424C38.892 11.2644 38.7494 11.3086 38.6397 11.3527C38.4532 11.3968 38.2997 11.441 38.1132 11.463C38.3874 11.3968 38.6397 11.3527 38.892 11.2975L37.7952 11.5733L38.3874 11.441C38.7274 11.3527 39.0674 11.2755 39.3965 11.1872H39.3526H39.4184C39.55 11.1431 39.6926 11.121 39.8242 11.0769C39.9339 11.0548 40.0765 11.0327 40.2081 11.0548H40.2739C40.4823 11.0769 40.5481 11.4189 40.3616 11.5402C40.1971 11.6506 40.0216 11.6726 39.8352 11.7499C39.7474 11.7719 39.6049 11.794 39.4732 11.8161H39.3087C39.2429 11.8161 39.1771 11.8381 39.0784 11.8602C39.1442 11.8602 39.21 11.8381 39.3087 11.8161C39.561 11.7499 39.8132 11.7278 40.0874 11.6506C40.1971 11.6064 40.3616 11.5623 40.4274 11.4189C40.4933 11.2865 40.4274 11.0769 40.241 11.0548C40.2629 11.0548 40.3068 11.0989 40.3287 11.0989C40.2849 11.0548 40.2191 11.0548 40.1642 11.0327C39.9778 11.0327 39.8023 11.0548 39.6378 11.0989H39.7694C39.2868 11.2313 38.8152 11.3527 38.3326 11.463C37.8719 11.5733 37.4442 11.6947 36.9835 11.805C37.2139 11.7388 37.4661 11.6726 37.7403 11.5954C37.4003 11.6616 37.0603 11.7609 36.7094 11.8271C36.5448 11.8712 36.3474 11.8933 36.2048 12.0588C36.161 12.147 36.2048 12.2905 36.2487 12.3567C36.3145 12.4229 36.4132 12.4449 36.501 12.467C36.4352 12.467 36.3364 12.4008 36.2706 12.3346C36.2926 12.3567 36.3145 12.3787 36.3584 12.4008C36.3584 12.4008 36.4023 12.4008 36.4242 12.4229H36.4681C36.6984 12.4891 37.0384 12.467 37.2248 12.4891C38.2997 12.5773 39.0236 12.6766 40.1204 12.7649C40.3068 12.7649 40.5262 12.8311 40.6468 12.6546C40.6687 12.5663 40.6468 12.4891 40.6249 12.4229C40.6468 12.4449 40.6687 12.467 40.6687 12.4891C40.6687 12.4891 40.6907 12.4891 40.6687 12.4008C40.6249 12.3346 40.5371 12.2905 40.4165 12.2684C40.1862 12.2243 39.9339 12.2243 39.7584 12.2022C39.6378 12.1912 39.6707 12.1912 39.8462 12.2022C40.1204 12.2243 39.7584 12.2022 39.7145 12.2022H40.0545H39.9668C40.0765 12.1801 40.2629 12.1581 40.4713 12.2022C40.5591 12.2022 40.7016 12.2684 40.7674 12.3898C40.8333 12.5001 40.8333 12.6435 40.8113 12.7097C40.8113 12.6215 40.8113 12.478 40.7455 12.3677C40.6578 12.2574 40.5371 12.2353 40.4713 12.2022C40.2849 12.1581 40.1313 12.1801 39.9449 12.1581C39.6049 12.1581 39.232 12.1139 38.87 12.0919H38.5739C38.8481 12.0257 39.1442 11.9816 39.3965 11.9043C39.6049 11.8823 39.7803 11.8602 39.9887 11.794C40.0765 11.7719 40.1971 11.7499 40.2849 11.6837C40.3287 11.6616 40.3945 11.6175 40.4494 11.5513C40.4933 11.4851 40.5152 11.3637 40.4933 11.3196C40.4933 11.2534 40.4713 11.1541 40.4055 11.0879C40.3397 11.0217 40.2739 10.9776 40.1971 10.9776C40.0655 10.9334 39.9668 10.9555 39.8571 10.9776C39.6487 10.9776 39.4732 11.0438 39.3087 11.0658C39.1771 11.11 38.9029 11.1762 38.6726 11.2313C38.2887 11.3196 37.8939 11.3968 37.51 11.463L36.8958 11.5954C36.6874 11.6395 36.5119 11.6616 36.2377 11.783C36.1719 11.805 36.1061 11.8492 36.0074 11.9485C35.9197 12.0147 35.8758 12.2022 35.8977 12.3125C35.8977 12.4229 35.9635 12.5442 36.0623 12.6104C36.1281 12.6766 36.2268 12.7207 36.2926 12.7428L36.3584 12.6987V12.6876ZM33.1887 10.7128H33.1667C33.1009 10.8231 33.0351 10.9224 32.9584 11.0107C33.0242 10.9224 33.1448 10.8231 33.1887 10.7128ZM32.4319 11.6726C32.4319 11.6726 32.6403 11.463 32.6842 11.3748C32.5525 11.5071 32.4538 11.6947 32.2235 11.8161H32.2674C32.2674 11.8161 32.1029 11.8823 31.9932 11.8381C31.8835 11.794 31.8287 11.7278 31.7848 11.6285C31.8287 11.6947 31.8725 11.7609 31.9493 11.8161C32.0371 11.8602 32.1577 11.8381 32.2016 11.8161C32.1358 11.8161 32.0371 11.8602 31.9493 11.8161H32.1577C32.2454 11.794 32.2893 11.7499 32.3661 11.7057C32.2783 11.7719 32.1796 11.8381 32.048 11.8161C32.2564 11.8161 32.3442 11.6837 32.4319 11.5844C32.388 11.6285 32.3222 11.6947 32.2454 11.7499C32.2016 11.794 32.1358 11.8161 32.0371 11.8161C31.9383 11.8161 31.9054 11.7278 31.8725 11.6837C31.8725 11.6837 31.8506 11.5733 31.8725 11.4961C31.8725 11.452 31.9164 11.4079 31.9383 11.3637V11.3417C31.9822 11.2313 32.1029 11.1541 32.1687 11.0438C32.1687 11.0217 32.2125 10.9776 32.2564 10.9555H32.2783C32.2783 10.9555 32.3222 10.8893 32.3442 10.8673C32.3442 10.8673 32.3003 10.9114 32.2783 10.9334H32.3003C32.1906 11.0658 32.048 11.2313 31.9383 11.3968C31.9383 11.3968 31.9603 11.3968 31.9603 11.3748C31.9603 11.3748 31.9383 11.3968 31.9164 11.4189C31.8725 11.463 31.8506 11.5292 31.8506 11.6285V11.5844C31.8287 11.6726 31.8506 11.794 31.9383 11.8602C32.0042 11.9485 32.1467 11.9043 32.2345 11.8602C32.3661 11.7499 32.4867 11.6064 32.5745 11.474C32.5306 11.5402 32.4867 11.6395 32.41 11.7057C32.5964 11.5182 32.75 11.3196 32.9145 11.11C32.8925 11.11 32.8487 11.1541 32.8267 11.1541L32.8487 11.132V11.11C32.9803 10.9445 33.1229 10.768 33.2545 10.6245C33.3861 10.459 33.8467 9.98463 33.3422 9.96257H33.2545L33.2764 9.9405C33.2764 9.9405 33.2106 9.9405 33.1448 9.98463C33.079 10.0288 33.0351 10.117 32.9803 10.1722C32.9474 10.2053 32.9474 10.1832 32.9803 10.1281C33.0242 10.0398 32.9803 10.1722 32.9584 10.1722C32.9584 10.1281 33.0022 10.0839 33.0022 10.0619H32.9803C32.9803 10.0619 33.0242 9.9736 33.09 9.89637C33.1558 9.81914 33.2545 9.78605 33.3422 9.78605C33.1338 9.78605 33.0242 9.9736 32.9584 10.0619C32.8925 10.1722 32.8267 10.2715 32.728 10.3818C32.5416 10.5914 32.3442 10.768 32.1577 10.9776C32.048 11.0879 31.9493 11.1872 31.8396 11.2755C31.7958 11.3196 31.73 11.3858 31.6751 11.4851C31.6312 11.5513 31.5874 11.6947 31.6312 11.8271C31.6312 11.8712 31.6751 11.9374 31.719 12.0147C31.7629 12.0808 31.8835 12.147 31.9932 12.147C32.1796 12.147 32.2674 12.0808 32.3551 12.0367C32.4429 11.9926 32.4867 11.9264 32.5635 11.8712C32.7938 11.6395 32.9474 11.3858 33.1777 11.132C33.2216 11.0879 33.2435 10.9665 33.1338 11.0879C33.0461 11.1762 32.9474 11.2755 32.8596 11.3858C32.8596 11.3858 32.9035 11.3196 32.9474 11.3196C32.9035 11.4079 32.8377 11.4851 32.7609 11.5513L32.8925 11.3858C32.7829 11.5182 32.6622 11.6395 32.5525 11.7719C32.5087 11.8161 32.5087 11.9043 32.388 11.9595C32.5964 11.7499 32.7061 11.5513 32.8706 11.3637C32.8706 11.3637 33.0022 11.1982 33.079 11.132C33.079 11.1541 33.0351 11.1762 33.0132 11.1982C33.1009 11.0879 33.1996 10.9445 33.2874 10.8562C32.9693 11.132 32.7171 11.5182 32.399 11.8381V11.7057L32.4319 11.6726ZM30.9951 7.63467C31.1048 7.6126 31.2474 7.6126 31.357 7.56847H31.3132C31.3132 7.56847 31.0829 7.6126 30.9951 7.63467ZM39.0016 5.42812C39.0016 5.42812 39.0016 5.53845 38.9578 5.61568C38.9139 5.65981 38.87 5.68188 38.7932 5.70394C38.6836 5.74807 38.5629 5.63775 38.541 5.53845C38.4971 5.45019 38.4752 5.35089 38.4313 5.2847C38.4094 5.2185 38.3655 5.15231 38.3436 5.09714C38.3216 5.03095 38.2997 4.98682 38.2558 4.90959V4.88752C38.1461 4.75513 38.0474 4.6117 37.8939 4.50138C37.85 4.47931 37.8061 4.43518 37.7294 4.39105H37.6636C37.6636 4.39105 37.5977 4.32485 37.5758 4.32485C37.6197 4.32485 37.6416 4.34692 37.6636 4.36898H37.7074H37.6855C37.9158 4.47931 38.1461 4.68893 38.2778 4.92062V4.87649C38.2778 4.87649 38.2997 4.92062 38.3216 4.94268C38.3655 5.00888 38.4094 5.10818 38.4532 5.17437V5.10818C38.519 5.2185 38.5629 5.33986 38.6178 5.47225C38.6178 5.53845 38.6616 5.58258 38.7055 5.65981C38.7274 5.72601 38.8152 5.77014 38.9139 5.74807C38.9797 5.74807 39.0455 5.70394 39.0784 5.63775C39.1113 5.57155 39.0784 5.50535 39.0784 5.42812C39.0784 5.3178 39.0126 5.19644 38.9687 5.08611C39.0126 5.17437 39.0784 5.29573 39.1003 5.40606V5.47225L39.0126 5.42812H39.0016ZM36.0403 3.77322C36.0403 3.77322 36.0184 3.93871 36.0403 4.0049C36.0403 4.04903 36.0842 4.1373 36.15 4.19246C36.2158 4.23659 36.2816 4.23659 36.3364 4.23659H36.6326C36.9945 4.21452 37.4113 4.28072 37.7074 4.49034C38.0474 4.72203 38.2119 5.06404 38.2997 5.38399C38.3216 5.45019 38.3655 5.57155 38.4313 5.72601C38.4752 5.7922 38.519 5.91356 38.6836 5.95769C38.8481 6.00182 38.9578 5.95769 39.0236 5.91356C39.0455 5.91356 39.1113 5.86943 39.1552 5.80324C39.1991 5.73704 39.221 5.69291 39.2429 5.61568V5.36193C39.199 5.06404 39.0784 4.87649 38.9468 4.6448C38.8152 4.43518 38.6507 4.23659 38.4642 4.04903C38.3765 3.98284 38.2339 3.93871 38.4203 4.09317C38.5519 4.25866 38.6945 4.41311 38.8042 4.60067C38.8042 4.5786 38.7384 4.49034 38.7165 4.43518C38.8042 4.54551 38.9029 4.66687 38.9687 4.79926C38.9687 4.75513 38.9249 4.711 38.9029 4.68893C39.0126 4.87649 39.1113 5.05301 39.1552 5.30676C39.1552 5.35089 39.1771 5.41709 39.1991 5.49432C39.1991 5.56052 39.1991 5.70394 39.0345 5.81427C39.1223 5.74807 39.1442 5.62671 39.1661 5.56052V5.37296C39.1661 5.26263 39.1003 5.16334 39.0784 5.07508C39.0126 4.88752 38.9139 4.75513 38.8042 4.58964C38.7165 4.45724 38.6178 4.33588 38.5081 4.22556C38.53 4.26969 38.5739 4.29175 38.5958 4.33588C38.4313 4.17039 38.2558 4.01594 38.0474 3.89458C38.3216 4.08213 38.552 4.33588 38.7274 4.6117C38.8152 4.7441 38.892 4.90959 38.9578 5.05301C39.0016 5.2185 39.0894 5.35089 39.0455 5.58258C39.0674 5.32883 38.9797 5.11921 38.9139 4.98682C38.9797 5.11921 39.0236 5.26263 39.0455 5.42812C39.0455 5.49432 39.0455 5.61568 38.9578 5.70394C38.87 5.77014 38.7932 5.81427 38.6616 5.7922H38.7713C38.7055 5.7922 38.5849 5.7922 38.541 5.72601C38.4971 5.68188 38.4752 5.61568 38.4532 5.56052C38.4094 5.47225 38.3874 5.37296 38.3655 5.30676C38.4094 5.37296 38.4313 5.43916 38.4532 5.53845C38.4971 5.60465 38.519 5.72601 38.6616 5.7922C38.53 5.72601 38.4971 5.62671 38.4532 5.53845C38.4752 5.58258 38.519 5.64878 38.5849 5.72601C38.6287 5.77014 38.7494 5.7922 38.7932 5.77014C38.859 5.74807 38.881 5.72601 38.9578 5.68188C38.87 5.74807 38.7932 5.7922 38.6836 5.77014C38.5739 5.74807 38.519 5.65981 38.4971 5.58258C38.519 5.62671 38.541 5.67084 38.6068 5.71497C38.6726 5.75911 38.7384 5.73704 38.7932 5.71497C38.8371 5.71497 38.9029 5.67084 38.9249 5.60465C38.9468 5.56052 38.9468 5.49432 38.9468 5.43916V5.37296C38.881 5.00888 38.6945 4.68893 38.4423 4.43518C38.4423 4.47931 38.4861 4.52344 38.5081 4.56757C38.5081 4.56757 38.4861 4.52344 38.4642 4.50138C38.3545 4.36898 38.2119 4.22556 38.1023 4.15936C37.6965 3.83941 37.0713 3.65186 36.4352 3.75115H36.3255C36.3255 3.75115 36.3693 3.75115 36.3693 3.72909C36.3693 3.70702 36.3035 3.70702 36.1829 3.75115C36.139 3.75115 36.0732 3.83941 36.0732 3.91664C36.0732 3.99387 36.0952 4.04903 36.1171 4.1042L36.0732 4.06007C36.0732 4.06007 36.1171 4.1042 36.1171 4.12626C36.0513 4.08213 36.0293 3.99387 36.0074 3.93871V4.0049C36.0074 4.0049 35.9855 3.89458 36.0074 3.81735C36.0293 3.75115 36.0952 3.70702 36.1719 3.65186C36.2816 3.60773 36.3803 3.58566 36.4461 3.54153C36.3803 3.56359 36.2816 3.58566 36.1939 3.62979C36.15 3.65186 36.0842 3.69599 36.0293 3.76218H36.0074L36.0403 3.77322ZM33.4629 10.3377C33.4629 10.3377 33.3313 10.5252 33.2545 10.6135C33.3203 10.5252 33.3861 10.4259 33.4629 10.3377ZM38.7603 12.6766C38.4642 12.6766 38.1681 12.6325 37.85 12.6104C38.1461 12.6325 38.4642 12.6766 38.7603 12.6766ZM37.5319 12.6104H37.4223C37.1481 12.5663 36.8519 12.6104 36.5558 12.5442C36.8958 12.6104 37.2139 12.5884 37.5319 12.6104ZM40.7674 13.7578C40.5152 13.7137 40.2849 13.7358 40.1094 13.6916C39.1771 13.5813 38.2887 13.5261 37.2797 13.4158C37.0713 13.4158 36.7971 13.4158 37.2797 13.482C37.6855 13.5482 38.0803 13.5923 38.4861 13.6144C38.4423 13.6144 38.2339 13.5923 38.1461 13.5703C38.4423 13.5703 38.6945 13.6144 38.9907 13.6365L38.5081 13.5923C38.9687 13.6365 39.4842 13.6806 39.9887 13.7578C40.1971 13.7799 40.3287 13.7137 40.6468 13.7578C39.9339 13.7578 39.21 13.6916 38.4752 13.6254C38.1571 13.6034 37.861 13.5592 37.5429 13.5372C37.6307 13.5372 37.7513 13.5592 37.8171 13.5592C37.5868 13.5592 37.3565 13.5372 37.1371 13.5151H36.7532C36.5887 13.5372 36.4352 13.7468 36.4571 13.9233C36.4571 13.813 36.501 13.6475 36.6216 13.5813C36.7313 13.5151 36.83 13.493 36.9397 13.5151C37.1042 13.5151 37.2577 13.5592 37.4223 13.5813C37.7403 13.6254 38.0803 13.6475 38.4313 13.6916C39.0894 13.7578 39.7803 13.824 40.3945 13.8792C40.0326 13.9012 39.572 13.813 39.2539 13.813C39.55 13.8351 39.8462 13.8571 40.1423 13.8792H40.6029C40.7675 13.8792 40.921 13.8792 41.1075 14.0447C41.0636 14.0005 41.0197 13.9564 40.9758 13.9343C41.0855 13.9343 41.2281 14.0998 41.2281 14.2543C41.2281 14.3867 41.1623 14.508 41.0965 14.5963C40.9649 14.7839 40.8004 14.8942 40.6578 15.0045C40.6358 15.0045 40.6139 15.0486 40.57 15.0707L40.6578 15.0045C40.7894 14.8942 40.932 14.7728 41.0416 14.6404C41.1075 14.5742 41.1513 14.4749 41.1733 14.3867C41.2171 14.2984 41.1952 14.1329 41.1075 14.0447C41.1952 14.1329 41.1952 14.2764 41.1733 14.3646C41.1513 14.4749 41.0855 14.5522 41.0087 14.6404C41.0526 14.5522 41.1952 14.4088 41.1404 14.1771C41.1184 14.0116 40.9539 13.9674 40.8662 13.9233C40.7565 13.9012 40.6578 13.8792 40.5481 13.8792C40.7126 13.8792 40.8662 13.8792 41.0307 14.0116C41.0965 14.0557 41.1404 14.1771 41.1404 14.2653C41.1404 14.3536 41.0965 14.4308 41.0526 14.497C41.0965 14.4088 41.1623 14.2874 41.1184 14.155C41.0746 14.0226 40.932 13.9895 40.8223 13.9454C40.6139 13.9012 40.3836 13.9233 40.1862 13.9012C40.4165 13.9012 40.6468 13.9012 40.8662 13.9674C40.9539 13.9895 41.0746 14.0557 41.0965 14.1771C41.1184 14.2984 41.0746 14.4088 41.0307 14.4749C40.921 14.6404 40.7565 14.7728 40.6249 14.8832H40.6687L40.6029 14.9052C40.4933 14.9935 40.3507 15.0928 40.2191 15.181C40.1094 15.2472 39.9668 15.3134 39.8571 15.3686H39.7913C39.7913 15.3686 39.8571 15.3686 39.7913 15.4127C39.4513 15.5451 39.0565 15.6224 38.6507 15.6885H38.0584C38.0584 15.6885 37.8939 15.6444 37.8061 15.6444C37.8939 15.6444 37.9707 15.6665 38.0584 15.6885C38.6287 15.7547 39.2429 15.6444 39.7913 15.4348C39.7474 15.4348 39.7036 15.4569 39.6816 15.4569C39.7474 15.4569 39.7913 15.4127 39.8462 15.4127C40.0326 15.3465 40.1862 15.2252 40.3726 15.1369C40.3287 15.159 40.2849 15.181 40.241 15.2031C40.4713 15.0707 40.7016 14.8832 40.8991 14.6956C40.9868 14.6073 41.1075 14.486 41.1513 14.3536C41.1513 14.2874 41.1513 14.1881 41.1294 14.1219C41.0855 14.0557 41.0197 14.0336 40.9429 14.0116C40.6687 13.9454 40.4165 13.9674 40.1642 13.9674C39.912 13.9674 39.6597 13.9233 39.3855 13.9012C39.6597 13.9012 39.9558 13.9233 40.23 13.9454C39.4513 13.8792 38.6836 13.7799 37.9048 13.7358C37.9926 13.7358 38.1132 13.7799 38.201 13.802H37.9268H37.9707C37.6087 13.7578 37.2577 13.7358 36.9945 13.7137C36.83 13.7137 36.6545 13.7799 36.6764 13.9674C36.6984 14.2653 37.2248 14.2653 37.499 14.2874C38.4313 14.3757 39.4842 14.4529 40.3287 14.5191C40.2191 14.6846 40.0107 14.817 39.7584 14.9273C39.7803 14.9273 39.8023 14.8832 39.8242 14.8832C39.8242 14.839 39.6926 14.9273 39.4842 14.9935C39.2539 15.0597 38.9797 15.159 38.8042 15.159C38.8042 15.159 38.8335 15.1516 38.892 15.1369C38.892 15.1369 38.8042 15.159 38.7603 15.1369C38.8481 15.1369 39.0565 15.0707 39.1003 15.0486H39.0126C39.2649 14.9825 39.7255 14.817 39.901 14.6404C39.4184 14.9825 38.5958 15.2141 37.8281 15.0266C37.6416 14.9825 37.4661 14.8611 37.2139 14.839C37.1481 14.839 37.0823 14.839 37.0055 14.8832C36.9287 14.9273 36.8958 14.9935 36.8739 15.0707C36.83 15.2031 36.9177 15.3686 37.0055 15.4348C37.1919 15.6003 37.4113 15.6444 37.6197 15.7106C37.8281 15.7547 38.0255 15.7989 38.2339 15.7989C38.6945 15.843 39.1442 15.7768 39.561 15.6885C39.9997 15.6003 40.3836 15.3907 40.7236 15.159C40.8333 15.0707 41.1294 14.8611 41.3158 14.5411C41.3816 14.4308 41.4475 14.155 41.25 13.9674C41.0855 13.8351 40.932 13.802 40.8113 13.7799V13.7578H40.7674ZM39.7145 12.8862C39.0565 12.8421 38.4094 12.7759 37.7732 12.7207C38.0255 12.7869 38.179 12.7428 38.3655 12.7649C38.8481 12.8311 39.3416 12.8752 39.8023 12.8973C39.6158 12.8973 39.4403 12.8752 39.2758 12.8531C39.55 12.8752 39.7803 12.8973 40.0545 12.8973C39.9668 12.8973 39.8023 12.8752 39.7584 12.8531L39.7145 12.8752V12.8862ZM36.841 14.3095C36.9506 14.3315 37.0713 14.3315 37.181 14.3536C37.7294 14.3977 38.2778 14.4419 38.7603 14.486L38.1681 14.4419C38.4642 14.4639 38.7165 14.486 39.0126 14.508C38.9249 14.508 38.7165 14.486 38.6726 14.4639C38.3107 14.4418 37.9377 14.4198 37.5758 14.3757C37.3894 14.3757 37.2358 14.3757 37.0274 14.3315C36.9397 14.3315 36.819 14.3095 36.7094 14.2433C36.5997 14.1991 36.479 14.0557 36.4571 13.9012C36.4571 14.0116 36.5229 14.1329 36.5887 14.1991C36.6545 14.2653 36.7203 14.2874 36.7971 14.2874L36.841 14.3095ZM37.0932 14.2212C37.2797 14.2212 37.4332 14.2212 37.5977 14.2433C37.4332 14.2433 37.2797 14.2433 37.0932 14.2212C36.9287 14.1991 36.7313 14.1771 36.6326 13.9895C36.7203 14.1991 36.9287 14.2212 37.0932 14.2433V14.2212ZM37.0713 3.5305C37.0713 3.5305 37.181 3.5305 37.2358 3.55256C37.1261 3.55256 37.0055 3.5305 36.8739 3.5305C36.9177 3.5305 37.0055 3.5305 37.0384 3.55256C37.4003 3.57463 37.7732 3.68495 38.0913 3.85045C37.9816 3.74012 37.8829 3.76218 37.7952 3.71805C37.5648 3.60773 37.3126 3.55256 37.0823 3.50843V3.5305H37.0713ZM40.8113 12.7318C40.8113 12.7318 40.6797 12.8642 40.6029 12.9193C40.6907 12.8973 40.7894 12.8311 40.8113 12.7318ZM37.521 3.78425C37.6855 3.82838 37.8171 3.87251 37.9816 3.97181C37.85 3.88354 37.6855 3.83941 37.521 3.78425ZM38.1352 4.038L38.179 4.08213C38.3107 4.17039 38.4313 4.29175 38.541 4.42415C38.4313 4.29175 38.2887 4.12626 38.1352 4.038ZM41.7875 0.893678C41.7875 0.893678 41.6997 0.98194 41.6778 1.00401L41.5681 1.1364C41.5681 1.1364 41.6558 1.00401 41.6997 0.970907C41.7436 0.926776 41.8313 0.86058 41.9081 0.783351C41.952 0.73922 41.9959 0.695089 42.0397 0.595795C42.0397 0.551664 42.0836 0.507533 42.0836 0.430304C42.0836 0.496501 42.0836 0.540631 42.0397 0.595795C42.0397 0.61786 41.9959 0.661991 41.9959 0.684057C42.0178 0.639926 42.0397 0.61786 42.0617 0.551664V0.319977V0.485468C42.0178 0.695089 41.8971 0.761286 41.8094 0.849547L41.7875 0.871613V0.893678Z" fill="#EF384C"/>
<path d="M65.3354 24.5038V22.3965C65.3354 20.3114 65.7961 18.7888 66.7284 17.8731C67.1671 17.4318 67.7045 17.1119 68.3735 16.8912H75.9304C77.5098 16.8912 78.6723 17.2332 79.4182 17.9504C80.1749 18.6675 80.5588 19.5832 80.5588 20.7085C80.5588 21.8339 80.1749 22.7937 79.4182 23.5108H75.3052V24.2942H65.6755L65.3354 24.5259V24.5038ZM74.9652 57.8777V59.1686C74.9652 61.1876 74.5265 62.677 73.6381 63.6258C72.7497 64.5856 71.5871 65.0711 70.1723 65.0711C68.6477 65.0711 67.4303 64.5636 66.5858 63.5817C65.7413 62.5666 65.3354 61.1214 65.3354 59.1686V57.8777H74.9652ZM75.5794 43.8331H74.9652V43.9214H65.9277V36.4853H74.9871V36.8273H76.5665V36.8494H76.6323V36.8715L76.6543 36.8935V36.9156V36.9377V36.9597C77.411 37.6217 77.773 38.5153 77.773 39.6186C77.773 40.7219 77.411 41.6376 76.6762 42.3326H76.6543V42.3547L76.6323 42.3768H76.6104V42.3988L76.5885 42.4209H76.5665V42.443H76.5226V42.465V42.4871H76.4788L76.4568 42.5092H75.5465L75.5904 43.8221L75.5794 43.8331ZM78.3214 43.8331H78.091C78.091 43.8331 78.2007 43.7448 78.2556 43.7007C78.7381 43.2373 79.0782 42.7188 79.3304 42.112C79.5607 41.5383 79.6704 40.8984 79.6704 40.2033C79.6704 39.5083 79.5607 38.8684 79.3085 38.2947C79.0781 37.7651 78.782 37.3128 78.3762 36.8935H83.575C85.8782 36.8935 87.8415 36.6839 89.4208 36.2978C91.0002 35.9116 92.2067 35.1945 93.0292 34.2346C93.8518 33.2748 94.2796 31.9398 94.2796 30.2408C94.2796 28.9058 93.9396 27.7364 93.2705 26.7324C92.6125 25.7174 91.6692 24.9672 90.4847 24.4597C89.366 23.9742 87.1505 23.7425 83.8492 23.7425H80.6136C80.8878 23.4005 81.0962 23.0585 81.2498 22.6393C81.502 22.0435 81.6117 21.3815 81.6117 20.6644C81.6117 19.9473 81.502 19.3074 81.2498 18.7116C80.9975 18.1158 80.6356 17.5863 80.1311 17.1229C79.8569 16.8471 79.5169 16.6375 79.1549 16.4609H86.8873C89.0589 16.4609 90.9015 16.5492 92.437 16.7368C93.9615 16.9243 95.3544 17.2884 96.5938 17.8621C98.0744 18.502 99.4016 19.3956 100.564 20.5761C101.705 21.7456 102.571 23.1247 103.164 24.6582C103.756 26.2139 104.052 27.8688 104.052 29.6119C104.052 33.1755 103.043 36.0219 101.058 38.1513C99.0506 40.2916 96.0125 41.8031 91.9544 42.6747C93.6654 43.5904 95.2886 44.9253 96.857 46.7126C98.4035 48.4999 99.7964 50.3865 101.014 52.4055C102.231 54.4245 103.185 56.2118 103.865 57.8446C104.545 59.4554 104.896 60.5808 104.896 61.1765C104.896 61.7723 104.688 62.4122 104.304 63.0411C103.92 63.6589 103.372 64.1443 102.659 64.5084C101.979 64.8725 101.178 65.038 100.268 65.038C99.1932 65.038 98.2828 64.7842 97.548 64.2767C96.8131 63.7692 96.177 63.1293 95.6506 62.346C95.1241 61.5627 94.4002 60.4153 93.4789 58.9038L89.6182 52.4497C88.2253 50.0887 86.9969 48.2903 85.9221 47.0547C84.8253 45.819 83.7285 44.9695 82.5879 44.5061C81.4691 44.0427 80.0543 43.8221 78.3433 43.8221H78.3214V43.8331Z" fill="#EF384C"/>
<path d="M75.9304 24.5037H53.7754V36.5073H74.1756C75.6782 36.5073 76.7969 36.8493 77.5317 37.5223C78.2885 38.1842 78.6505 39.0779 78.6505 40.1812C78.6505 41.2844 78.2885 42.2001 77.5537 42.8952C76.8188 43.5792 75.7001 43.9543 74.1756 43.9543H53.7754V57.8666H76.6872C78.2337 57.8666 79.4072 58.2307 80.175 58.9478C80.9756 59.6649 81.3595 60.6248 81.3595 61.8163C81.3595 63.0078 80.9756 63.9015 80.175 64.6186C79.3963 65.3357 78.2337 65.6998 76.6872 65.6998H49.9586C47.8089 65.6998 46.2844 65.2144 45.3521 64.2766C44.4198 63.3168 43.9373 61.7722 43.9373 59.6429V22.915C43.9373 21.4917 44.1456 20.3443 44.5734 19.4286C44.9792 18.535 45.6482 17.873 46.5366 17.4538C47.425 17.0456 48.5657 16.8359 49.9586 16.8359H75.9304C77.5098 16.8359 78.6724 17.178 79.4182 17.8951C80.175 18.6122 80.5589 19.5279 80.5589 20.6533C80.5589 21.7786 80.175 22.7384 79.4182 23.4556C78.6614 24.1396 77.4988 24.5147 75.9304 24.5147" fill="black"/>
<path fill-rule="evenodd" clip-rule="evenodd" d="M8.17111 24.1727C5.97754 26.3792 4.74915 29.358 4.74915 32.4693C4.74915 35.5805 5.97754 38.5593 8.17111 40.7659C10.3647 42.9614 13.337 44.197 16.4409 44.2081C19.5448 44.2081 22.517 42.9724 24.7106 40.7769C24.7874 40.6997 24.8532 40.6335 24.93 40.5562C24.8313 40.6114 22.1551 41.9684 19.9835 41.8691C19.808 41.8691 19.6325 41.8471 19.457 41.814C19.1938 41.7588 18.9415 41.6485 18.7222 41.5051C18.6783 41.483 18.6454 41.4499 18.6015 41.4278C18.3822 41.2734 18.1957 41.1079 18.0093 40.9424C17.6912 40.6335 17.2964 40.4239 16.8796 40.3135C16.4738 40.2473 16.068 40.2915 15.6841 40.4349C15.6621 40.4349 15.6402 40.4459 15.6073 40.4569C15.5634 40.468 15.5196 40.49 15.4757 40.5011C15.1686 40.5893 14.8505 40.5893 14.5325 40.5121C14.2254 40.4349 13.9402 40.2804 13.7099 40.0598C13.4795 39.8391 13.315 39.5633 13.2273 39.2544C13.1395 38.9455 13.1286 38.6255 13.2053 38.3166C13.2273 38.2394 13.2492 38.1732 13.2712 38.0959C13.2712 38.0849 13.2712 38.0739 13.2821 38.0629C13.7757 36.7169 14.4996 35.4812 15.4209 34.389C15.706 34.0028 16.0789 33.6829 16.5176 33.4732C16.6492 33.407 16.8028 33.385 16.9454 33.407C17.088 33.4291 17.2305 33.5063 17.3293 33.6056C17.3293 33.6056 17.3293 33.6167 17.3402 33.6277C17.8009 34.3448 18.108 35.1392 18.2725 35.9666C18.2725 35.9997 18.2835 36.0328 18.2944 36.0549C18.9964 35.2936 19.3912 34.2897 19.4131 33.2526V33.2305C19.4131 33.2305 19.4899 33.1643 19.5228 33.1312C19.5996 33.065 19.6654 32.9988 19.7422 32.9216C22.0783 30.5716 22.1112 26.7985 22.1112 26.7874C22.1112 26.7874 21.9577 26.7874 21.6835 26.8095C21.6396 26.8095 21.6067 26.8095 21.5628 26.8205C21.4861 26.8205 21.4093 26.8315 21.3325 26.8426C21.2777 26.8426 21.2338 26.8536 21.168 26.8646C21.1132 26.8646 21.0474 26.8757 20.9815 26.8867C20.9267 26.8867 20.8609 26.9088 20.7951 26.9198C20.7622 26.9198 20.7293 26.9198 20.6964 26.9419L20.5757 26.9639C20.488 26.975 20.4003 26.997 20.3125 27.0191C20.2686 27.0191 20.2357 27.0301 20.1919 27.0412C20.0273 27.0743 19.8628 27.1184 19.6983 27.1625C18.3164 27.4935 17.0441 28.1886 16.0021 29.1705C15.9473 29.2256 15.8815 29.2918 15.8267 29.347C15.7828 29.3911 15.7389 29.4463 15.695 29.4904C15.695 29.4904 15.6841 29.4904 15.6731 29.4904C15.5634 29.4904 15.4428 29.4904 15.3331 29.5125C15.2673 29.5125 15.2125 29.5235 15.1467 29.5346C15.0918 29.5346 15.0479 29.5456 14.9931 29.5566C14.9492 29.5566 14.8944 29.5787 14.8505 29.5897C14.7628 29.6118 14.675 29.6339 14.5873 29.6559C13.9512 29.8435 13.3699 30.1745 12.8873 30.6158C12.9202 30.6158 12.9421 30.6158 12.975 30.6268C13.1724 30.6599 13.3589 30.704 13.5454 30.7592C13.6221 30.7813 13.6989 30.8033 13.7647 30.8254C13.8415 30.8475 13.9073 30.8695 13.9841 30.9026C14.0389 30.9247 14.0937 30.9467 14.1486 30.9578C14.3131 31.024 14.4666 31.0902 14.6202 31.1674C14.8505 31.2777 15.0808 31.4101 15.3002 31.5535C15.4209 31.6528 15.4976 31.7963 15.5305 31.9507C15.5634 32.1052 15.5305 32.2596 15.4647 32.4031C15.2563 32.8444 14.9383 33.2195 14.5434 33.5063C13.4357 34.4552 12.1744 35.1943 10.8034 35.6798C10.7815 35.6798 10.7486 35.7019 10.7156 35.7019C10.4086 35.7901 10.0795 35.8011 9.77242 35.7239C9.46532 35.6467 9.18015 35.4922 8.93886 35.2716C8.69757 35.0509 8.53305 34.7751 8.44531 34.4662C8.35756 34.1573 8.3466 33.8373 8.42337 33.5174C8.45627 33.4181 8.47821 33.3298 8.51111 33.2416C8.51111 33.2416 8.51111 33.2305 8.51111 33.2195C8.6537 32.8444 8.6866 32.4362 8.63176 32.039C8.52208 31.6087 8.31369 31.2226 8.00659 30.9026C7.7982 30.682 7.61175 30.4392 7.44723 30.1855C7.1511 29.7221 7.03046 29.1705 7.09626 28.6188H7.07433C7.07433 28.6188 6.85497 25.8496 8.29176 23.9851C8.23692 24.0292 8.19305 24.0844 8.13821 24.1396L8.17111 24.1727ZM18.7441 30.1634C18.6344 30.0531 18.5467 29.8986 18.5247 29.7442C18.4918 29.5787 18.5138 29.4132 18.5796 29.2698C18.6235 29.1815 18.6783 29.0933 18.7441 29.0271C18.8538 28.9167 19.0073 28.8395 19.1609 28.8064C19.1828 28.8064 19.2157 28.8064 19.2377 28.8064C19.2925 28.8064 19.3364 28.8064 19.3912 28.8064C19.4131 28.8064 19.446 28.8064 19.468 28.8064C19.5886 28.8285 19.7093 28.8836 19.808 28.9609C19.9067 29.0381 19.9835 29.1374 20.0383 29.2477C20.0932 29.358 20.1151 29.4904 20.1151 29.6118C20.1151 29.7332 20.0822 29.8655 20.0164 29.9759C19.9615 30.0862 19.8738 30.1855 19.7641 30.2627C19.6654 30.34 19.5448 30.3841 19.4131 30.4061C19.2925 30.4282 19.1609 30.4061 19.0402 30.373C18.9196 30.3289 18.8099 30.2627 18.7222 30.1745L18.7441 30.1634Z" fill="black"/>
</g>
</g>
<defs>
<clipPath id="clip0_247_2">
<rect width="148" height="86" fill="white"/>
</clipPath>
<clipPath id="clip1_247_2">
<rect width="148" height="86" fill="white"/>
</clipPath>
</defs>
</svg>
